<svg width="16" height="14" viewBox="0 0 16 14" fill="none" xmlns="http://www.w3.org/2000/svg">
<path d="M14.9058 3.27198L11.961 0.500391C11.8252 0.37255 11.6586 0.2788 11.4774 0.227663V0.181641H1.3354C1.01484 0.181641 0.755859 0.425391 0.755859 0.727095V13.2725C0.755859 13.5743 1.01484 13.818 1.3354 13.818H14.6649C14.9855 13.818 15.2445 13.5743 15.2445 13.2725V4.04244C15.2445 3.75266 15.1232 3.47653 14.9058 3.27198ZM5.68199 1.40891H10.3184V3.18164H5.68199V1.40891ZM13.9405 12.5907H2.05984V1.40891H4.5229V3.72709C4.5229 4.0288 4.78189 4.27255 5.10245 4.27255H10.8979C11.2185 4.27255 11.4774 4.0288 11.4774 3.72709V1.7805L13.9405 4.09869V12.5907ZM8.00018 5.80664C6.56037 5.80664 5.39222 6.90607 5.39222 8.26119C5.39222 9.6163 6.56037 10.7157 8.00018 10.7157C9.43998 10.7157 10.6081 9.6163 10.6081 8.26119C10.6081 6.90607 9.43998 5.80664 8.00018 5.80664ZM8.00018 9.62482C7.19968 9.62482 6.55131 9.01459 6.55131 8.26119C6.55131 7.50778 7.19968 6.89755 8.00018 6.89755C8.80067 6.89755 9.44904 7.50778 9.44904 8.26119C9.44904 9.01459 8.80067 9.62482 8.00018 9.62482Z" fill="#54B2D3"/>
</svg>
