<svg width="13" height="16" viewBox="0 0 13 16" fill="none" xmlns="http://www.w3.org/2000/svg">
<path d="M12.125 0.365234H0.875C0.563867 0.365234 0.3125 0.608984 0.3125 0.910689V15.0925C0.3125 15.3942 0.563867 15.638 0.875 15.638H12.125C12.4361 15.638 12.6875 15.3942 12.6875 15.0925V0.910689C12.6875 0.608984 12.4361 0.365234 12.125 0.365234ZM7.55469 1.59251H9.24219V5.17035L8.4248 4.59251L7.55469 5.19592V1.59251ZM11.4219 14.4107H1.57812V1.59251H6.5V6.6533C6.5 6.70955 6.51758 6.7658 6.55273 6.81183C6.57408 6.84108 6.60119 6.86594 6.6325 6.88497C6.66381 6.90399 6.6987 6.91681 6.73516 6.92267C6.77161 6.92854 6.80891 6.92734 6.84488 6.91914C6.88085 6.91093 6.91479 6.8959 6.94473 6.87489L8.41777 5.85387L9.84863 6.86637C9.89609 6.90046 9.9541 6.91921 10.0139 6.91921C10.1686 6.91921 10.2951 6.79648 10.2951 6.64648V1.59251H11.4201V14.4107H11.4219Z" fill="#54B2D3"/>
</svg>
