<svg xmlns="http://www.w3.org/2000/svg" fill="none" viewBox="0 0 24 24" height="24" width="24">
<rect fill="#7B61E2" rx="6" height="24" width="24"></rect>
<path fill="white" d="M11.2501 12C11.2501 12.1989 11.3291 12.3897 11.4698 12.5303C11.6104 12.671 11.8012 12.75 12.0001 12.75C12.199 12.75 12.3898 12.671 12.5304 12.5303C12.6711 12.3897 12.7501 12.1989 12.7501 12C12.7501 11.8011 12.6711 11.6103 12.5304 11.4697C12.3898 11.329 12.199 11.25 12.0001 11.25C11.8012 11.25 11.6104 11.329 11.4698 11.4697C11.3291 11.6103 11.2501 11.8011 11.2501 12ZM14.3751 12C14.3751 12.1989 14.4541 12.3897 14.5948 12.5303C14.7354 12.671 14.9262 12.75 15.1251 12.75C15.324 12.75 15.5148 12.671 15.6554 12.5303C15.7961 12.3897 15.8751 12.1989 15.8751 12C15.8751 11.8011 15.7961 11.6103 15.6554 11.4697C15.5148 11.329 15.324 11.25 15.1251 11.25C14.9262 11.25 14.7354 11.329 14.5948 11.4697C14.4541 11.6103 14.3751 11.8011 14.3751 12ZM8.12509 12C8.12509 12.1989 8.20411 12.3897 8.34476 12.5303C8.48541 12.671 8.67618 12.75 8.87509 12.75C9.074 12.75 9.26477 12.671 9.40542 12.5303C9.54607 12.3897 9.62509 12.1989 9.62509 12C9.62509 11.8011 9.54607 11.6103 9.40542 11.4697C9.26477 11.329 9.074 11.25 8.87509 11.25C8.67618 11.25 8.48541 11.329 8.34476 11.4697C8.20411 11.6103 8.12509 11.8011 8.12509 12ZM18.4563 9.2875C18.1032 8.44844 17.597 7.69531 16.9517 7.04844C16.3109 6.40531 15.5501 5.8941 14.7126 5.54375C13.8532 5.18281 12.9407 5 12.0001 5H11.9688C11.022 5.00469 10.1048 5.19219 9.24228 5.56094C8.4119 5.91488 7.65831 6.427 7.02353 7.06875C6.38446 7.71406 5.8829 8.46406 5.53603 9.3C5.17665 10.1656 4.9954 11.0859 5.00009 12.0328C5.00539 13.1179 5.26211 14.187 5.75009 15.1562V17.5312C5.75009 17.7219 5.82581 17.9047 5.96061 18.0395C6.0954 18.1743 6.27821 18.25 6.46884 18.25H8.8454C9.81461 18.738 10.8837 18.9947 11.9688 19H12.0017C12.9376 19 13.8454 18.8188 14.7001 18.4641C15.5334 18.1179 16.2913 17.6126 16.9313 16.9766C17.5767 16.3375 18.0845 15.5906 18.4392 14.7578C18.8079 13.8953 18.9954 12.9781 19.0001 12.0312C19.0048 11.0797 18.8204 10.1562 18.4563 9.2875ZM16.0954 16.1313C15.0001 17.2156 13.547 17.8125 12.0001 17.8125H11.9735C11.0313 17.8078 10.0954 17.5734 9.26884 17.1328L9.13759 17.0625H6.93759V14.8625L6.86728 14.7312C6.42665 13.9047 6.19228 12.9688 6.18759 12.0266C6.18134 10.4688 6.77665 9.00625 7.86884 7.90469C8.95946 6.80312 10.4173 6.19375 11.9751 6.1875H12.0017C12.7829 6.1875 13.5407 6.33906 14.2548 6.63906C14.9517 6.93125 15.5767 7.35156 16.1142 7.88906C16.6501 8.425 17.072 9.05156 17.3642 9.74844C17.6673 10.4703 17.8188 11.2359 17.8157 12.0266C17.8063 13.5828 17.1954 15.0406 16.0954 16.1313Z"></path>
</svg>
