<svg width="14" height="14" viewBox="0 0 14 14" fill="none" xmlns="http://www.w3.org/2000/svg">
<path d="M3.5 5.57812C3.5 5.77704 3.57902 5.9678 3.71967 6.10846C3.86032 6.24911 4.05109 6.32812 4.25 6.32812C4.44891 6.32812 4.63968 6.24911 4.78033 6.10846C4.92098 5.9678 5 5.77704 5 5.57812C5 5.37921 4.92098 5.18845 4.78033 5.04779C4.63968 4.90714 4.44891 4.82812 4.25 4.82812C4.05109 4.82812 3.86032 4.90714 3.71967 5.04779C3.57902 5.18845 3.5 5.37921 3.5 5.57812ZM9 5.57812C9 5.77704 9.07902 5.9678 9.21967 6.10846C9.36032 6.24911 9.55109 6.32812 9.75 6.32812C9.94891 6.32812 10.1397 6.24911 10.2803 6.10846C10.421 5.9678 10.5 5.77704 10.5 5.57812C10.5 5.37921 10.421 5.18845 10.2803 5.04779C10.1397 4.90714 9.94891 4.82812 9.75 4.82812C9.55109 4.82812 9.36032 4.90714 9.21967 5.04779C9.07902 5.18845 9 5.37921 9 5.57812ZM7 0C3.13438 0 0 3.13438 0 7C0 10.8656 3.13438 14 7 14C10.8656 14 14 10.8656 14 7C14 3.13438 10.8656 0 7 0ZM11.1094 11.1094C10.575 11.6438 9.95312 12.0625 9.26094 12.3562C8.54688 12.6594 7.78594 12.8125 7 12.8125C6.21406 12.8125 5.45312 12.6594 4.7375 12.3562C4.04636 12.0644 3.41857 11.6409 2.88906 11.1094C2.35469 10.575 1.93594 9.95312 1.64219 9.26094C1.34063 8.54688 1.1875 7.78594 1.1875 7C1.1875 6.21406 1.34062 5.45312 1.64375 4.7375C1.93564 4.04636 2.35912 3.41857 2.89062 2.88906C3.425 2.35469 4.04688 1.93594 4.73906 1.64219C5.45312 1.34063 6.21406 1.1875 7 1.1875C7.78594 1.1875 8.54688 1.34062 9.2625 1.64375C9.95364 1.93564 10.5814 2.35912 11.1109 2.89062C11.6453 3.425 12.0641 4.04688 12.3578 4.73906C12.6594 5.45312 12.8125 6.21406 12.8125 7C12.8125 7.78594 12.6594 8.54688 12.3562 9.2625C12.0647 9.95337 11.6412 10.5807 11.1094 11.1094ZM9.375 7.32812H8.62344C8.55781 7.32812 8.50156 7.37813 8.49687 7.44375C8.4375 8.21719 7.78906 8.82812 7 8.82812C6.21094 8.82812 5.56094 8.21719 5.50313 7.44375C5.49844 7.37813 5.44219 7.32812 5.37656 7.32812H4.625C4.60805 7.3281 4.59126 7.33153 4.57568 7.3382C4.56009 7.34487 4.54602 7.35464 4.53433 7.36692C4.52263 7.3792 4.51356 7.39372 4.50766 7.40962C4.50176 7.42551 4.49915 7.44244 4.5 7.45938C4.56875 8.77656 5.66406 9.82812 7 9.82812C8.33594 9.82812 9.43125 8.77656 9.5 7.45938C9.50085 7.44244 9.49824 7.42551 9.49234 7.40962C9.48644 7.39372 9.47737 7.3792 9.46567 7.36692C9.45398 7.35464 9.43991 7.34487 9.42432 7.3382C9.40874 7.33153 9.39195 7.3281 9.375 7.32812Z" fill="#9292A3"/>
</svg>
