<svg width="124" height="359" viewBox="0 0 124 359" fill="none" xmlns="http://www.w3.org/2000/svg">
  <rect x="52" width="20" height="359" fill="#A1E2F4"/>
  <g clip-path="url(#clip0)">
    <path d="M100.559 198.542L86.0517 136.312C85.6684 134.667 84.2024 133.504 82.5139 133.504H41.4883C39.7997 133.504 38.3338 134.667 37.9504 136.312L23.4426 198.542C23.1229 199.914 23.6248 201.346 24.7301 202.219C25.384 202.735 26.1794 203 26.981 203C27.5344 203 28.0907 202.874 28.6051 202.616L42.2841 195.777L52.2034 202.39C53.2511 203.088 54.586 203.194 55.7304 202.67C56.8754 202.146 57.6671 201.067 57.8233 199.818L62.0011 166.397L66.1788 199.818C66.335 201.067 67.1267 202.146 68.2718 202.67C69.4161 203.194 70.7508 203.088 71.7988 202.39L81.718 195.777L95.397 202.616C95.9114 202.874 96.4677 203 97.0211 203C97.8228 203 98.6181 202.735 99.272 202.219C100.377 201.346 100.879 199.914 100.559 198.542Z" fill="#6CC6E6"/>
    <path d="M100.558 198.542L86.0507 136.312C85.6673 134.667 84.2013 133.504 82.5128 133.504H62V166.397L66.1777 199.818C66.3339 201.067 67.1257 202.146 68.2707 202.67C69.4151 203.194 70.7497 203.088 71.7977 202.39L81.717 195.777L95.396 202.616C95.9104 202.874 96.4667 203 97.0201 203C97.8217 203 98.6171 202.735 99.271 202.219C100.376 201.346 100.878 199.914 100.558 198.542Z" fill="#54B2D3"/>
    <path d="M100.125 163.603C89.4806 157.456 77.094 147.723 67.4922 139.93C66.4716 139.102 65.978 137.788 66.2013 136.493C66.4246 135.197 67.3299 134.124 68.5687 133.685C75.2751 131.31 91.1384 125.045 105.155 118.345C106.128 117.88 107.258 117.871 108.238 118.321C113.71 120.835 118.401 123.216 122.181 125.399C123.918 126.403 124.513 128.624 123.51 130.362L105.087 162.273C104.606 163.107 103.812 163.716 102.882 163.966C101.438 164.353 100.34 163.727 100.125 163.603Z" fill="#40A0C1"/>
    <path d="M69.7854 140.742C69.0441 140.742 68.31 140.515 67.6885 140.076C66.7251 139.396 66.1523 138.289 66.1523 137.11V105.98C66.1523 104.883 66.6486 103.844 67.5023 103.154C77.2644 95.2692 89.7949 85.4533 100.129 79.4873C101.866 78.4842 104.089 79.0794 105.091 80.8171L123.514 112.728C124.517 114.466 123.922 116.688 122.184 117.691C106.386 126.813 80.4182 137.197 70.9978 140.534C70.6033 140.674 70.1932 140.742 69.7854 140.742Z" fill="#54B2D3"/>
    <path d="M21.1253 163.966C20.1946 163.716 19.401 163.108 18.9193 162.273L0.702887 130.719C0.327496 130.068 -0.551644 128.545 0.496543 126.729C0.815262 126.177 1.27372 125.718 1.82567 125.399C5.61348 123.211 10.3047 120.83 15.7691 118.321C16.749 117.871 17.8783 117.88 18.8517 118.345C32.8685 125.045 48.7318 131.31 55.4382 133.685C56.677 134.124 57.5823 135.197 57.8054 136.492C58.0287 137.787 57.5351 139.102 56.5145 139.93C46.913 147.722 34.5268 157.455 23.8817 163.602C23.6649 163.728 22.5693 164.352 21.1253 163.966Z" fill="#54B2D3"/>
    <path d="M54.2255 140.742C53.8174 140.742 53.4076 140.674 53.0129 140.534C43.5928 137.197 17.6254 126.813 1.82632 117.691C1.27413 117.372 0.815669 116.913 0.496708 116.361C-0.551722 114.545 0.327419 113.022 0.703052 112.371L18.9194 80.8171C19.9226 79.0794 22.1442 78.4842 23.8818 79.4873C34.2167 85.4538 46.747 95.2694 56.5086 103.154C57.3626 103.844 57.8588 104.883 57.8588 105.98V137.11C57.8588 138.289 57.286 139.396 56.3226 140.076C55.7009 140.515 54.9666 140.742 54.2255 140.742Z" fill="#6CC6E6"/>
    <path d="M69.7832 140.742H54.2187C52.2125 140.742 50.5859 139.115 50.5859 137.109V105.98C50.5859 103.974 52.2125 102.347 54.2187 102.347H69.7832C71.7894 102.347 73.416 103.974 73.416 105.98V137.109C73.416 139.115 71.7894 140.742 69.7832 140.742Z" fill="#90D5EF"/>
    <path d="M69.7822 102.347H62V140.742H69.7822C71.7885 140.742 73.415 139.115 73.415 137.109V105.98C73.415 103.974 71.7885 102.347 69.7822 102.347Z" fill="#6CC6E6"/>
  </g>
  <defs>
    <clipPath id="clip0">
      <rect width="124" height="124" fill="white" transform="translate(0 79)"/>
    </clipPath>
  </defs>
</svg>
