<svg width="16" height="14" viewBox="0 0 16 14" fill="none" xmlns="http://www.w3.org/2000/svg">
<path d="M15.3125 1.9375H12.5V0.953125C12.5 0.875781 12.4367 0.8125 12.3594 0.8125H11.375C11.2977 0.8125 11.2344 0.875781 11.2344 0.953125V1.9375H8.63281V0.953125C8.63281 0.875781 8.56953 0.8125 8.49219 0.8125H7.50781C7.43047 0.8125 7.36719 0.875781 7.36719 0.953125V1.9375H4.76562V0.953125C4.76562 0.875781 4.70234 0.8125 4.625 0.8125H3.64062C3.56328 0.8125 3.5 0.875781 3.5 0.953125V1.9375H0.6875C0.376367 1.9375 0.125 2.18887 0.125 2.5V12.625C0.125 12.9361 0.376367 13.1875 0.6875 13.1875H15.3125C15.6236 13.1875 15.875 12.9361 15.875 12.625V2.5C15.875 2.18887 15.6236 1.9375 15.3125 1.9375ZM14.6094 11.9219H1.39062V3.20312H3.5V4.1875C3.5 4.26484 3.56328 4.32812 3.64062 4.32812H4.625C4.70234 4.32812 4.76562 4.26484 4.76562 4.1875V3.20312H7.36719V4.1875C7.36719 4.26484 7.43047 4.32812 7.50781 4.32812H8.49219C8.56953 4.32812 8.63281 4.26484 8.63281 4.1875V3.20312H11.2344V4.1875C11.2344 4.26484 11.2977 4.32812 11.375 4.32812H12.3594C12.4367 4.32812 12.5 4.26484 12.5 4.1875V3.20312H14.6094V11.9219ZM6.3125 6.71875H3.07812C3.00078 6.71875 2.9375 6.78203 2.9375 6.85938V7.70312C2.9375 7.78047 3.00078 7.84375 3.07812 7.84375H6.3125C6.38984 7.84375 6.45312 7.78047 6.45312 7.70312V6.85938C6.45312 6.78203 6.38984 6.71875 6.3125 6.71875ZM6.3125 9.10938H3.07812C3.00078 9.10938 2.9375 9.17266 2.9375 9.25V10.0938C2.9375 10.1711 3.00078 10.2344 3.07812 10.2344H6.3125C6.38984 10.2344 6.45312 10.1711 6.45312 10.0938V9.25C6.45312 9.17266 6.38984 9.10938 6.3125 9.10938ZM11.7301 5.99102L9.90898 8.51699L8.98086 7.23203C8.92812 7.1582 8.84375 7.11602 8.7541 7.11602H7.78906C7.6748 7.11602 7.60801 7.24609 7.6748 7.33926L9.68047 10.1201C9.70636 10.1561 9.74043 10.1853 9.77985 10.2055C9.81928 10.2257 9.86293 10.2362 9.90723 10.2362C9.95152 10.2362 9.99518 10.2257 10.0346 10.2055C10.074 10.1853 10.1081 10.1561 10.134 10.1201L13.0344 6.1C13.1012 6.00684 13.0344 5.87676 12.9201 5.87676H11.9551C11.8672 5.875 11.7828 5.91895 11.7301 5.99102Z" fill="#3D3D46"/>
</svg>
