<svg width="32" height="32" viewBox="0 0 32 32" fill="none" xmlns="http://www.w3.org/2000/svg">
<circle cx="16" cy="16" r="16" fill="#3D3D46"/>
<path d="M6 17.4144V16.895L7.65746 16.6077V17.326C7.65746 17.6575 7.74586 17.9116 7.92265 18.0884C8.10681 18.2578 8.33517 18.3425 8.60773 18.3425C8.88766 18.3425 9.10866 18.2505 9.27072 18.0663C9.44015 17.8748 9.52486 17.6317 9.52486 17.337V12H11.2707V17.3812C11.2707 18.1105 11.0203 18.7293 10.5193 19.2376C10.0184 19.7459 9.3849 20 8.61878 20C7.83794 20 7.20442 19.7643 6.71823 19.2928C6.23941 18.814 6 18.1878 6 17.4144Z" fill="white"/>
<path d="M12.6331 19.6022C12.4121 19.3738 12.3016 19.105 12.3016 18.7956C12.3016 18.4862 12.4121 18.221 12.6331 18C12.8541 17.779 13.1193 17.6685 13.4287 17.6685C13.7381 17.6685 14.0033 17.779 14.2243 18C14.4526 18.221 14.5668 18.4862 14.5668 18.7956C14.5668 19.0976 14.4526 19.3628 14.2243 19.5912C14.0033 19.8195 13.7381 19.9337 13.4287 19.9337C13.1193 19.9337 12.8541 19.8232 12.6331 19.6022Z" fill="white"/>
<path d="M21.3419 19.8343L20.7784 18.2431H17.7508L17.1872 19.8343H15.353L18.3033 12H20.3254L23.2425 19.8343H21.3419ZM19.2867 13.9448L18.3254 16.6519H20.2259L19.2867 13.9448Z" fill="white"/>
<path d="M24.3627 19.6022C24.1417 19.3738 24.0312 19.105 24.0312 18.7956C24.0312 18.4862 24.1417 18.221 24.3627 18C24.5836 17.779 24.8488 17.6685 25.1582 17.6685C25.4676 17.6685 25.7328 17.779 25.9538 18C26.1822 18.221 26.2964 18.4862 26.2964 18.7956C26.2964 19.0976 26.1822 19.3628 25.9538 19.5912C25.7328 19.8195 25.4676 19.9337 25.1582 19.9337C24.8488 19.9337 24.5836 19.8232 24.3627 19.6022Z" fill="white"/>
</svg>
