<svg width="344" height="192" viewBox="0 0 344 192" fill="none" xmlns="http://www.w3.org/2000/svg">
<rect width="344" height="192" fill="#FBFBFD"/>
<path d="M140.67 159.643C143.11 157.583 144.592 154.329 144.203 151.161C143.815 147.993 141.407 145.081 138.284 144.408C135.162 143.736 131.602 145.598 130.653 148.646C130.131 142.77 129.53 136.647 126.403 131.644C123.572 127.113 118.668 123.871 113.353 123.291C108.039 122.711 102.443 124.901 99.1287 129.092C95.8142 133.283 95.0026 139.376 97.324 144.188C99.0341 147.732 102.185 150.37 105.486 152.516C116.153 159.392 128.946 162.189 141.513 160.391" fill="#EFF0F7"/>
<path d="M104.385 125.023C108.77 128.591 112.793 132.582 116.396 136.939C122.034 143.732 126.596 151.35 129.924 159.525C130.167 160.121 129.198 160.381 128.957 159.791C126.841 154.622 124.223 149.673 121.14 145.015C116.334 137.737 110.445 131.235 103.676 125.731C103.176 125.324 103.889 124.619 104.385 125.023V125.023Z" fill="white"/>
<path d="M142.355 159.643C139.915 157.583 138.433 154.329 138.821 151.161C139.21 147.993 141.618 145.081 144.74 144.408C147.863 143.736 151.423 145.598 152.371 148.646C152.893 142.77 153.495 136.647 156.622 131.644C159.453 127.113 164.357 123.871 169.671 123.291C174.986 122.711 180.582 124.901 183.896 129.092C187.211 133.283 188.022 139.376 185.701 144.188C183.991 147.732 180.84 150.37 177.539 152.516C166.872 159.392 154.078 162.189 141.512 160.391" fill="#EFF0F7"/>
<path d="M178.64 125.023C174.255 128.591 170.232 132.582 166.629 136.939C160.991 143.732 156.429 151.35 153.101 159.525C152.858 160.121 153.827 160.381 154.068 159.791C159.513 146.505 168.205 134.794 179.349 125.731C179.849 125.324 179.136 124.619 178.64 125.023V125.023Z" fill="white"/>
<path d="M149.595 89.4803C154.109 89.4803 157.769 85.8242 157.769 81.3141C157.769 76.8041 154.109 73.1479 149.595 73.1479C145.081 73.1479 141.422 76.8041 141.422 81.3141C141.422 85.8242 145.081 89.4803 149.595 89.4803Z" fill="#F2F2F2"/>
<path d="M124.395 53.1639H180.707V56.2421H131.583C128.695 56.2421 125.835 56.8105 123.167 57.9148C120.498 59.0191 118.074 60.6378 116.031 62.6783C113.989 64.7188 112.369 67.1412 111.263 69.8073C110.158 72.4734 109.589 75.3309 109.589 78.2166V113.188H103.427C103.155 113.188 102.894 113.08 102.701 112.888C102.509 112.695 102.4 112.435 102.4 112.162V75.1384C102.4 72.2527 102.969 69.3952 104.075 66.7291C105.18 64.0631 106.8 61.6406 108.842 59.6001C110.885 57.5596 113.309 55.9409 115.978 54.8366C118.646 53.7323 121.506 53.1639 124.395 53.1639Z" fill="#EFF0F7"/>
<path d="M135.227 159.815V113.057H148.937V159.815C148.937 160.129 148.811 160.43 148.589 160.652C148.367 160.875 148.065 161 147.75 161H136.413C136.098 161 135.797 160.875 135.574 160.652C135.352 160.43 135.227 160.129 135.227 159.815Z" fill="#3F3D56"/>
<path d="M99.5 112.135V74.1135C99.5068 68.0608 101.916 62.2579 106.2 57.978C110.484 53.698 116.292 51.2905 122.35 51.2837H180.444V113.452H100.818C100.469 113.451 100.134 113.313 99.8866 113.066C99.6394 112.819 99.5004 112.484 99.5 112.135ZM179.916 51.8105H122.35C116.432 51.8172 110.758 54.1692 106.573 58.3503C102.388 62.5315 100.034 68.2005 100.027 74.1135V112.135C100.028 112.344 100.111 112.545 100.259 112.693C100.408 112.841 100.609 112.925 100.818 112.925H179.916V51.8105Z" fill="#3F3D56"/>
<path d="M149.597 85.5289C148.338 85.5275 147.132 85.0274 146.242 84.1385C145.353 83.2496 144.852 82.0444 144.851 80.7872V46.8055C144.85 46.5959 144.767 46.3951 144.619 46.2469C144.47 46.0988 144.269 46.0154 144.06 46.0152H125.603C125.254 46.0148 124.919 45.8759 124.672 45.629C124.425 45.3821 124.286 45.0473 124.285 44.6981V32.3171C124.286 31.9679 124.425 31.6331 124.672 31.3862C124.919 31.1393 125.254 31.0004 125.603 31H153.024C153.374 31.0004 153.709 31.1393 153.956 31.3862C154.203 31.6331 154.342 31.9679 154.342 32.3171V80.7872C154.341 82.0444 153.841 83.2496 152.951 84.1385C152.061 85.0274 150.855 85.5275 149.597 85.5289Z" fill="#54B2D3"/>
<path d="M182.554 50.7569C186.532 50.7485 190.349 52.3192 193.168 55.1233C195.986 57.9274 197.574 61.7353 197.583 65.7092V108.992H227.113C228.299 108.99 229.438 109.458 230.278 110.295C231.119 111.131 231.592 112.267 231.595 113.452H167.525V65.7092C167.534 61.7353 169.122 57.9274 171.94 55.1233C174.759 52.3192 178.577 50.7485 182.554 50.7569Z" fill="#3F3D56"/>
<path d="M178.947 75.4048L182.059 88.2483L242.933 73.5251L239.821 60.6816C239.784 60.5246 239.707 60.3796 239.598 60.26C239.49 60.1405 239.353 60.0504 239.2 59.998C239.087 59.9583 238.967 59.9404 238.848 59.9451L203.66 41.742C203.454 41.6368 203.217 41.6087 202.992 41.6627C202.767 41.7168 202.568 41.8495 202.432 42.0368L185.474 65.6643L179.081 74.5741C179.069 74.5897 179.061 74.6076 179.057 74.6266C179.053 74.6456 179.053 74.6653 179.057 74.6843C178.927 74.9006 178.887 75.1595 178.947 75.4048Z" fill="white"/>
<path d="M179.058 74.6843C179.061 74.701 179.067 74.7169 179.076 74.7312C179.086 74.7455 179.098 74.7578 179.111 74.7675C179.128 74.7788 179.147 74.7866 179.166 74.7905C179.186 74.7943 179.206 74.7942 179.226 74.79C179.258 74.7815 179.285 74.7622 179.305 74.7354L179.327 74.705L179.659 74.2399L185.705 65.8197L202.658 42.1976C202.755 42.0638 202.897 41.969 203.057 41.9305C203.218 41.892 203.387 41.9124 203.534 41.9879L238.45 60.05L238.763 60.2125C238.776 60.2178 238.789 60.2223 238.802 60.2261C238.825 60.2218 238.849 60.2195 238.873 60.2192C238.906 60.2083 238.933 60.1852 238.95 60.1548C238.958 60.1387 238.963 60.1212 238.965 60.1031C238.967 60.085 238.965 60.0668 238.96 60.0495C238.954 60.0321 238.946 60.016 238.934 60.0021C238.922 59.9881 238.908 59.9765 238.892 59.9681L238.849 59.9451L203.661 41.742C203.455 41.6368 203.218 41.6087 202.993 41.6627C202.767 41.7168 202.569 41.8495 202.433 42.0368L185.475 65.6643L179.081 74.5741C179.07 74.5897 179.062 74.6076 179.058 74.6266C179.054 74.6456 179.054 74.6653 179.058 74.6843Z" fill="#3F3D56"/>
<path d="M197.339 75.9939L198.694 76.1441L208.751 77.2571L215.418 77.9946L215.812 78.0383L224.131 71.5463L224.449 71.2976L226.414 69.7644L233.405 64.3099L233.447 63.9267L235.933 41.5056C235.967 41.1968 235.877 40.8873 235.683 40.6447C235.489 40.4022 235.206 40.2465 234.897 40.2118L201.714 36.5392C201.405 36.5055 201.095 36.5954 200.853 36.7894C200.61 36.9834 200.454 37.2656 200.419 37.5742L198.666 53.3896L197.693 62.1579L196.823 70.0023L196.419 73.6452L196.302 74.7004C196.268 75.0093 196.359 75.3188 196.553 75.5613C196.747 75.8037 197.03 75.9593 197.339 75.9939Z" fill="#EFF0F7"/>
<path d="M206.458 56.3408L220.832 57.9314L225.929 58.4953C226.154 58.5202 226.382 58.5006 226.599 58.4375C226.817 58.3745 227.02 58.2693 227.197 58.1279C227.373 57.9865 227.52 57.8117 227.63 57.6135C227.739 57.4153 227.808 57.1976 227.833 56.9727C227.858 56.7478 227.838 56.5203 227.775 56.303C227.712 56.0858 227.606 55.883 227.465 55.7064C227.323 55.5298 227.149 55.3828 226.95 55.2737C226.752 55.1647 226.534 55.0957 226.309 55.0708L219.969 54.3693L206.838 52.9147C206.384 52.8645 205.928 52.9967 205.571 53.2823C205.214 53.5679 204.985 53.9835 204.934 54.4377C204.884 54.8919 205.016 55.3475 205.302 55.7044C205.587 56.0612 206.003 56.2902 206.458 56.3408Z" fill="white"/>
<path d="M205.639 62.6936C205.676 62.7002 205.713 62.7068 205.751 62.7105L222.437 64.5573L225.223 64.8663C225.677 64.9165 226.134 64.7843 226.491 64.4986C226.848 64.2129 227.077 63.7971 227.127 63.3428C227.177 62.8886 227.045 62.4329 226.759 62.0761C226.473 61.7194 226.057 61.4907 225.602 61.4405L221.574 60.9952L208.356 59.5319L206.132 59.2856C205.687 59.2361 205.241 59.3613 204.886 59.6348C204.532 59.9083 204.299 60.3086 204.235 60.7512C204.171 61.1938 204.281 61.6439 204.543 62.0064C204.806 62.3689 205.198 62.6153 205.639 62.6936V62.6936Z" fill="white"/>
<path d="M203.752 68.3266C203.889 68.5534 204.076 68.7457 204.299 68.8885C204.522 69.0313 204.775 69.1207 205.039 69.1499L211.878 69.9067L224.058 71.2549L224.061 71.2542L224.45 71.2976L226.415 69.7644C226.427 69.648 226.427 69.5305 226.415 69.4141C226.374 69.023 226.2 68.6577 225.923 68.3788C225.645 68.0998 225.281 67.9238 224.89 67.8799L223.198 67.6921L216.486 66.95L211.656 66.4148L205.418 65.7241C205.098 65.6887 204.775 65.7434 204.485 65.882C204.195 66.0205 203.949 66.2374 203.776 66.5082C203.602 66.7789 203.508 67.0927 203.504 67.414C203.5 67.7353 203.586 68.0514 203.752 68.3266L203.752 68.3266Z" fill="white"/>
<path d="M213.356 48.5756L216.933 48.9713L218.512 49.1466L220.898 49.4104C221.353 49.4607 221.809 49.3284 222.166 49.0427C222.523 48.757 222.752 48.3413 222.803 47.887C222.853 47.4327 222.72 46.9771 222.435 46.6203C222.149 46.2635 221.732 46.0349 221.278 45.9846L213.737 45.1507C213.283 45.1003 212.827 45.2323 212.47 45.5177C212.112 45.8032 211.883 46.2187 211.833 46.6728C211.782 47.127 211.914 47.5826 212.2 47.9394C212.486 48.2963 212.902 48.5251 213.356 48.5756V48.5756Z" fill="white"/>
<path d="M184.115 58.1147L188.475 76.1103L195.752 77.4928L202.484 78.7733L209.707 80.1463L212.015 80.5851C212.15 80.6106 212.289 80.6071 212.422 80.5748C212.556 80.5425 212.681 80.4821 212.79 80.3977L214.641 78.9529L215.813 78.0383L224.132 71.5463L218.843 49.7153C218.791 49.4981 218.677 49.3006 218.515 49.1466C218.373 49.0102 218.199 48.9118 218.009 48.8604C217.819 48.809 217.619 48.8062 217.427 48.8523L184.979 56.7004C184.676 56.7737 184.416 56.9638 184.254 57.229C184.092 57.4942 184.042 57.8127 184.115 58.1147Z" fill="#54B2D3"/>
<path d="M194.111 72.4309C194.219 72.8748 194.498 73.2577 194.889 73.4957C195.279 73.7336 195.748 73.8071 196.192 73.7L215.232 69.0949C215.677 68.9869 216.06 68.7072 216.298 68.3173C216.536 67.9274 216.61 67.4591 216.503 67.015C216.498 66.993 216.492 66.9713 216.484 66.95C216.363 66.5219 216.08 66.1574 215.695 65.9329C215.311 65.7084 214.854 65.6414 214.421 65.7458L195.381 70.3509C194.937 70.4588 194.553 70.7384 194.315 71.1283C194.077 71.5183 194.003 71.9868 194.111 72.4309Z" fill="white"/>
<path d="M195.752 77.4928L202.484 78.7733L216.744 75.3243C217.188 75.2168 217.572 74.9373 217.81 74.5472C218.048 74.1571 218.122 73.6885 218.014 73.2444C217.906 72.8003 217.627 72.417 217.236 72.179C216.846 71.941 216.377 71.8677 215.932 71.9752L196.892 76.5803C196.494 76.6758 196.144 76.9105 195.904 77.2419C195.846 77.3211 195.795 77.405 195.752 77.4928Z" fill="white"/>
<path d="M209.705 80.1464L212.013 80.5852C212.148 80.6107 212.287 80.6072 212.421 80.5748C212.554 80.5425 212.679 80.4821 212.788 80.3977L214.639 78.9529L209.705 80.1464Z" fill="white"/>
<path d="M197.949 62.7813C198.057 63.2252 198.337 63.6082 198.727 63.8461C199.117 64.0841 199.586 64.1576 200.031 64.0504L207.405 62.2668C207.849 62.1587 208.233 61.879 208.471 61.4891C208.709 61.0993 208.782 60.6309 208.676 60.1869C208.618 59.9482 208.51 59.7248 208.358 59.5319C208.154 59.2712 207.879 59.0746 207.566 58.9657C207.253 58.8567 206.916 58.8401 206.594 58.9177L199.219 60.7013C198.775 60.8089 198.391 61.0884 198.153 61.4785C197.915 61.8685 197.841 62.3371 197.949 62.7813V62.7813Z" fill="white"/>
<path d="M202.482 78.7731L209.706 80.1465L212.013 80.5855C212.148 80.6107 212.287 80.607 212.421 80.5747C212.554 80.5425 212.679 80.4823 212.788 80.3981L214.641 78.953L213.99 79.1103L212.618 80.1801C212.54 80.2401 212.451 80.2831 212.356 80.3062C212.26 80.3293 212.161 80.3319 212.064 80.3139L210.356 79.9893L203.132 78.6159L202.482 78.7731ZM224.06 71.2553L224.13 71.5455L224.45 71.2966L224.06 71.2553ZM202.482 78.7731L209.706 80.1465L212.013 80.5855C212.148 80.6107 212.287 80.607 212.421 80.5747C212.554 80.5425 212.679 80.4823 212.788 80.3981L214.641 78.953L213.99 79.1103L212.618 80.1801C212.54 80.2401 212.451 80.2831 212.356 80.3062C212.26 80.3293 212.161 80.3319 212.064 80.3139L210.356 79.9893L203.132 78.6159L202.482 78.7731ZM202.482 78.7731L209.706 80.1465L212.013 80.5855C212.148 80.6107 212.287 80.607 212.421 80.5747C212.554 80.5425 212.679 80.4823 212.788 80.3981L214.641 78.953L213.99 79.1103L212.618 80.1801C212.54 80.2401 212.451 80.2831 212.356 80.3062C212.26 80.3293 212.161 80.3319 212.064 80.3139L210.356 79.9893L203.132 78.6159L202.482 78.7731ZM178.947 75.4048L187.098 109.047C187.159 109.295 187.316 109.51 187.534 109.643C187.753 109.776 188.015 109.818 188.264 109.758L247.261 95.4884C247.51 95.428 247.725 95.2714 247.858 95.053C247.991 94.8346 248.033 94.5723 247.973 94.3235L239.821 60.6816C239.784 60.5245 239.707 60.3795 239.598 60.26C239.49 60.1405 239.353 60.0504 239.2 59.998C239.087 59.9583 238.967 59.9404 238.848 59.9451C238.709 59.9491 238.572 59.985 238.449 60.05C238.392 60.077 238.338 60.1103 238.289 60.1493L233.447 63.9268L226.415 69.4148L224.059 71.2533L224.06 71.2553L224.058 71.2557L215.419 77.9936L213.99 79.1103L212.618 80.1801C212.54 80.2401 212.451 80.2831 212.356 80.3062C212.26 80.3293 212.161 80.3319 212.064 80.3139L210.356 79.9893L203.132 78.6159L195.902 77.242L180.067 74.2311C179.931 74.2044 179.792 74.2074 179.659 74.2399C179.478 74.2839 179.315 74.3786 179.187 74.5128C179.138 74.5655 179.095 74.6229 179.057 74.6842C178.927 74.9006 178.887 75.1595 178.947 75.4048ZM202.482 78.7731L209.706 80.1465L212.013 80.5855C212.148 80.6107 212.287 80.607 212.421 80.5747C212.554 80.5425 212.679 80.4823 212.788 80.3981L214.641 78.953L213.99 79.1103L212.618 80.1801C212.54 80.2401 212.451 80.2831 212.356 80.3062C212.26 80.3293 212.161 80.3319 212.064 80.3139L210.356 79.9893L203.132 78.6159L202.482 78.7731ZM202.482 78.7731L209.706 80.1465L212.013 80.5855C212.148 80.6107 212.287 80.607 212.421 80.5747C212.554 80.5425 212.679 80.4823 212.788 80.3981L214.641 78.953L213.99 79.1103L212.618 80.1801C212.54 80.2401 212.451 80.2831 212.356 80.3062C212.26 80.3293 212.161 80.3319 212.064 80.3139L210.356 79.9893L203.132 78.6159L202.482 78.7731ZM202.482 78.7731L209.706 80.1465L212.013 80.5855C212.148 80.6107 212.287 80.607 212.421 80.5747C212.554 80.5425 212.679 80.4823 212.788 80.3981L214.641 78.953L213.99 79.1103L212.618 80.1801C212.54 80.2401 212.451 80.2831 212.356 80.3062C212.26 80.3293 212.161 80.3319 212.064 80.3139L210.356 79.9893L203.132 78.6159L202.482 78.7731Z" fill="white"/>
<path d="M202.482 78.7732L209.706 80.1466L212.013 80.5856C212.148 80.6108 212.287 80.6071 212.421 80.5748C212.554 80.5425 212.679 80.4823 212.788 80.3982L214.641 78.9531L213.99 79.1103L212.618 80.1801C212.54 80.2402 212.451 80.2832 212.356 80.3063C212.26 80.3293 212.161 80.332 212.064 80.314L210.356 79.9893L203.132 78.6159L202.482 78.7732ZM224.06 71.2553L224.13 71.5456L224.45 71.2967L224.06 71.2553ZM202.482 78.7732L209.706 80.1466L212.013 80.5856C212.148 80.6108 212.287 80.6071 212.421 80.5748C212.554 80.5425 212.679 80.4823 212.788 80.3982L214.641 78.9531L213.99 79.1103L212.618 80.1801C212.54 80.2402 212.451 80.2832 212.356 80.3063C212.26 80.3293 212.161 80.332 212.064 80.314L210.356 79.9893L203.132 78.6159L202.482 78.7732ZM202.482 78.7732L209.706 80.1466L212.013 80.5856C212.148 80.6108 212.287 80.6071 212.421 80.5748C212.554 80.5425 212.679 80.4823 212.788 80.3982L214.641 78.9531L213.99 79.1103L212.618 80.1801C212.54 80.2402 212.451 80.2832 212.356 80.3063C212.26 80.3293 212.161 80.332 212.064 80.314L210.356 79.9893L203.132 78.6159L202.482 78.7732ZM179.326 74.705L179.361 74.7319C179.367 74.7221 179.378 74.7133 179.386 74.703C179.466 74.62 179.565 74.558 179.675 74.5227C179.784 74.4874 179.901 74.4799 180.015 74.5008L195.751 77.4917L202.482 78.7732L209.706 80.1466L212.013 80.5856C212.148 80.6108 212.287 80.6071 212.421 80.5748C212.554 80.5425 212.679 80.4823 212.788 80.3982L214.641 78.9531L213.99 79.1103L212.618 80.1801C212.54 80.2402 212.451 80.2832 212.356 80.3063C212.26 80.3293 212.161 80.3319 212.064 80.3139L210.356 79.9893L203.132 78.6159L195.902 77.242L180.067 74.2311C179.931 74.2044 179.792 74.2074 179.659 74.2399L179.326 74.705ZM178.947 75.4048L187.098 109.047C187.159 109.295 187.316 109.51 187.534 109.643C187.753 109.776 188.015 109.818 188.264 109.758L247.261 95.4885C247.51 95.4281 247.725 95.2715 247.858 95.0531C247.991 94.8347 248.033 94.5723 247.973 94.3236L239.821 60.6816C239.784 60.5246 239.707 60.3796 239.598 60.2601C239.49 60.1406 239.353 60.0504 239.2 59.998C239.087 59.9584 238.967 59.9404 238.848 59.9451C238.709 59.9492 238.572 59.9851 238.449 60.0501C238.392 60.0771 238.338 60.1104 238.289 60.1494L233.447 63.9268L226.415 69.4149L224.059 71.2533L224.06 71.2553L224.058 71.2558L215.419 77.9937L213.99 79.1103L212.618 80.1801C212.54 80.2402 212.451 80.2832 212.356 80.3063C212.26 80.3293 212.161 80.332 212.064 80.314L210.356 79.9893L203.132 78.6159L195.902 77.242L180.067 74.2311C179.931 74.2044 179.792 74.2074 179.659 74.2399C179.478 74.2839 179.315 74.3786 179.187 74.5128C179.138 74.5655 179.095 74.623 179.057 74.6843C178.927 74.9007 178.887 75.1595 178.947 75.4048ZM179.216 75.3398C179.192 75.2407 179.19 75.1374 179.211 75.0375C179.232 74.9377 179.276 74.8438 179.338 74.7628C179.343 74.7509 179.351 74.7403 179.361 74.7319C179.367 74.7221 179.378 74.7133 179.386 74.703C179.466 74.62 179.565 74.558 179.675 74.5227C179.784 74.4874 179.901 74.4799 180.015 74.5008L195.751 77.4917L202.482 78.7732L209.706 80.1466L212.013 80.5856C212.148 80.6108 212.287 80.6071 212.421 80.5748C212.554 80.5425 212.679 80.4823 212.788 80.3982L214.641 78.9531L215.812 78.0385L224.13 71.5456L224.45 71.2967L226.414 69.7642L233.405 64.3088L238.46 60.365C238.537 60.3051 238.626 60.2623 238.72 60.2393C238.747 60.2328 238.774 60.2284 238.801 60.2261C238.825 60.2218 238.848 60.2195 238.872 60.2193C238.953 60.2185 239.034 60.2316 239.11 60.258C239.219 60.2959 239.317 60.3604 239.394 60.4457C239.472 60.5309 239.527 60.6342 239.554 60.7462L247.706 94.3881C247.727 94.4763 247.731 94.5678 247.717 94.6575C247.703 94.7471 247.672 94.8331 247.624 94.9105C247.577 94.988 247.515 95.0554 247.441 95.1088C247.368 95.1622 247.285 95.2007 247.197 95.2219L188.2 109.491C188.022 109.534 187.834 109.504 187.678 109.409C187.522 109.313 187.41 109.16 187.367 108.982L179.216 75.3398ZM202.482 78.7732L209.706 80.1466L212.013 80.5856C212.148 80.6108 212.287 80.6071 212.421 80.5748C212.554 80.5425 212.679 80.4823 212.788 80.3982L214.641 78.9531L213.99 79.1104L212.618 80.1801C212.54 80.2402 212.451 80.2832 212.356 80.3063C212.26 80.3293 212.161 80.332 212.064 80.314L210.356 79.9893L203.132 78.6159L202.482 78.7732ZM202.482 78.7732L209.706 80.1466L212.013 80.5856C212.148 80.6108 212.287 80.6071 212.421 80.5748C212.554 80.5425 212.679 80.4823 212.788 80.3982L214.641 78.9531L213.99 79.1104L212.618 80.1801C212.54 80.2402 212.451 80.2832 212.356 80.3063C212.26 80.3293 212.161 80.332 212.064 80.314L210.356 79.9893L203.132 78.6159L202.482 78.7732ZM202.482 78.7732L209.706 80.1466L212.013 80.5856C212.148 80.6108 212.287 80.6071 212.421 80.5748C212.554 80.5425 212.679 80.4823 212.788 80.3982L214.641 78.9531L213.99 79.1104L212.618 80.1801C212.54 80.2402 212.451 80.2832 212.356 80.3063C212.26 80.3293 212.161 80.332 212.064 80.314L210.356 79.9893L203.132 78.6159L202.482 78.7732Z" fill="#3F3D56"/>
<path d="M231.886 88.8789C231.753 88.3277 231.844 87.7463 232.14 87.2622C232.435 86.7782 232.911 86.4311 233.463 86.2971L240.909 84.4961C241.46 84.3649 242.04 84.4572 242.523 84.7528C243.006 85.0485 243.353 85.5233 243.486 86.0733C243.619 86.6234 243.529 87.2038 243.234 87.6874C242.94 88.171 242.466 88.5184 241.916 88.6535L234.47 90.4544C233.918 90.5872 233.336 90.4959 232.852 90.2006C232.367 89.9052 232.02 89.4299 231.886 88.8789Z" fill="#54B2D3"/>
<path d="M149.596 82.6312C150.615 82.6312 151.441 81.8056 151.441 80.7872C151.441 79.7688 150.615 78.9432 149.596 78.9432C148.576 78.9432 147.75 79.7688 147.75 80.7872C147.75 81.8056 148.576 82.6312 149.596 82.6312Z" fill="white"/>
</svg>
