<svg width="344" height="192" viewBox="0 0 344 192" fill="none" xmlns="http://www.w3.org/2000/svg">
<rect width="344" height="192" fill="#FBFBFD"/>
<path opacity="0.5" d="M241.242 42.0159H78.2969V135.184H241.242V42.0159Z" fill="#E2E6F1"/>
<path d="M245.8 37.8531H82.8555V131.021H245.8V37.8531Z" stroke="#3F3D56" stroke-width="2" stroke-miterlimit="10"/>
<path d="M82.8555 42.826H245.8" stroke="#3F3D56" stroke-width="2" stroke-miterlimit="10"/>
<path d="M86.622 41.8177C87.3883 41.8177 88.0096 41.1964 88.0096 40.4301C88.0096 39.6637 87.3883 39.0425 86.622 39.0425C85.8556 39.0425 85.2344 39.6637 85.2344 40.4301C85.2344 41.1964 85.8556 41.8177 86.622 41.8177Z" fill="#54B2D3"/>
<path d="M90.786 41.8177C91.5524 41.8177 92.1737 41.1964 92.1737 40.4301C92.1737 39.6637 91.5524 39.0425 90.786 39.0425C90.0197 39.0425 89.3984 39.6637 89.3984 40.4301C89.3984 41.1964 90.0197 41.8177 90.786 41.8177Z" fill="#54B2D3"/>
<path d="M94.9482 41.8177C95.7145 41.8177 96.3358 41.1964 96.3358 40.4301C96.3358 39.6637 95.7145 39.0425 94.9482 39.0425C94.1818 39.0425 93.5605 39.6637 93.5605 40.4301C93.5605 41.1964 94.1818 41.8177 94.9482 41.8177Z" fill="#54B2D3"/>
<path d="M182.579 102.342C186.2 98.7203 188.666 94.1065 189.665 89.0837C190.665 84.0609 190.152 78.8545 188.192 74.1231C186.232 69.3917 182.913 65.3477 178.655 62.5025C174.397 59.6573 169.391 58.1387 164.27 58.1387V84.0321L182.579 102.342Z" fill="#3F3D56"/>
<path d="M164.268 58.1386C158.513 58.1393 152.922 60.0571 148.378 63.5893C143.834 67.1214 140.597 72.0665 139.176 77.6438C137.756 83.221 138.234 89.1125 140.534 94.3878C142.835 99.6632 146.828 104.022 151.881 106.775L164.268 84.0321V58.1386Z" fill="#54B2D3"/>
<path d="M113.583 106.069H108.625V111.027H113.583V106.069Z" fill="#54B2D3"/>
<path d="M120.747 106.069H115.789V111.027H120.747V106.069Z" fill="#3F3D56"/>
<path d="M127.908 106.069H122.949V111.027H127.908V106.069Z" fill="#575A89"/>
<path d="M214.679 107.171H194.295V107.997H214.679V107.171Z" fill="#3F3D56"/>
<path d="M214.679 109.65H194.295V110.476H214.679V109.65Z" fill="#3F3D56"/>
<path d="M214.679 112.129H194.295V112.956H214.679V112.129Z" fill="#3F3D56"/>
<path d="M203.25 148.906L203.578 151.636L205.434 152.509L207.509 151.854L208.928 152.509L209.365 149.998L206.854 147.159L203.25 148.906Z" fill="#FFB9B9"/>
<path d="M204.561 150.981C204.561 150.981 202.868 149.007 202.841 149.994C202.814 150.981 199.101 154.366 199.101 154.366C199.101 154.366 193.314 156.113 197.791 157.205C202.268 158.297 212.096 155.13 212.423 154.475C212.751 153.82 209.693 148.797 209.366 149.233C209.038 149.67 207.4 151.199 204.561 150.981Z" fill="#2F2E41"/>
<path d="M200.411 118.549C200.411 118.549 199.756 123.681 200.411 124.445C201.067 125.21 200.739 126.739 200.411 126.957C200.084 127.175 200.848 128.049 201.394 128.486C201.94 128.923 202.705 130.888 202.705 130.888C202.705 130.888 205.653 138.641 205.653 139.406C205.653 140.17 206.963 141.808 206.854 142.354C206.745 142.9 207.619 144.647 207.509 144.975C207.4 145.302 208.929 148.251 208.492 148.688C208.055 149.124 202.049 150.653 202.377 149.67C202.705 148.688 202.923 147.486 202.705 147.486C202.486 147.486 201.503 146.285 201.722 145.848C201.94 145.412 195.17 133.946 195.17 133.946L200.411 118.549Z" fill="#2F2E41"/>
<path opacity="0.1" d="M204.561 150.981C204.561 150.981 202.868 149.007 202.841 149.994C202.814 150.981 199.101 154.366 199.101 154.366C199.101 154.366 193.314 156.113 197.791 157.205C202.268 158.297 212.096 155.13 212.423 154.475C212.751 153.82 209.693 148.797 209.366 149.233C209.038 149.67 207.4 151.199 204.561 150.981Z" fill="black"/>
<path opacity="0.1" d="M200.411 118.549C200.411 118.549 199.756 123.681 200.411 124.445C201.067 125.21 200.739 126.739 200.411 126.957C200.084 127.175 200.848 128.049 201.394 128.486C201.94 128.923 202.705 130.888 202.705 130.888C202.705 130.888 205.653 138.641 205.653 139.406C205.653 140.17 206.963 141.808 206.854 142.354C206.745 142.9 207.619 144.647 207.509 144.975C207.4 145.302 208.929 148.251 208.492 148.688C208.055 149.124 202.049 150.653 202.377 149.67C202.705 148.688 202.923 147.486 202.705 147.486C202.486 147.486 201.503 146.285 201.722 145.848C201.94 145.412 195.17 133.946 195.17 133.946L200.411 118.549Z" fill="black"/>
<path d="M189.274 147.55L188.072 150.608L188.618 154.867L192.113 154.648L194.078 152.901V149.188L189.274 147.55Z" fill="#FFB9B9"/>
<path d="M189.929 151.263C189.929 151.263 188.728 147.332 188.072 148.424C187.657 149.125 187.292 149.855 186.98 150.608C186.98 150.608 181.63 154.102 180.21 154.102C178.791 154.102 177.48 155.849 179.336 156.505C181.193 157.16 195.389 158.033 195.607 156.505C195.825 154.976 195.389 150.062 194.734 150.608C194.078 151.154 190.693 152.355 189.929 151.263Z" fill="#2F2E41"/>
<path d="M187.198 102.888C187.198 102.888 184.905 106.819 184.687 107.256C184.468 107.693 183.267 110.532 185.56 111.624C187.853 112.716 189.819 103.652 189.819 103.652L187.198 102.888Z" fill="#FFB9B9"/>
<path d="M189.601 96.5545C189.601 96.5545 186.106 103.325 186.762 103.543C187.417 103.762 190.037 105.072 190.037 105.072L191.239 98.1925L189.601 96.5545Z" fill="#575A88"/>
<path opacity="0.1" d="M189.601 96.5545C189.601 96.5545 186.106 103.325 186.762 103.543C187.417 103.762 190.037 105.072 190.037 105.072L191.239 98.1925L189.601 96.5545Z" fill="black"/>
<path d="M189.819 102.233C189.819 102.233 189.054 107.911 189.382 109.112C189.71 110.314 189.164 128.331 189.6 129.314C190.037 130.297 190.365 136.63 190.365 137.395C190.365 138.159 189.491 144.383 189.273 144.929C189.054 145.475 188.399 147.332 188.727 148.205C189.054 149.079 193.532 151.263 194.187 150.499C194.842 149.734 194.296 147.332 194.842 147.223C195.388 147.113 196.043 141.981 196.043 141.981L199.647 121.889C199.647 121.889 206.417 105.072 204.888 103.434C203.359 101.796 189.819 102.233 189.819 102.233Z" fill="#2F2E41"/>
<path d="M193.86 63.4673C196.816 63.4673 199.211 61.0717 199.211 58.1165C199.211 55.1614 196.816 52.7658 193.86 52.7658C190.905 52.7658 188.51 55.1614 188.51 58.1165C188.51 61.0717 190.905 63.4673 193.86 63.4673Z" fill="#FFB9B9"/>
<path d="M191.895 62.4845C191.895 62.4845 193.642 67.0709 193.423 68.0537C193.205 69.0365 198.556 66.3065 198.556 66.3065C198.556 66.3065 198.228 60.9557 198.556 59.5362C198.883 58.1166 191.895 62.4845 191.895 62.4845Z" fill="#FFB9B9"/>
<path d="M206.567 92.3624C206.543 93.2785 206.528 93.8245 206.528 93.8245C206.528 93.8245 206.855 98.8477 206.309 100.486C205.763 102.124 205.763 103.325 205.436 104.417C205.34 104.735 204.032 104.905 202.197 104.98C200.513 105.049 198.385 105.039 196.342 104.992C192.959 104.914 189.805 104.732 189.274 104.635C188.073 104.417 189.493 102.56 189.056 101.578C188.619 100.595 189.82 88.037 189.82 88.037C189.82 88.037 189.711 80.9391 190.257 78.2091C190.803 75.4792 192.878 71.1112 193.315 70.5652C193.751 70.0192 193.424 69.6916 192.441 69.0364C191.458 68.3812 192.441 65.8697 192.441 65.8697C194.297 64.3409 198.993 64.1225 198.993 64.1225C198.993 64.1225 206.2 71.548 206.637 73.0768C206.901 74.0006 206.806 81.3802 206.69 87.0782C206.646 89.2218 206.599 91.1284 206.567 92.3624Z" fill="#54B2D3"/>
<path d="M197.354 105.946C197.354 105.946 193.204 114.463 196.48 115.009C199.756 115.555 201.394 107.256 201.394 107.256L197.354 105.946Z" fill="#FFB9B9"/>
<path d="M188.857 55.4044C188.668 54.4867 189.37 53.6288 190.108 53.0523C191.717 51.8047 193.696 51.1298 195.732 51.1346C197.164 51.1424 198.642 51.5212 199.724 52.4589C200.987 53.5526 201.563 55.3065 201.457 56.9735C201.351 58.6405 200.626 60.2215 199.648 61.5757C199.178 62.2256 198.425 62.8984 197.675 62.6152C197.381 62.4778 197.129 62.2651 196.945 61.9987C196.464 61.4019 196.045 60.7577 195.694 60.076C195.425 59.5545 195.193 59.0047 194.812 58.5582C194.432 58.1117 193.86 57.7759 193.279 57.856C192.799 57.9223 192.328 58.2602 191.871 58.1014C191.361 57.9248 191.238 57.2735 191.198 56.736C191.153 56.1468 191.185 55.4642 191.021 54.9072C190.842 55.0027 188.945 55.8441 188.857 55.4044Z" fill="#2F2E41"/>
<path opacity="0.1" d="M206.566 92.3623C205.343 96.7729 202.537 104.206 202.377 104.526C202.337 104.608 202.273 104.768 202.196 104.98C200.512 105.049 198.384 105.039 196.34 104.992C196.657 104.165 197.026 103.365 197.026 103.106C197.026 102.56 199.647 88.4738 199.647 88.4738C199.647 88.4738 197.572 82.2494 195.716 77.0079C193.859 71.7664 201.23 72.8038 201.23 72.8038C205.162 71.821 205.871 73.5136 205.871 73.5136C205.871 73.5136 206.217 82.719 206.689 87.0782C206.81 88.1953 206.939 88.9936 207.073 89.2382C207.247 89.5581 207.011 90.7615 206.566 92.3623Z" fill="black"/>
<path d="M199.647 69.2549C199.647 69.2549 194.624 71.3296 196.48 76.5712C198.336 81.8127 200.411 88.037 200.411 88.037C200.411 88.037 197.79 102.124 197.79 102.67C197.79 103.216 196.152 106.164 196.808 106.71C197.463 107.256 201.831 108.348 201.94 107.802C202.275 106.544 202.676 105.305 203.141 104.089C203.36 103.652 208.492 90.0026 207.837 88.8014C207.182 87.6002 206.636 73.0768 206.636 73.0768C206.636 73.0768 203.578 68.2721 199.647 69.2549Z" fill="#54B2D3"/>
<path d="M188.526 110.469L169.226 92.3577L157.83 115.894C161.629 117.967 165.889 119.051 170.217 119.044C177.367 119.044 183.841 115.155 188.526 110.469Z" fill="#575A89"/>
<path opacity="0.1" d="M188.526 110.469L169.226 92.3577L157.83 115.894C161.629 117.967 165.889 119.051 170.217 119.044C177.367 119.044 183.841 115.155 188.526 110.469Z" fill="black"/>
<path d="M186.941 111.857L168.631 93.5471L156.244 116.29C161.154 118.962 166.797 119.974 172.329 119.174C177.862 118.375 182.987 115.808 186.941 111.857Z" fill="#575A89"/>
<path d="M156.994 157.386H235.493" stroke="#3F3D56" stroke-width="2" stroke-miterlimit="10"/>
<path d="M224.607 157.576V134.563" stroke="#3F3D56" stroke-width="2" stroke-miterlimit="10"/>
<path d="M224.608 137.817C226.405 137.817 227.862 136.36 227.862 134.563C227.862 132.766 226.405 131.308 224.608 131.308C222.811 131.308 221.354 132.766 221.354 134.563C221.354 136.36 222.811 137.817 224.608 137.817Z" fill="#3F3D56"/>
<path d="M224.607 148.746C224.607 148.746 224.142 138.747 214.611 139.909L224.607 148.746Z" fill="#3F3D56"/>
</svg>
