<svg width="14" height="14" viewBox="0 0 14 14" fill="none" xmlns="http://www.w3.org/2000/svg">
<path d="M12.8335 4.07528H10.1968C10.386 3.94611 10.5485 3.81778 10.6618 3.70278C11.3335 3.02695 11.3335 1.92695 10.6618 1.25111C10.0093 0.594447 8.871 0.593613 8.21766 1.25111C7.85683 1.61361 6.89766 3.08945 7.03016 4.07528H6.97016C7.10183 3.08945 6.1435 1.61361 5.78266 1.25111C5.12933 0.593613 3.991 0.594447 3.3385 1.25111C2.66683 1.92695 2.66683 3.02695 3.33766 3.70278C3.45183 3.81778 3.61433 3.94611 3.8035 4.07528H1.16683C0.707663 4.07528 0.333496 4.44945 0.333496 4.90861V6.99195C0.333496 7.22195 0.520163 7.40861 0.750163 7.40861H1.16683V12.4086C1.16683 12.8678 1.541 13.2419 2.00016 13.2419H12.0002C12.4593 13.2419 12.8335 12.8678 12.8335 12.4086V7.40861H13.2502C13.4802 7.40861 13.6668 7.22195 13.6668 6.99195V4.90861C13.6668 4.44945 13.2927 4.07528 12.8335 4.07528ZM3.92933 1.83861C4.0985 1.66861 4.32266 1.57528 4.561 1.57528C4.7985 1.57528 5.02266 1.66861 5.19183 1.83861C5.7535 2.40361 6.31183 3.84695 6.11766 4.04778C6.11766 4.04778 6.08266 4.07528 5.9635 4.07528C5.38766 4.07528 4.2885 3.47695 3.92933 3.11528C3.58016 2.76361 3.58016 2.19028 3.92933 1.83861ZM6.5835 12.4086H2.00016V7.40861H6.5835V12.4086ZM6.5835 6.57528H1.16683V4.90861H5.9635H6.5835V6.57528ZM8.8085 1.83861C9.14683 1.49945 9.7335 1.50028 10.071 1.83861C10.4202 2.19028 10.4202 2.76361 10.071 3.11528C9.71183 3.47695 8.61266 4.07528 8.03683 4.07528C7.91766 4.07528 7.88266 4.04861 7.88183 4.04778C7.6885 3.84695 8.24683 2.40361 8.8085 1.83861ZM12.0002 12.4086H7.41683V7.40861H12.0002V12.4086ZM12.8335 6.57528H7.41683V4.90861H8.03683H12.8335V6.57528Z" fill="white" stroke="white" stroke-width="0.25"/>
</svg>
