<svg width="11" height="14" viewBox="0 0 11 14" fill="none" xmlns="http://www.w3.org/2000/svg">
<path fill-rule="evenodd" clip-rule="evenodd" d="M1.44464 3.66685C1.44463 3.2066 1.81773 2.8335 2.27798 2.8335H5.05574C5.51597 2.8335 5.88908 3.20659 5.88908 3.66683V11.1668C5.88908 12.3941 4.89419 13.3891 3.66687 13.3891C2.43956 13.3891 1.44464 12.3941 1.44465 11.1668L1.44464 3.66685ZM2.00024 6.67855L2.0002 11.1668C2.0002 12.0873 2.74639 12.8335 3.66687 12.8335C4.58735 12.8335 5.33352 12.0873 5.33352 11.1668V7.03572L4.67696 6.71916C4.4483 6.60889 4.18182 6.60889 3.95314 6.71916L3.62196 6.87883C3.24083 7.06261 2.79671 7.06261 2.41557 6.87883L2.00024 6.67855ZM5.33352 6.41894V3.66683C5.33352 3.51342 5.20919 3.38905 5.05574 3.38905H2.27798C2.12456 3.38905 2.0002 3.51342 2.0002 3.66684L2.00024 6.06183L2.65685 6.37839C2.88553 6.48866 3.152 6.48866 3.38068 6.37839L3.71186 6.21872C4.093 6.03494 4.53713 6.03494 4.9183 6.21872L5.33352 6.41894Z" fill="white" stroke="white" stroke-width="0.25"/>
<path fill-rule="evenodd" clip-rule="evenodd" d="M0.889038 1.44442C0.889038 0.984179 1.26213 0.611084 1.72237 0.611084H5.61126C6.07148 0.611084 6.44459 0.984179 6.44459 1.44442V2.55553C6.44459 3.01577 6.07148 3.38886 5.61126 3.38886H1.72237C1.26213 3.38886 0.889038 3.01577 0.889038 2.55553V1.44442ZM1.72237 1.16664C1.56896 1.16664 1.44459 1.29101 1.44459 1.44442V2.55553C1.44459 2.70894 1.56896 2.83331 1.72237 2.83331H5.61126C5.76465 2.83331 5.88904 2.70894 5.88904 2.55553V1.44442C5.88904 1.29101 5.76465 1.16664 5.61126 1.16664H1.72237Z" fill="white" stroke="white" stroke-width="0.25"/>
<path fill-rule="evenodd" clip-rule="evenodd" d="M8.59125 4.5873L8.38908 4.77778L8.18691 4.5873C8.23936 4.53158 8.31252 4.5 8.38908 4.5C8.46563 4.5 8.5388 4.53158 8.59125 4.5873ZM8.38908 5.19522C8.38702 5.19763 8.38491 5.20007 8.3828 5.20252C8.2558 5.35039 8.08713 5.55561 7.91902 5.78599C7.75025 6.01733 7.58619 6.26855 7.46541 6.50883C7.34141 6.75544 7.27797 6.96172 7.27797 7.11111C7.27797 7.84722 7.80419 8.38888 8.38908 8.38888C8.97397 8.38888 9.50019 7.84722 9.50019 7.11111C9.50019 6.96172 9.43675 6.75544 9.31275 6.50883C9.19197 6.26855 9.02786 6.01733 8.85913 5.78599C8.69102 5.55561 8.52236 5.35039 8.39536 5.20252C8.39325 5.20007 8.39113 5.19763 8.38908 5.19522ZM8.38908 4.77778C8.18691 4.5873 8.18691 4.58726 8.18691 4.5873L8.18547 4.58883L8.18202 4.5925L8.16947 4.60601C8.15869 4.61771 8.14308 4.6347 8.12341 4.65647C8.08402 4.7 8.02819 4.76274 7.9613 4.84058C7.82791 4.99597 7.64936 5.213 7.47025 5.45856C7.2918 5.70318 7.10863 5.98161 6.96902 6.25933C6.83258 6.53077 6.72241 6.83094 6.72241 7.11111C6.72241 8.09321 7.43986 8.94444 8.38908 8.94444C9.3383 8.94444 10.0557 8.09321 10.0557 7.11111C10.0557 6.83094 9.94558 6.53077 9.80914 6.25933C9.66952 5.98161 9.48636 5.70318 9.30791 5.45856C9.1288 5.213 8.95025 4.99597 8.81686 4.84058C8.74997 4.76274 8.69414 4.7 8.65475 4.65647C8.63508 4.6347 8.61947 4.61771 8.60869 4.60601L8.59613 4.5925L8.59269 4.58883L8.59175 4.5878L8.59125 4.5873C8.59125 4.58726 8.59125 4.5873 8.38908 4.77778Z" fill="white" stroke="white" stroke-width="0.25"/>
</svg>
