<svg width="16" height="16" viewBox="0 0 16 16" fill="none" xmlns="http://www.w3.org/2000/svg">
<path d="M4.125 3.59375H11.875C11.9438 3.59375 12 3.5375 12 3.46875V2.59375C12 2.525 11.9438 2.46875 11.875 2.46875H4.125C4.05625 2.46875 4 2.525 4 2.59375V3.46875C4 3.5375 4.05625 3.59375 4.125 3.59375ZM11.875 10.2188C11.9438 10.2188 12 10.1625 12 10.0938V9.21875C12 9.15 11.9438 9.09375 11.875 9.09375H4.125C4.05625 9.09375 4 9.15 4 9.21875V10.0938C4 10.1625 4.05625 10.2188 4.125 10.2188H11.875ZM14.125 12.4062H1.875C1.80625 12.4062 1.75 12.4625 1.75 12.5312V13.4062C1.75 13.475 1.80625 13.5312 1.875 13.5312H14.125C14.1938 13.5312 14.25 13.475 14.25 13.4062V12.5312C14.25 12.4625 14.1938 12.4062 14.125 12.4062ZM14.125 5.78125H1.875C1.80625 5.78125 1.75 5.8375 1.75 5.90625V6.78125C1.75 6.85 1.80625 6.90625 1.875 6.90625H14.125C14.1938 6.90625 14.25 6.85 14.25 6.78125V5.90625C14.25 5.8375 14.1938 5.78125 14.125 5.78125Z" fill="white"/>
</svg>
