<svg width="14" height="13" viewBox="0 0 14 13" fill="none" xmlns="http://www.w3.org/2000/svg">
<path d="M6.70318 11.9866C6.78152 12.0666 6.88818 12.111 6.99985 12.111C7.11152 12.111 7.21818 12.0666 7.29652 11.9866L12.6265 6.586C14.0104 5.18434 14.0104 2.90267 12.6265 1.50045C11.9543 0.819336 11.0604 0.444336 10.1087 0.444336C9.15707 0.444336 8.26374 0.819336 7.59152 1.49989L6.99985 2.09989L6.40818 1.50045C5.73596 0.819336 4.84207 0.444336 3.89096 0.444336C2.93929 0.444336 2.04541 0.819336 1.37318 1.50045C-0.0107062 2.90267 -0.0107062 5.18434 1.37318 6.58545L6.70318 11.9866ZM1.96596 2.08545C2.48041 1.56489 3.16429 1.27767 3.89041 1.27767C4.61707 1.27767 5.30041 1.56489 5.81429 2.086L6.70263 2.986C6.85874 3.14434 7.13929 3.14434 7.29541 2.986L8.18374 2.08545C8.6993 1.56489 9.38263 1.27767 10.1087 1.27767C10.8354 1.27767 11.5187 1.56489 12.0332 2.08545C13.0982 3.16489 13.0982 4.921 12.0332 6.001L6.99985 11.1016L1.96596 6.00045C0.900961 4.92156 0.900961 3.16489 1.96596 2.08545Z" fill="white"/>
</svg>
