<svg width="14" height="14" viewBox="0 0 14 14" fill="none" xmlns="http://www.w3.org/2000/svg">
<path d="M3.94445 13.6666C1.95334 13.6666 0.333344 12.0466 0.333344 10.0555C0.333344 9.09103 0.708899 8.18381 1.39112 7.50214L7.50223 1.39103C8.1839 0.708808 9.09112 0.333252 10.0556 0.333252C12.0467 0.333252 13.6667 1.95325 13.6667 3.94436C13.6667 4.90881 13.2911 5.81603 12.6089 6.4977L6.49779 12.6088C5.81612 13.291 4.9089 13.6666 3.94445 13.6666ZM10.0556 0.888808C9.23946 0.888808 8.47223 1.20659 7.89501 1.78381L1.7839 7.89492C1.20668 8.47214 0.888899 9.23936 0.888899 10.0555C0.888899 11.7405 2.25945 13.111 3.94445 13.111C4.76057 13.111 5.52779 12.7933 6.10501 12.216L12.2161 6.10492C12.7933 5.5277 13.1111 4.76047 13.1111 3.94436C13.1111 2.25936 11.7406 0.888808 10.0556 0.888808Z" fill="white" stroke="white" stroke-width="0.25"/>
</svg>
