<svg width="14" height="14" viewBox="0 0 14 14" fill="none" xmlns="http://www.w3.org/2000/svg">
<path d="M12.6562 0.875H8.71875C8.66719 0.875 8.625 0.917188 8.625 0.96875V1.84375C8.625 1.89531 8.66719 1.9375 8.71875 1.9375H11.225L8.11094 5.05156C7.32969 4.45 6.37656 4.125 5.375 4.125C4.17344 4.125 3.04219 4.59375 2.19375 5.44375C1.34531 6.29375 0.875 7.42344 0.875 8.625C0.875 9.82656 1.34375 10.9578 2.19375 11.8062C3.04219 12.6562 4.17344 13.125 5.375 13.125C6.57656 13.125 7.70781 12.6562 8.55625 11.8062C9.40625 10.9578 9.875 9.82656 9.875 8.625C9.875 7.62344 9.55 6.67344 8.95 5.89219L12.0625 2.77969V5.28125C12.0625 5.33281 12.1047 5.375 12.1562 5.375H13.0312C13.0828 5.375 13.125 5.33281 13.125 5.28125V1.34375C13.125 1.08594 12.9141 0.875 12.6562 0.875ZM5.375 11.9375C3.54844 11.9375 2.0625 10.4516 2.0625 8.625C2.0625 6.79844 3.54844 5.3125 5.375 5.3125C7.20156 5.3125 8.6875 6.79844 8.6875 8.625C8.6875 10.4516 7.20156 11.9375 5.375 11.9375Z" fill="white"/>
</svg>
