<svg width="328" height="328" viewBox="0 0 328 328" fill="none" xmlns="http://www.w3.org/2000/svg">
<path d="M291.92 136.887C286.672 116.781 277.941 98.026 268.809 85.1619C246.833 54.2511 195.79 40.6719 160.537 53.6017C130.492 64.6356 119.969 97.9932 93.7229 113.954C69.5756 128.655 47.6652 140.633 39.2225 168.651C21.3793 227.842 91.9255 275.028 144.642 260.019C161.278 255.276 175.342 245.311 193.087 245.246C229.089 245.121 241.776 250.061 270.895 230.61C299.595 211.468 301.104 172.102 291.92 136.887Z" fill="#24BEE1"/>
<path opacity="0.8" d="M291.92 136.887C286.672 116.781 277.941 98.026 268.809 85.1619C246.833 54.2511 195.79 40.6719 160.537 53.6017C130.492 64.6356 119.969 97.9932 93.7229 113.954C69.5756 128.655 47.6652 140.633 39.2225 168.651C21.3793 227.842 91.9255 275.028 144.642 260.019C161.278 255.276 175.342 245.311 193.087 245.246C229.089 245.121 241.776 250.061 270.895 230.61C299.595 211.468 301.104 172.102 291.92 136.887Z" fill="white"/>
<path d="M266.874 91.8855C264.132 90.3898 262.892 91.6362 261.895 90.3898C260.898 89.1434 264.63 85.9356 257.152 82.6556C257.152 82.6556 256.66 75.6823 246.446 75.4396C236.232 75.1969 238.974 82.4129 236.232 84.1578C233.49 85.9028 232.749 83.1607 230.007 84.9057C227.265 86.6506 228.511 90.1537 226.274 90.6325C224.037 91.1114 221.026 88.389 218.304 90.134C215.581 91.8789 215.562 93.3746 214.315 93.3746C213.069 93.3746 210.582 92.3775 209.067 93.3746C207.552 94.3717 205.833 95.6116 205.833 95.6116H268.842C268.842 95.6116 269.616 93.3812 266.874 91.8855Z" fill="#24BEE1"/>
<path opacity="0.5" d="M266.874 91.8855C264.132 90.3898 262.892 91.6362 261.895 90.3898C260.898 89.1434 264.63 85.9356 257.152 82.6556C257.152 82.6556 256.66 75.6823 246.446 75.4396C236.232 75.1969 238.974 82.4129 236.232 84.1578C233.49 85.9028 232.749 83.1607 230.007 84.9057C227.265 86.6506 228.511 90.1537 226.274 90.6325C224.037 91.1114 221.026 88.389 218.304 90.134C215.581 91.8789 215.562 93.3746 214.315 93.3746C213.069 93.3746 210.582 92.3775 209.067 93.3746C207.552 94.3717 205.833 95.6116 205.833 95.6116H268.842C268.842 95.6116 269.616 93.3812 266.874 91.8855Z" fill="white"/>
<path d="M221.925 90.3508C218.061 88.2385 216.303 89.9966 214.899 88.2385C213.495 86.4804 218.763 81.9147 208.221 77.3424C208.221 77.3424 207.519 67.5024 193.133 67.1547C178.747 66.807 182.591 76.9947 178.701 79.4547C174.811 81.9147 173.781 78.0508 169.917 80.5108C166.053 82.9708 167.805 87.8908 164.669 88.5928C161.533 89.2947 157.289 85.4308 153.425 87.8908C149.561 90.3508 149.555 92.4828 147.797 92.4828C146.039 92.4828 142.549 91.079 140.417 92.4828C138.285 93.8867 135.825 95.6448 135.825 95.6448H224.739C224.739 95.6448 225.795 92.4566 221.925 90.3508Z" fill="#24BEE1"/>
<path opacity="0.5" d="M221.925 90.3508C218.061 88.2385 216.303 89.9966 214.899 88.2385C213.495 86.4804 218.763 81.9147 208.221 77.3424C208.221 77.3424 207.519 67.5024 193.133 67.1547C178.747 66.807 182.591 76.9947 178.701 79.4547C174.811 81.9147 173.781 78.0508 169.917 80.5108C166.053 82.9708 167.805 87.8908 164.669 88.5928C161.533 89.2947 157.289 85.4308 153.425 87.8908C149.561 90.3508 149.555 92.4828 147.797 92.4828C146.039 92.4828 142.549 91.079 140.417 92.4828C138.285 93.8867 135.825 95.6448 135.825 95.6448H224.739C224.739 95.6448 225.795 92.4566 221.925 90.3508Z" fill="white"/>
<path d="M65.2924 149.653C66.3813 150.126 69.0381 150.067 69.0381 150.067C69.0381 150.067 68.4674 148.328 68.4149 148.223C67.8376 147.003 65.9877 144.989 64.4789 145.193C64.2305 145.232 63.9933 145.324 63.7828 145.462C63.5724 145.6 63.3934 145.78 63.2578 145.992C63.1221 146.204 63.0328 146.442 62.9956 146.691C62.9585 146.94 62.9744 147.194 63.0423 147.436C63.2916 148.473 64.3674 149.247 65.2924 149.653Z" fill="#263238"/>
<path d="M100.106 140.607C98.5976 140.443 96.8264 142.51 96.2622 143.743C96.2098 143.848 95.6587 145.606 95.6915 145.606C95.4094 145.934 95.1077 146.262 94.7862 146.669C94.1958 147.397 93.5398 148.217 92.8838 149.162C92.1656 150.169 91.5084 151.218 90.9158 152.304C90.242 153.517 89.6778 154.788 89.2299 156.102C89.2278 156.117 89.2278 156.133 89.2299 156.148C89.2299 155.709 89.2299 154.469 89.2299 154.37C89.0528 153.058 87.9179 150.546 86.4419 150.27C86.1937 150.23 85.9399 150.243 85.697 150.308C85.4541 150.373 85.2277 150.489 85.0326 150.647C84.8375 150.806 84.6781 151.004 84.5649 151.228C84.4516 151.453 84.3871 151.698 84.3755 151.95C84.2902 153.019 85.0315 154.082 85.8122 154.757C86.665 155.512 89.02 156.253 89.2102 156.305C88.7889 157.651 88.458 159.023 88.2197 160.412C88.0754 161.225 87.9573 162.045 87.8458 162.865C87.8458 162.485 87.8458 162.144 87.8458 162.091C87.6686 160.779 86.5338 158.267 85.0578 157.991C84.8077 157.949 84.5516 157.961 84.3063 158.025C84.0611 158.09 83.8323 158.205 83.6351 158.365C83.4379 158.524 83.2768 158.723 83.1624 158.95C83.048 159.176 82.983 159.424 82.9717 159.677C82.8864 160.74 83.6605 161.803 84.4083 162.478C85.1562 163.154 87.1701 163.83 87.6883 163.994L87.5637 164.945C87.38 166.467 87.2094 167.982 86.993 169.465C86.9142 169.99 86.8224 170.501 86.7306 171.013C86.7306 170.672 86.7306 170.357 86.7306 170.357C86.5534 169.045 85.4186 166.533 83.9426 166.257C83.6941 166.219 83.4405 166.234 83.1981 166.3C82.9556 166.366 82.7297 166.482 82.535 166.641C82.3403 166.8 82.1811 166.998 82.0676 167.222C81.9541 167.446 81.8889 167.692 81.8762 167.943C81.7909 169.006 82.5322 170.075 83.3128 170.744C84.2974 171.401 85.3771 171.904 86.5141 172.233C86.4026 172.751 86.291 173.276 86.1598 173.775C86.0614 174.116 85.9958 174.431 85.8778 174.785C85.7597 175.139 85.6613 175.441 85.5563 175.782C85.3333 176.405 85.0971 177.055 84.861 177.658C84.7035 178.078 84.5395 178.478 84.3755 178.878C84.4608 178.36 84.5986 177.343 84.5986 177.258C84.5747 176.058 84.2402 174.885 83.6277 173.853C83.6377 173.72 83.6377 173.587 83.6277 173.453C83.5978 173.202 83.5148 172.959 83.3841 172.742C83.2535 172.524 83.0782 172.337 82.8698 172.193C82.6614 172.048 82.4248 171.95 82.1754 171.903C81.9261 171.857 81.6698 171.865 81.4235 171.925C79.9606 172.312 79.0357 174.877 78.9635 176.228C78.9635 176.307 79.0094 177.179 79.0554 177.724C78.9832 177.409 78.911 177.101 78.8323 176.773C78.6814 176.117 78.5043 175.461 78.3272 174.805C78.2222 174.477 78.1238 174.149 78.0189 173.808C77.9139 173.466 77.7827 173.152 77.6712 172.784C77.376 171.99 77.0152 171.203 76.6938 170.416C77.2645 170.278 79.2653 169.76 80.0722 169.15C80.879 168.54 81.7187 167.53 81.7122 166.46C81.7201 166.206 81.6735 165.953 81.5754 165.718C81.4774 165.483 81.3303 165.272 81.1439 165.098C80.9574 164.925 80.7361 164.793 80.4947 164.713C80.2533 164.632 79.9974 164.604 79.7442 164.63C78.2419 164.794 76.9365 167.189 76.661 168.514C76.661 168.599 76.556 169.57 76.5166 170.101C76.3002 169.635 76.0902 169.163 75.8606 168.691C75.2046 167.339 74.4699 165.988 73.7483 164.637C73.5318 164.223 73.3154 163.81 73.0923 163.397C73.2891 163.351 75.7163 162.793 76.5888 162.085C77.3891 161.468 78.2419 160.458 78.2288 159.395C78.2366 159.141 78.19 158.887 78.092 158.652C77.994 158.417 77.847 158.205 77.6607 158.031C77.4744 157.857 77.2532 157.725 77.0118 157.644C76.7704 157.562 76.5143 157.533 76.2608 157.558C74.7586 157.722 73.4531 160.117 73.1776 161.442C73.1776 161.54 73.0333 162.944 73.0202 163.298C72.5413 162.387 72.0821 161.475 71.6557 160.556C71.0843 159.316 70.5913 158.041 70.1797 156.738C70.2781 156.738 72.8037 156.148 73.7024 155.426C74.5027 154.81 75.349 153.806 75.3424 152.737C75.3502 152.482 75.3036 152.229 75.2056 151.994C75.1076 151.758 74.9606 151.547 74.7743 151.373C74.588 151.199 74.3668 151.067 74.1254 150.985C73.884 150.904 73.628 150.875 73.3744 150.9C71.8722 151.064 70.5667 153.465 70.2912 154.79C70.2912 154.895 70.1338 156.397 70.1272 156.673C70.1272 156.594 70.0747 156.522 70.055 156.443C69.6796 155.126 69.4227 153.778 69.2875 152.415C69.2022 151.661 69.1629 150.939 69.1432 150.237C69.6155 150.178 71.7672 149.89 72.6987 149.339C73.6302 148.788 74.5158 147.915 74.6274 146.846C74.6605 146.597 74.641 146.344 74.5702 146.102C74.4994 145.861 74.3788 145.638 74.2163 145.446C74.0537 145.254 73.8527 145.099 73.6264 144.99C73.4 144.881 73.1533 144.82 72.9021 144.812C71.3867 144.812 69.8254 147.049 69.4122 148.335C69.4122 148.407 69.235 149.142 69.1301 149.647C69.1301 149.332 69.1301 148.991 69.1301 148.696C69.1301 147.554 69.2088 146.505 69.2744 145.573C69.3203 145.049 69.3728 144.57 69.4253 144.13C69.8648 143.828 71.6163 142.589 72.1542 141.709C72.6922 140.83 73.112 139.597 72.7184 138.607C72.6337 138.37 72.5003 138.153 72.3268 137.972C72.1533 137.79 71.9435 137.646 71.711 137.55C71.4786 137.454 71.2286 137.408 70.9772 137.415C70.7259 137.422 70.4788 137.482 70.2518 137.59C68.9398 138.285 68.5528 140.994 68.7758 142.326C68.7758 142.444 69.3006 144.209 69.3269 144.196C69.2678 144.622 69.2088 145.081 69.1563 145.586C69.0645 146.511 68.9661 147.554 68.9398 148.716C68.8947 149.952 68.9231 151.189 69.0251 152.422C69.1223 153.805 69.3418 155.177 69.6811 156.522C69.684 156.537 69.684 156.553 69.6811 156.568C69.445 156.194 68.743 155.171 68.684 155.098C67.7984 154.075 65.4893 152.619 64.092 153.209C63.8633 153.314 63.6591 153.465 63.4929 153.654C63.3266 153.843 63.202 154.065 63.1271 154.305C63.0522 154.545 63.0288 154.798 63.0582 155.048C63.0877 155.298 63.1695 155.538 63.2982 155.754C63.8165 156.693 65.0498 157.158 66.0469 157.303C67.1752 157.467 69.5434 156.778 69.7336 156.725C70.1742 158.109 70.709 159.462 71.3342 160.773C71.6622 161.534 71.9902 162.282 72.3773 163.029C72.1608 162.715 71.964 162.433 71.9312 162.373C71.0456 161.35 68.7365 159.9 67.3392 160.491C67.1136 160.598 66.9129 160.751 66.75 160.94C66.5871 161.13 66.4656 161.351 66.3933 161.59C66.321 161.829 66.2996 162.081 66.3303 162.329C66.361 162.577 66.4432 162.815 66.5717 163.029C67.0834 163.968 68.3166 164.427 69.3203 164.571C70.324 164.715 72.3642 164.177 72.9021 164.027C73.0464 164.309 73.1842 164.597 73.3219 164.879C73.9779 166.25 74.7061 167.608 75.3424 168.966C75.5654 169.445 75.7688 169.924 75.9984 170.403L75.6179 169.852C74.7323 168.829 72.4232 167.372 71.0259 167.963C70.7972 168.067 70.593 168.219 70.4268 168.408C70.2605 168.596 70.1359 168.818 70.061 169.058C69.9861 169.298 69.9627 169.551 69.9922 169.801C70.0217 170.051 70.1034 170.292 70.2322 170.508C70.7504 171.446 71.9771 171.912 72.9808 172.056C74.162 172.061 75.3368 171.884 76.4642 171.531C76.661 172.03 76.8578 172.528 77.0283 173.014C77.1333 173.355 77.2579 173.67 77.3498 174.011C77.4416 174.352 77.5334 174.667 77.6318 175.021C77.7827 175.677 77.9467 176.333 78.0845 176.989C78.1829 177.429 78.2682 177.849 78.3534 178.301C78.137 177.822 77.6974 176.897 77.6384 176.825C76.9234 175.677 74.857 173.893 73.3941 174.267C73.1519 174.335 72.9269 174.454 72.7336 174.615C72.5404 174.776 72.3832 174.976 72.2724 175.202C72.1616 175.428 72.0997 175.674 72.0906 175.926C72.0816 176.177 72.1256 176.428 72.2198 176.661C72.5872 177.665 73.7352 178.308 74.6995 178.629C75.7622 178.957 78.1173 178.629 78.4125 178.629C78.5568 179.338 78.688 180.02 78.7995 180.669C79.1931 182.919 79.4555 184.802 79.5933 186.127C79.5933 186.363 79.6392 186.573 79.6654 186.783H75.0734L76.7397 188.896H84.487L86.1533 186.783H81.909C81.909 186.718 81.968 186.659 82.0008 186.586C82.5846 185.373 83.3915 183.628 84.264 181.496C84.5395 180.84 84.8216 180.099 85.1102 179.351C85.3923 179.41 87.7342 179.882 88.8101 179.639C89.7941 179.416 90.988 178.859 91.4341 177.881C91.5462 177.656 91.6094 177.41 91.6196 177.158C91.6298 176.907 91.5867 176.656 91.4931 176.423C91.3996 176.189 91.2577 175.978 91.0768 175.803C90.8959 175.628 90.6801 175.494 90.4435 175.408C89.0069 174.923 86.8158 176.556 86.0155 177.645C85.9696 177.704 85.5301 178.459 85.2677 178.957C85.3792 178.655 85.4973 178.36 85.6088 178.039C85.8384 177.416 86.0483 176.786 86.2648 176.11L86.56 175.106C86.6715 174.778 86.7371 174.411 86.829 174.063C87.0258 173.243 87.1832 172.404 87.3275 171.551C87.872 171.748 89.8269 172.43 90.8371 172.358C91.8474 172.286 93.1069 171.918 93.6907 171.046C93.8351 170.84 93.9345 170.607 93.9824 170.36C94.0302 170.114 94.0256 169.86 93.9686 169.615C93.9116 169.371 93.8037 169.141 93.6518 168.941C93.4999 168.741 93.3075 168.575 93.0872 168.455C91.7424 167.759 89.3283 169.038 88.3706 169.99C88.3115 170.049 87.7146 170.81 87.3734 171.236C87.4587 170.724 87.5374 170.213 87.603 169.694C87.7867 168.192 87.931 166.67 88.0819 165.148C88.1213 164.683 88.1738 164.217 88.2262 163.751C88.4165 163.823 90.7256 164.683 91.8539 164.604C92.8642 164.532 94.1237 164.164 94.7075 163.292C94.8558 163.085 94.9585 162.849 95.0088 162.6C95.0592 162.351 95.056 162.094 94.9996 161.846C94.9432 161.597 94.8348 161.364 94.6815 161.161C94.5282 160.958 94.3336 160.79 94.1106 160.668C92.7592 159.979 90.3517 161.258 89.3939 162.209C89.3218 162.282 88.4427 163.377 88.2328 163.666C88.3378 162.649 88.4558 161.626 88.6133 160.629C88.8177 159.279 89.1091 157.945 89.4858 156.633C89.5776 156.666 91.9786 157.572 93.1397 157.486C94.1434 157.421 95.4094 157.047 95.9933 156.174C96.1423 155.968 96.2455 155.731 96.296 155.482C96.3464 155.232 96.343 154.974 96.2858 154.726C96.2287 154.477 96.1192 154.244 95.9647 154.041C95.8102 153.838 95.6142 153.671 95.3898 153.55C94.0778 152.855 91.6309 154.134 90.6731 155.085C90.601 155.164 89.6563 156.345 89.4989 156.568C89.4989 156.496 89.5382 156.41 89.5645 156.338C89.9772 155.032 90.5063 153.765 91.1454 152.553C91.4866 151.897 91.8539 151.241 92.2278 150.657C92.6542 150.867 94.6354 151.832 95.685 151.871C96.7346 151.91 97.9875 151.681 98.6698 150.854C98.8328 150.666 98.9548 150.446 99.0278 150.208C99.1007 149.97 99.1231 149.72 99.0934 149.472C99.0638 149.225 98.9828 148.987 98.8556 148.773C98.7284 148.559 98.5578 148.374 98.3549 148.23C97.0954 147.39 94.5566 148.401 93.5005 149.24C93.4414 149.286 92.9101 149.818 92.523 150.211C92.7002 149.942 92.8707 149.66 93.0413 149.404C93.6973 148.453 94.3074 147.62 94.8846 146.885C95.2126 146.472 95.5406 146.098 95.803 145.757C96.3344 145.757 98.4795 145.685 99.4176 145.245C100.356 144.806 101.386 144.012 101.596 142.969C101.683 142.716 101.712 142.446 101.681 142.18C101.65 141.914 101.56 141.658 101.417 141.431C101.274 141.205 101.082 141.013 100.855 140.87C100.628 140.728 100.373 140.638 100.106 140.607ZM83.4374 181.05C82.5256 183.142 81.6925 184.848 81.089 186.035C80.9643 186.278 80.8594 186.488 80.7544 186.691H80.656C80.656 186.455 80.597 186.206 80.5576 185.924C80.3739 184.612 80.0853 182.69 79.6326 180.427C79.4949 179.712 79.3309 178.951 79.1538 178.17C79.8606 177.876 80.5505 177.544 81.2202 177.173C82.1313 177.964 83.1466 178.626 84.2378 179.141C83.9688 179.797 83.6998 180.453 83.4374 181.05Z" fill="#263238"/>
<path d="M92.1557 150.238C92.1557 150.238 92.6345 148.473 92.6542 148.355C92.8379 147.043 92.4115 144.321 91.047 143.658C90.8177 143.556 90.5693 143.503 90.3181 143.502C90.0669 143.502 89.8185 143.555 89.5889 143.657C89.3594 143.759 89.1539 143.908 88.9858 144.095C88.8177 144.282 88.6908 144.502 88.6133 144.741C88.2459 145.744 88.7051 146.977 89.2693 147.824C89.9187 148.821 92.1557 150.238 92.1557 150.238Z" fill="#263238"/>
<path d="M214.959 156.594C216.448 157.25 220.089 157.158 220.089 157.158C220.089 157.158 219.308 154.777 219.243 154.633C218.442 152.967 215.917 150.205 213.863 150.487C213.524 150.542 213.199 150.668 212.911 150.856C212.624 151.045 212.379 151.292 212.193 151.582C212.007 151.872 211.885 152.197 211.833 152.538C211.782 152.878 211.803 153.225 211.895 153.557C212.236 154.98 213.693 156.037 214.959 156.594Z" fill="#24BEE1"/>
<path d="M262.624 144.209C260.564 143.986 258.117 146.833 257.376 148.499C257.31 148.65 256.556 151.051 256.595 151.051H256.634C256.247 151.491 255.834 151.97 255.394 152.508C254.588 153.498 253.682 154.62 252.77 155.912C251.788 157.296 250.886 158.735 250.068 160.222C249.147 161.883 248.375 163.621 247.759 165.418V165.483C247.759 164.88 247.759 163.181 247.726 163.049C247.49 161.213 245.948 157.801 243.914 157.428C243.574 157.375 243.226 157.394 242.893 157.484C242.561 157.575 242.251 157.734 241.984 157.951C241.716 158.169 241.498 158.441 241.342 158.748C241.187 159.056 241.098 159.392 241.081 159.737C240.962 161.193 242.019 162.656 243.049 163.574C244.21 164.611 247.437 165.621 247.693 165.7C247.114 167.544 246.659 169.424 246.329 171.328C246.132 172.437 245.968 173.565 245.817 174.687C245.817 174.162 245.817 173.696 245.817 173.631C245.581 171.794 244.039 168.383 241.999 168.009C241.659 167.956 241.311 167.975 240.979 168.066C240.647 168.156 240.337 168.315 240.07 168.533C239.804 168.751 239.586 169.022 239.431 169.33C239.276 169.637 239.188 169.974 239.172 170.318C239.053 171.774 240.11 173.237 241.14 174.156C242.169 175.074 244.918 176.005 245.646 176.235C245.594 176.668 245.535 177.101 245.482 177.547C245.24 179.627 244.997 181.706 244.702 183.733C244.597 184.448 244.465 185.15 244.341 185.852C244.341 185.386 244.341 184.993 244.341 184.934C244.105 183.097 242.563 179.686 240.529 179.312C240.189 179.259 239.841 179.278 239.508 179.368C239.176 179.459 238.866 179.618 238.599 179.836C238.331 180.053 238.113 180.325 237.957 180.632C237.802 180.94 237.713 181.277 237.696 181.621C237.577 183.077 238.634 184.54 239.664 185.458C240.693 186.377 243.18 187.216 244.046 187.499C243.895 188.214 243.744 188.929 243.567 189.611C243.429 190.077 243.337 190.536 243.18 190.995C243.022 191.454 242.885 191.907 242.734 192.36C242.425 193.212 242.11 194.098 241.782 194.931C241.566 195.502 241.343 196.053 241.126 196.604C241.238 195.889 241.428 194.492 241.428 194.373C241.408 192.746 240.97 191.151 240.156 189.742C240.161 189.56 240.15 189.378 240.123 189.198C240.079 188.856 239.963 188.527 239.784 188.233C239.605 187.939 239.366 187.686 239.083 187.49C238.8 187.294 238.479 187.159 238.14 187.095C237.802 187.031 237.454 187.039 237.118 187.118C235.117 187.649 233.838 191.166 233.753 193.022C233.753 193.134 233.819 194.334 233.878 195.069C233.773 194.636 233.681 194.209 233.569 193.757C233.359 192.871 233.123 191.992 232.874 191.048C232.736 190.595 232.598 190.142 232.461 189.676C232.323 189.211 232.139 188.745 231.975 188.279C231.582 187.19 231.129 186.114 230.663 185.039C231.437 184.855 234.186 184.153 235.288 183.307C236.39 182.46 237.545 181.089 237.538 179.627C237.546 179.285 237.483 178.945 237.352 178.629C237.222 178.313 237.027 178.028 236.78 177.792C236.533 177.555 236.24 177.373 235.919 177.256C235.597 177.14 235.255 177.091 234.914 177.114C232.854 177.337 231.063 180.624 230.689 182.434C230.689 182.546 230.545 183.877 230.493 184.612C230.197 183.956 229.909 183.3 229.587 182.677C228.662 180.82 227.678 178.977 226.694 177.127C226.393 176.556 226.104 175.992 225.809 175.422C226.084 175.363 229.364 174.602 230.598 173.65C231.693 172.811 232.861 171.433 232.848 169.97C232.856 169.629 232.793 169.289 232.662 168.973C232.532 168.657 232.337 168.372 232.09 168.135C231.843 167.899 231.549 167.717 231.228 167.6C230.907 167.483 230.565 167.435 230.224 167.458C228.164 167.681 226.373 170.967 225.999 172.778C225.999 172.916 225.802 174.831 225.783 175.323C225.127 174.07 224.471 172.817 223.92 171.564C223.134 169.86 222.459 168.107 221.899 166.316C222.024 166.316 225.455 165.509 226.714 164.539C227.81 163.699 228.977 162.321 228.964 160.858C228.974 160.516 228.912 160.176 228.783 159.859C228.653 159.542 228.458 159.256 228.211 159.019C227.963 158.782 227.669 158.6 227.347 158.484C227.025 158.368 226.682 158.321 226.34 158.346C224.28 158.569 222.496 161.849 222.122 163.666C222.089 163.81 221.906 165.87 221.899 166.244C221.899 166.139 221.82 166.034 221.794 165.936C221.277 164.133 220.925 162.286 220.745 160.419C220.626 159.389 220.574 158.398 220.541 157.434C221.197 157.349 224.175 156.955 225.409 156.207C226.642 155.46 227.901 154.239 228.033 152.796C228.08 152.455 228.055 152.108 227.959 151.778C227.863 151.447 227.699 151.14 227.477 150.877C227.254 150.614 226.98 150.401 226.67 150.251C226.36 150.102 226.022 150.019 225.678 150.008C223.605 150.008 221.466 153.072 220.895 154.83C220.895 154.928 220.653 155.938 220.515 156.673C220.515 156.234 220.515 155.788 220.515 155.361C220.515 153.793 220.613 152.363 220.712 151.091C220.771 150.369 220.843 149.713 220.915 149.123C221.519 148.709 223.913 147.017 224.648 145.803C225.382 144.59 225.96 142.923 225.422 141.559C225.306 141.235 225.123 140.938 224.885 140.689C224.648 140.44 224.36 140.244 224.041 140.113C223.723 139.983 223.38 139.921 223.036 139.931C222.692 139.942 222.353 140.025 222.043 140.175C220.207 141.126 219.721 144.832 220.023 146.656C220.023 146.813 220.745 149.234 220.777 149.214H220.81C220.731 149.798 220.653 150.428 220.581 151.117C220.449 152.389 220.325 153.826 220.285 155.4C220.229 157.094 220.268 158.789 220.403 160.478C220.553 162.372 220.87 164.248 221.348 166.087V166.152C221.02 165.641 220.036 164.243 219.977 164.138C218.763 162.741 215.601 160.747 213.693 161.56C213.379 161.703 213.1 161.911 212.872 162.169C212.645 162.428 212.475 162.731 212.372 163.06C212.27 163.389 212.239 163.735 212.28 164.077C212.321 164.419 212.433 164.748 212.61 165.044C213.312 166.323 214.998 166.959 216.369 167.163C217.911 167.386 221.158 166.441 221.414 166.369C221.948 168.225 222.605 170.044 223.382 171.814C223.828 172.85 224.307 173.88 224.805 174.903C224.51 174.47 224.241 174.083 224.195 174.031C222.988 172.634 219.82 170.639 217.917 171.453C217.603 171.595 217.323 171.802 217.095 172.06C216.867 172.319 216.696 172.622 216.593 172.951C216.49 173.28 216.458 173.626 216.499 173.969C216.539 174.311 216.651 174.64 216.828 174.936C217.53 176.215 219.223 176.852 220.587 177.048C221.952 177.245 224.759 176.504 225.494 176.301C225.691 176.688 225.881 177.081 226.078 177.475C227.016 179.344 227.961 181.208 228.833 183.064C229.141 183.72 229.423 184.376 229.705 185.032C229.437 184.645 229.213 184.324 229.174 184.278C227.961 182.88 224.799 180.886 222.89 181.693C222.576 181.837 222.297 182.045 222.069 182.304C221.842 182.563 221.671 182.867 221.569 183.196C221.467 183.526 221.435 183.873 221.476 184.215C221.518 184.557 221.63 184.887 221.807 185.183C222.509 186.462 224.195 187.098 225.566 187.295C226.937 187.492 229.502 186.823 230.342 186.58C230.611 187.236 230.88 187.938 231.109 188.607C231.254 189.073 231.424 189.506 231.549 189.978C231.673 190.451 231.805 190.903 231.929 191.356C232.146 192.241 232.369 193.153 232.553 194.026C232.69 194.629 232.802 195.207 232.926 195.784C232.625 195.128 232.015 193.862 231.949 193.763C230.965 192.196 228.138 189.749 226.13 190.26C225.799 190.355 225.492 190.518 225.228 190.739C224.964 190.96 224.75 191.234 224.599 191.544C224.448 191.853 224.364 192.191 224.352 192.535C224.34 192.879 224.4 193.221 224.53 193.54C225.035 194.911 226.603 195.797 227.928 196.164C229.384 196.61 232.605 196.204 233.005 196.164C233.202 197.129 233.379 198.067 233.53 198.952C234.074 202.029 234.409 204.614 234.619 206.424C234.658 206.746 234.685 207.034 234.717 207.303H228.479L230.755 210.196H241.389L243.665 207.303H237.853L237.984 207.041C238.778 205.375 239.887 202.987 241.081 200.068C241.461 199.143 241.848 198.152 242.235 197.129C242.622 197.207 245.817 197.857 247.299 197.522C248.651 197.214 250.284 196.453 250.888 195.121C251.04 194.813 251.125 194.475 251.138 194.132C251.152 193.788 251.093 193.445 250.965 193.125C250.838 192.806 250.645 192.516 250.399 192.276C250.153 192.036 249.859 191.85 249.536 191.73C247.568 191.074 244.57 193.304 243.468 194.793C243.403 194.879 242.812 195.908 242.445 196.571C242.596 196.151 242.753 195.744 242.911 195.312C243.226 194.459 243.514 193.593 243.823 192.688L244.236 191.316C244.38 190.857 244.479 190.359 244.603 189.88C244.872 188.758 245.089 187.61 245.259 186.442C246.007 186.718 248.684 187.649 250.068 187.551C251.452 187.453 253.177 186.948 254.004 185.721C254.202 185.439 254.339 185.119 254.405 184.78C254.471 184.442 254.464 184.094 254.386 183.758C254.308 183.422 254.16 183.107 253.952 182.832C253.744 182.558 253.479 182.331 253.177 182.165C251.334 181.214 248.034 182.966 246.722 184.271C246.643 184.35 245.804 185.393 245.358 185.977C245.469 185.275 245.581 184.579 245.666 183.864C245.922 181.811 246.119 179.725 246.322 177.639C246.381 176.983 246.453 176.366 246.519 175.73C246.781 175.828 249.937 177.003 251.491 176.898C252.869 176.799 254.601 176.294 255.427 175.067C255.625 174.785 255.76 174.465 255.826 174.127C255.891 173.789 255.885 173.441 255.807 173.105C255.729 172.77 255.581 172.455 255.373 172.18C255.165 171.906 254.902 171.678 254.601 171.512C252.757 170.561 249.458 172.312 248.146 173.618C248.041 173.716 246.834 175.218 246.558 175.586C246.702 174.188 246.866 172.798 247.076 171.427C247.359 169.578 247.758 167.748 248.27 165.949C248.395 166.001 251.681 167.261 253.276 167.13C254.653 167.031 256.385 166.526 257.212 165.3C257.41 165.018 257.547 164.698 257.614 164.36C257.68 164.022 257.674 163.674 257.597 163.338C257.52 163.003 257.372 162.687 257.165 162.412C256.957 162.138 256.693 161.91 256.392 161.744C254.548 160.793 251.242 162.544 249.93 163.85C249.832 163.955 248.539 165.568 248.323 165.877C248.356 165.772 248.375 165.66 248.408 165.562C248.975 163.773 249.702 162.038 250.579 160.38C251.045 159.455 251.55 158.602 252.055 157.756C252.646 158.051 255.335 159.363 256.792 159.422C258.248 159.481 259.947 159.159 260.879 158.031C261.105 157.772 261.275 157.468 261.376 157.139C261.478 156.81 261.51 156.463 261.469 156.121C261.428 155.779 261.316 155.449 261.14 155.154C260.963 154.858 260.727 154.602 260.446 154.403C258.72 153.255 255.244 154.633 253.8 155.788C253.722 155.853 252.993 156.581 252.488 157.1C252.725 156.732 252.954 156.352 253.19 156.004C254.056 154.692 254.929 153.557 255.716 152.553C256.162 151.983 256.582 151.478 256.975 151.012C257.704 151.012 260.636 150.907 261.922 150.303C263.207 149.7 264.605 148.624 264.906 147.187C264.983 146.838 264.983 146.477 264.905 146.128C264.828 145.779 264.675 145.451 264.458 145.167C264.24 144.884 263.963 144.651 263.647 144.485C263.33 144.32 262.981 144.226 262.624 144.209ZM239.801 199.582C238.561 202.449 237.413 204.791 236.587 206.411C236.423 206.739 236.272 207.028 236.134 207.297H235.997C235.957 206.982 235.911 206.641 235.859 206.247C235.603 204.417 235.203 201.819 234.593 198.723C234.402 197.745 234.179 196.702 233.937 195.633C234.907 195.252 235.853 194.814 236.771 194.321C237.833 195.469 240.549 196.814 240.903 196.984C240.536 197.876 240.162 198.756 239.801 199.582Z" fill="#24BEE1"/>
<path d="M251.767 157.394C251.767 157.394 252.423 154.974 252.423 154.816C252.679 152.986 252.095 149.293 250.225 148.388C249.911 148.246 249.57 148.173 249.225 148.172C248.881 148.172 248.54 148.244 248.225 148.383C247.91 148.523 247.628 148.728 247.397 148.984C247.166 149.24 246.992 149.542 246.886 149.87C246.388 151.241 247.024 152.927 247.772 154.088C248.684 155.453 251.76 157.394 251.767 157.394Z" fill="#24BEE1"/>
<path d="M147.889 176.831H69.543V220.553H147.889V176.831Z" fill="white"/>
<path fill-rule="evenodd" clip-rule="evenodd" d="M69.2148 176.831C69.2148 176.65 69.3617 176.503 69.5428 176.503H147.889C148.07 176.503 148.217 176.65 148.217 176.831V220.554C148.217 220.735 148.07 220.882 147.889 220.882H69.5428C69.3617 220.882 69.2148 220.735 69.2148 220.554V176.831ZM69.8708 177.159V220.226H147.561V177.159H69.8708Z" fill="#263238"/>
<path d="M147.889 176.831H125.677V220.553H147.889V176.831Z" fill="#263238"/>
<path fill-rule="evenodd" clip-rule="evenodd" d="M125.349 176.831C125.349 176.65 125.495 176.503 125.677 176.503H147.889C148.07 176.503 148.217 176.65 148.217 176.831V220.554C148.217 220.735 148.07 220.882 147.889 220.882H125.677C125.495 220.882 125.349 220.735 125.349 220.554V176.831ZM126.005 177.159V220.226H147.561V177.159H126.005Z" fill="#263238"/>
<path d="M205.84 122.016H127.494V263.896H205.84V122.016Z" fill="white"/>
<path fill-rule="evenodd" clip-rule="evenodd" d="M127.166 122.016C127.166 121.835 127.313 121.688 127.494 121.688H205.84C206.021 121.688 206.168 121.835 206.168 122.016V263.896C206.168 264.077 206.021 264.224 205.84 264.224H127.494C127.313 264.224 127.166 264.077 127.166 263.896V122.016ZM127.822 122.344V263.568H205.512V122.344H127.822Z" fill="#263238"/>
<path d="M205.84 122.016H183.628V263.896H205.84V122.016Z" fill="#263238"/>
<path fill-rule="evenodd" clip-rule="evenodd" d="M183.3 122.016C183.3 121.835 183.447 121.688 183.628 121.688H205.84C206.021 121.688 206.168 121.835 206.168 122.016V263.896C206.168 264.077 206.021 264.224 205.84 264.224H183.628C183.447 264.224 183.3 264.077 183.3 263.896V122.016ZM183.956 122.344V263.568H205.512V122.344H183.956Z" fill="#263238"/>
<path d="M147.889 220.291H69.543V264.014H147.889V220.291Z" fill="white"/>
<path fill-rule="evenodd" clip-rule="evenodd" d="M69.2148 220.291C69.2148 220.11 69.3617 219.963 69.5428 219.963H147.889C148.07 219.963 148.217 220.11 148.217 220.291V264.014C148.217 264.195 148.07 264.342 147.889 264.342H69.5428C69.3617 264.342 69.2148 264.195 69.2148 264.014V220.291ZM69.8708 220.619V263.686H147.561V220.619H69.8708Z" fill="#263238"/>
<path d="M184.474 220.291H141.979V264.014H184.474V220.291Z" fill="#263238"/>
<path fill-rule="evenodd" clip-rule="evenodd" d="M141.65 220.291C141.65 220.11 141.797 219.963 141.978 219.963H184.474C184.655 219.963 184.802 220.11 184.802 220.291V264.014C184.802 264.195 184.655 264.342 184.474 264.342H141.978C141.797 264.342 141.65 264.195 141.65 264.014V220.291ZM142.306 220.619V263.686H184.146V220.619H142.306Z" fill="#263238"/>
<path d="M208.398 220.291H145.278V264.014H208.398V220.291Z" fill="white"/>
<path fill-rule="evenodd" clip-rule="evenodd" d="M144.95 220.291C144.95 220.11 145.097 219.963 145.278 219.963H208.399C208.58 219.963 208.727 220.11 208.727 220.291V264.014C208.727 264.195 208.58 264.342 208.399 264.342H145.278C145.097 264.342 144.95 264.195 144.95 264.014V220.291ZM145.606 220.619V263.686H208.071V220.619H145.606Z" fill="#263238"/>
<path d="M210.97 197.659L170.199 144.038H147.876V158.017L117.732 197.659H210.97Z" fill="#263238"/>
<path fill-rule="evenodd" clip-rule="evenodd" d="M147.548 144.038C147.548 143.857 147.695 143.71 147.876 143.71H170.2C170.302 143.71 170.399 143.758 170.461 143.839L211.231 197.461C211.307 197.56 211.319 197.693 211.264 197.805C211.209 197.917 211.095 197.987 210.97 197.987H117.733C117.608 197.987 117.494 197.917 117.439 197.805C117.384 197.693 117.396 197.56 117.472 197.461L147.548 157.907V144.038ZM148.204 144.366V158.017C148.204 158.089 148.18 158.159 148.137 158.216L118.394 197.331H210.309L170.037 144.366H148.204Z" fill="#263238"/>
<path d="M147.876 144.038L107.099 197.659H188.646L147.876 144.038Z" fill="white"/>
<path fill-rule="evenodd" clip-rule="evenodd" d="M147.876 143.71C147.978 143.71 148.075 143.758 148.137 143.839L188.907 197.461C188.983 197.56 188.996 197.693 188.94 197.805C188.885 197.917 188.771 197.987 188.646 197.987H107.099C106.974 197.987 106.861 197.917 106.805 197.805C106.75 197.693 106.762 197.56 106.838 197.461L147.615 143.839C147.677 143.758 147.773 143.71 147.876 143.71ZM107.76 197.331H187.985L147.876 144.58L107.76 197.331Z" fill="#263238"/>
<path d="M258.248 197.928H179.902V264.013H258.248V197.928Z" fill="#24BEE1"/>
<path fill-rule="evenodd" clip-rule="evenodd" d="M179.574 197.928C179.574 197.747 179.721 197.6 179.902 197.6H258.248C258.429 197.6 258.576 197.747 258.576 197.928V264.014C258.576 264.195 258.429 264.342 258.248 264.342H179.902C179.721 264.342 179.574 264.195 179.574 264.014V197.928ZM180.23 198.256V263.686H257.92V198.256H180.23Z" fill="#263238"/>
<path d="M258.248 197.928H228.4V264.013H258.248V197.928Z" fill="#263238"/>
<path fill-rule="evenodd" clip-rule="evenodd" d="M228.072 197.928C228.072 197.747 228.219 197.6 228.4 197.6H258.248C258.429 197.6 258.576 197.747 258.576 197.928V264.014C258.576 264.195 258.429 264.342 258.248 264.342H228.4C228.219 264.342 228.072 264.195 228.072 264.014V197.928ZM228.728 198.256V263.686H257.92V198.256H228.728Z" fill="#263238"/>
<path d="M176.012 197.928H97.6655V264.013H176.012V197.928Z" fill="#24BEE1"/>
<path fill-rule="evenodd" clip-rule="evenodd" d="M97.3374 197.928C97.3374 197.747 97.4843 197.6 97.6654 197.6H176.011C176.193 197.6 176.339 197.747 176.339 197.928V264.014C176.339 264.195 176.193 264.342 176.011 264.342H97.6654C97.4843 264.342 97.3374 264.195 97.3374 264.014V197.928ZM97.9934 198.256V263.686H175.683V198.256H97.9934Z" fill="#263238"/>
<path d="M176.012 197.928H146.164V264.013H176.012V197.928Z" fill="#263238"/>
<path fill-rule="evenodd" clip-rule="evenodd" d="M145.835 197.928C145.835 197.747 145.982 197.6 146.163 197.6H176.011C176.193 197.6 176.339 197.747 176.339 197.928V264.014C176.339 264.195 176.193 264.342 176.011 264.342H146.163C145.982 264.342 145.835 264.195 145.835 264.014V197.928ZM146.491 198.256V263.686H175.683V198.256H146.491Z" fill="#263238"/>
<path d="M297.168 263.712H31.4883V266.336H297.168V263.712Z" fill="#263238"/>
<path fill-rule="evenodd" clip-rule="evenodd" d="M31.1602 263.712C31.1602 263.531 31.307 263.384 31.4882 263.384H297.168C297.349 263.384 297.496 263.531 297.496 263.712V266.336C297.496 266.517 297.349 266.664 297.168 266.664H31.4882C31.307 266.664 31.1602 266.517 31.1602 266.336V263.712ZM31.8162 264.04V266.008H296.84V264.04H31.8162Z" fill="#263238"/>
</svg>
