<svg width="16" height="16" viewBox="0 0 16 16" fill="none" xmlns="http://www.w3.org/2000/svg">
<path d="M8 1C4.13438 1 1 4.13438 1 8C1 11.8656 4.13438 15 8 15C11.8656 15 15 11.8656 15 8C15 4.13438 11.8656 1 8 1ZM8 13.8125C4.79063 13.8125 2.1875 11.2094 2.1875 8C2.1875 4.79063 4.79063 2.1875 8 2.1875C11.2094 2.1875 13.8125 4.79063 13.8125 8C13.8125 11.2094 11.2094 13.8125 8 13.8125ZM11.1 4.62344C11.0388 4.59953 10.9735 4.58791 10.9078 4.58925C10.8421 4.59059 10.7774 4.60486 10.7172 4.63125L6.48281 6.48438L4.63125 10.7188C4.575 10.8469 4.575 10.9922 4.63125 11.1203C4.68437 11.2422 4.78281 11.3375 4.90781 11.3859C4.96719 11.4094 5.02812 11.4203 5.09062 11.4203C5.15937 11.4203 5.22656 11.4062 5.29063 11.3781L9.525 9.525L11.3766 5.29063C11.4036 5.22883 11.4178 5.16221 11.4185 5.09477C11.4191 5.02733 11.4061 4.96046 11.3803 4.89815C11.3545 4.83585 11.3164 4.7794 11.2682 4.7322C11.22 4.68499 11.1628 4.648 11.1 4.62344ZM9.0125 8.35L9.42188 8.75937L8.75937 9.42188L8.35 9.0125L5.9375 10.0688L6.99219 7.65625L6.59375 7.25625L7.25625 6.59375L7.65469 6.99219L10.0688 5.9375L9.0125 8.35ZM7.25625 6.59375L6.59375 7.25625L6.99219 7.65625L8.35 9.0125L8.75937 9.42188L9.42188 8.75937L9.0125 8.35L7.65625 6.99219L7.25625 6.59375Z" fill="white"/>
</svg>
