<svg width="16" height="16" viewBox="0 0 16 16" fill="none" xmlns="http://www.w3.org/2000/svg">
<path d="M15.1111 2.19772C15.1111 1.47604 14.524 0.888916 13.8019 0.888916H13.8018C13.1149 0.888916 12.4692 1.15638 11.9836 1.64206L9.65473 3.97092L3.85992 2.60744C2.75456 2.34735 1.58876 2.8073 0.958876 3.75207C0.913303 3.82053 0.888889 3.90094 0.888889 3.98318C0.888889 4.1365 0.973091 4.27756 1.10807 4.35015L6.41678 7.20875L3.81076 9.81474H2.1977C1.47602 9.81474 0.888889 10.4019 0.888889 11.1241C0.888889 11.2703 0.965712 11.406 1.09125 11.4813L3.2334 12.7666L4.51866 14.9088C4.59397 15.0342 4.7296 15.111 4.87598 15.111C5.22591 15.111 5.55469 14.9747 5.80165 14.7276C6.04905 14.4803 6.18522 14.1515 6.18522 13.8018V12.1893L8.79123 9.58319L11.6498 14.892C11.7225 15.0269 11.8636 15.1111 12.0168 15.1111C12.0991 15.1111 12.1795 15.0867 12.2479 15.041C13.1927 14.4113 13.6527 13.2455 13.3927 12.1401L12.0292 6.34536L14.358 4.0165C14.8436 3.53071 15.1111 2.88499 15.1111 2.19772ZM1.95747 3.86112C2.41363 3.44944 3.0548 3.2741 3.66905 3.41852L8.9617 4.66384L7.03201 6.59352L1.95747 3.86112ZM12.5815 12.331C12.726 12.9452 12.5506 13.5864 12.139 14.0426L9.40647 8.96796L11.3362 7.03828L12.5815 12.331ZM13.7688 3.4272L5.47396 11.7219C5.39572 11.8002 5.35189 11.9061 5.35189 12.0167V13.8018C5.35189 13.9289 5.30241 14.0483 5.21235 14.1384C5.17415 14.1766 5.13064 14.2075 5.08344 14.2304L3.89431 12.2485C3.85916 12.1899 3.81011 12.1408 3.75141 12.1056L1.76975 10.9166C1.84679 10.7579 2.00966 10.6482 2.1977 10.6482H3.9834C4.09386 10.6482 4.19987 10.6042 4.278 10.5261L12.5728 2.23125C12.901 1.90301 13.3375 1.72224 13.8018 1.72224H13.8023C14.0645 1.72224 14.2778 1.93557 14.2778 2.19815C14.2778 2.66245 14.097 3.09886 13.7688 3.4272Z" fill="white"/>
</svg>
