<svg width="14" height="14" viewBox="0 0 14 14" fill="none" xmlns="http://www.w3.org/2000/svg">
<path d="M10.055 13.6668C8.06382 13.6668 6.44373 12.0467 6.44373 10.0554C6.44373 8.0642 8.06382 6.44409 10.055 6.44409C12.0463 6.44409 13.6664 8.0642 13.6664 10.0554C13.6664 12.0467 12.0463 13.6668 10.055 13.6668ZM10.055 6.99968C8.36995 6.99968 6.99931 8.37033 6.99931 10.0554C6.99931 11.7406 8.36995 13.1112 10.055 13.1112C11.7401 13.1112 13.1108 11.7406 13.1108 10.0554C13.1108 8.37033 11.7401 6.99968 10.055 6.99968Z" fill="white" stroke="white" stroke-width="0.25"/>
<path d="M11.1663 11.7224C11.0952 11.7224 11.0241 11.6952 10.9696 11.6413L9.85846 10.5301C9.80679 10.4779 9.77734 10.4073 9.77734 10.3334V8.38888C9.77734 8.23554 9.9018 8.11108 10.0551 8.11108C10.2085 8.11108 10.3329 8.23554 10.3329 8.38888V10.2184L11.363 11.2485C11.4713 11.3568 11.4713 11.5329 11.363 11.6413C11.3086 11.6952 11.2374 11.7224 11.1663 11.7224Z" fill="white" stroke="white" stroke-width="0.25"/>
<path d="M5.05557 10.889C4.98445 10.889 4.91334 10.8617 4.85889 10.8078L1.52535 7.4743C1.41701 7.36596 1.41701 7.18984 1.52535 7.0815C1.63369 6.97316 1.80981 6.97316 1.91815 7.0815L5.25169 10.415C5.36003 10.5234 5.36003 10.6995 5.25169 10.8078C5.1978 10.8617 5.12668 10.889 5.05557 10.889Z" fill="white" stroke="white" stroke-width="0.25"/>
<path d="M9.50035 3.11079C9.42923 3.11079 9.35812 3.08356 9.30367 3.02967C9.19533 2.92133 9.19533 2.74521 9.30367 2.63687L11.526 0.414507C11.6344 0.306167 11.8105 0.306167 11.9188 0.414507C12.0272 0.522847 12.0272 0.698969 11.9188 0.807309L9.69647 3.02967C9.64258 3.08356 9.57146 3.11079 9.50035 3.11079Z" fill="white" stroke="white" stroke-width="0.25"/>
<path d="M4.5001 10.3337C4.42899 10.3337 4.35787 10.3065 4.30342 10.2526C4.19508 10.1443 4.19508 9.96816 4.30342 9.85982L4.8979 9.26534C5.00624 9.157 5.18236 9.157 5.2907 9.26534C5.39904 9.37368 5.39904 9.5498 5.2907 9.65814L4.69622 10.2526C4.64233 10.3065 4.57122 10.3337 4.5001 10.3337Z" fill="white" stroke="white" stroke-width="0.25"/>
<path d="M2.27696 8.11104C2.20584 8.11104 2.13473 8.08381 2.08028 8.02992C1.97194 7.92158 1.97194 7.74546 2.08028 7.63712L7.40839 2.30901C7.94898 1.76842 8.82792 1.76842 9.36796 2.30901L10.0236 2.9646C10.5641 3.50519 10.5641 4.38414 10.0236 4.92417L9.65686 5.29086C9.54852 5.3992 9.3724 5.3992 9.26406 5.29086C9.15572 5.18252 9.15572 5.0064 9.26406 4.89806L9.63075 4.53137C9.95466 4.20746 9.95466 3.68076 9.63075 3.35741L8.97515 2.70181C8.65124 2.3779 8.1251 2.3779 7.80119 2.70181L2.47308 8.02992C2.41919 8.08381 2.34807 8.11104 2.27696 8.11104Z" fill="white" stroke="white" stroke-width="0.25"/>
<path d="M1.44358 11.1667C1.37247 11.1667 1.30135 11.1395 1.2469 11.0856C1.13856 10.9773 1.13856 10.8011 1.2469 10.6928L3.19147 8.74825C3.29981 8.63991 3.47593 8.63991 3.58427 8.74825C3.69261 8.85659 3.69261 9.03271 3.58427 9.14105L1.63971 11.0856C1.58581 11.1395 1.5147 11.1667 1.44358 11.1667Z" fill="white" stroke="white" stroke-width="0.25"/>
<path d="M2.27698 12C2.20586 12 2.13475 11.9728 2.0803 11.9189L0.41353 10.2521C0.30519 10.1438 0.30519 9.96767 0.41353 9.85933C0.521871 9.75099 0.697993 9.75099 0.806333 9.85933L2.4731 11.5261C2.58144 11.6344 2.58144 11.8106 2.4731 11.9189C2.41921 11.9728 2.3481 12 2.27698 12Z" fill="white" stroke="white" stroke-width="0.25"/>
<path d="M6.72244 4.77776C6.65132 4.77776 6.58021 4.75054 6.52576 4.69665L5.97017 4.14105C5.86183 4.03271 5.86183 3.85659 5.97017 3.74825C6.07851 3.63991 6.25463 3.63991 6.36297 3.74825L6.91856 4.30384C7.0269 4.41218 7.0269 4.58831 6.91856 4.69665C6.86467 4.75054 6.79355 4.77776 6.72244 4.77776Z" fill="white" stroke="white" stroke-width="0.25"/>
<path d="M6.16682 6.44443C6.09571 6.44443 6.02459 6.41721 5.97014 6.36331L4.85896 5.25213C4.75062 5.14379 4.75062 4.96767 4.85896 4.85933C4.9673 4.75099 5.14343 4.75099 5.25177 4.85933L6.36294 5.97051C6.47128 6.07885 6.47128 6.25497 6.36294 6.36331C6.30905 6.41721 6.23794 6.44443 6.16682 6.44443Z" fill="white" stroke="white" stroke-width="0.25"/>
<path d="M4.49942 6.99992C4.4283 6.99992 4.35719 6.9727 4.30274 6.91881L3.74715 6.36322C3.63881 6.25488 3.63881 6.07875 3.74715 5.97042C3.85549 5.86208 4.03161 5.86208 4.13995 5.97042L4.69554 6.526C4.80388 6.63434 4.80388 6.81047 4.69554 6.91881C4.64165 6.9727 4.57053 6.99992 4.49942 6.99992Z" fill="white" stroke="white" stroke-width="0.25"/>
</svg>
