<svg width="16" height="12" viewBox="0 0 16 12" fill="none" xmlns="http://www.w3.org/2000/svg">
<path d="M8.00012 3.49988H10.0002V0.499832C10.0002 0.292829 10.1272 0.107826 10.3202 0.033825C10.5112 -0.0421762 10.7312 0.00982446 10.8702 0.163827L15.8702 5.66391C16.0433 5.85492 16.0433 6.14592 15.8702 6.33692L10.8702 11.837C10.7732 11.942 10.6382 12 10.5002 12C10.4392 12 10.3782 11.989 10.3202 11.967C10.1272 11.892 10.0002 11.707 10.0002 11.5V8.49996H8.95014C5.89209 8.49996 3.01705 9.69098 0.854013 11.854C0.710011 11.998 0.494008 12.04 0.309005 11.962C0.122002 11.885 0 11.702 0 11.5C0 7.08893 3.58906 3.49988 8.00012 3.49988Z" fill="#9292A3"/>
</svg>
