<svg width="14" height="14" viewBox="0 0 14 14" fill="none" xmlns="http://www.w3.org/2000/svg">
<path d="M12.2501 5.99987C12.1861 5.99987 12.1221 5.97537 12.0731 5.92687L8.07313 1.92687C7.97562 1.82937 7.97562 1.67087 8.07313 1.57337C8.17063 1.47587 8.32913 1.47587 8.42663 1.57337L12.4266 5.57337C12.5241 5.67087 12.5241 5.82937 12.4266 5.92687C12.3781 5.97537 12.3141 5.99987 12.2501 5.99987Z" fill="white" stroke="white" stroke-width="0.25"/>
<path d="M1.24951 12.9999C1.18551 12.9999 1.12151 12.9754 1.07251 12.9269C0.975015 12.8294 0.975015 12.6709 1.07251 12.5734L3.07251 10.5734C3.17001 10.4759 3.32851 10.4759 3.42601 10.5734C3.52351 10.6709 3.52351 10.8294 3.42601 10.9269L1.42601 12.9269C1.37751 12.9754 1.31351 12.9999 1.24951 12.9999Z" fill="white" stroke="white" stroke-width="0.25"/>
<path d="M4.50018 11.8354C4.17968 11.8354 3.86018 11.7134 3.61618 11.4699L2.53018 10.3839C2.04268 9.89638 2.04268 9.10338 2.53018 8.61638L8.82317 2.32288C8.92068 2.22538 9.07918 2.22538 9.17668 2.32288C9.27418 2.42038 9.27418 2.57888 9.17668 2.67638L2.88418 8.96938C2.59168 9.26188 2.59168 9.73738 2.88418 10.0299L3.97018 11.1159C4.26218 11.4079 4.73868 11.4079 5.03068 11.1159L11.3232 4.82288C11.4207 4.72538 11.5792 4.72538 11.6767 4.82288C11.7742 4.92038 11.7742 5.07888 11.6767 5.17638L5.38418 11.4694C5.14018 11.7134 4.82068 11.8354 4.50018 11.8354Z" fill="white" stroke="white" stroke-width="0.25"/>
<path d="M10.25 3.99987C10.186 3.99987 10.122 3.97537 10.073 3.92687C9.9755 3.82937 9.9755 3.67087 10.073 3.57337L11.823 1.82337C11.9205 1.72587 12.079 1.72587 12.1765 1.82337C12.274 1.92087 12.274 2.07937 12.1765 2.17687L10.4265 3.92687C10.378 3.97537 10.314 3.99987 10.25 3.99987Z" fill="white" stroke="white" stroke-width="0.25"/>
<path d="M12.7501 2.99987C12.6861 2.99987 12.6221 2.97537 12.5731 2.92687L11.0731 1.42687C10.9756 1.32937 10.9756 1.17087 11.0731 1.07337C11.1706 0.975869 11.3291 0.975869 11.4266 1.07337L12.9266 2.57337C13.0241 2.67087 13.0241 2.82937 12.9266 2.92687C12.8781 2.97537 12.8141 2.99987 12.7501 2.99987Z" fill="white" stroke="white" stroke-width="0.25"/>
<path d="M6.5 10.2499C6.436 10.2499 6.372 10.2254 6.323 10.1769L5.573 9.42687C5.4755 9.32937 5.4755 9.17087 5.573 9.07337C5.6705 8.97587 5.829 8.97587 5.9265 9.07337L6.6765 9.82337C6.774 9.92087 6.774 10.0794 6.6765 10.1769C6.628 10.2254 6.564 10.2499 6.5 10.2499Z" fill="white" stroke="white" stroke-width="0.25"/>
<path d="M8.00012 8.74987C7.93612 8.74987 7.87212 8.72537 7.82312 8.67687L6.57312 7.42687C6.47563 7.32937 6.47563 7.17087 6.57312 7.07337C6.67062 6.97587 6.82912 6.97587 6.92662 7.07337L8.17662 8.32337C8.27412 8.42087 8.27412 8.57937 8.17662 8.67687C8.12812 8.72537 8.06412 8.74987 8.00012 8.74987Z" fill="white" stroke="white" stroke-width="0.25"/>
<path d="M9.5 7.24988C9.436 7.24988 9.372 7.22538 9.323 7.17688L8.573 6.42687C8.4755 6.32937 8.4755 6.17087 8.573 6.07337C8.6705 5.97587 8.829 5.97587 8.9265 6.07337L9.6765 6.82337C9.774 6.92087 9.774 7.07937 9.6765 7.17688C9.628 7.22538 9.564 7.24988 9.5 7.24988Z" fill="white" stroke="white" stroke-width="0.25"/>
</svg>
