<svg width="14" height="8" viewBox="0 0 14 8" fill="none" xmlns="http://www.w3.org/2000/svg">
<path d="M8.28189 8H4.96124V7.59972C5.05144 7.5922 5.18111 7.58093 5.35025 7.56589C5.52314 7.55086 5.64153 7.52831 5.70543 7.49824C5.81818 7.45314 5.90087 7.38548 5.95349 7.29528C6.00611 7.20132 6.03242 7.08104 6.03242 6.93446V4.08739H2.27202V6.87245C2.27202 7.00399 2.29269 7.11487 2.33404 7.20507C2.37914 7.29528 2.46559 7.37421 2.59338 7.44186C2.65727 7.47569 2.77003 7.50951 2.93164 7.54334C3.09702 7.57717 3.22669 7.59596 3.32065 7.59972V8H0V7.59972C0.0902044 7.5922 0.219873 7.58093 0.389006 7.56589C0.561898 7.55086 0.680291 7.52831 0.744186 7.49824C0.856941 7.45314 0.939629 7.38548 0.992248 7.29528C1.04487 7.20132 1.07118 7.08104 1.07118 6.93446V1.16138C1.07118 1.04111 1.04675 0.932112 0.997886 0.83439C0.949025 0.732911 0.864459 0.653982 0.744186 0.597604C0.642706 0.548743 0.518675 0.50552 0.372093 0.467935C0.229269 0.43035 0.105238 0.407799 0 0.400282V0H3.32065V0.400282C3.21541 0.40404 3.08574 0.420954 2.93164 0.451022C2.7813 0.48109 2.66855 0.509279 2.59338 0.535588C2.46559 0.580691 2.37914 0.655861 2.33404 0.761099C2.29269 0.866338 2.27202 0.980973 2.27202 1.105V3.58562H6.03242V1.16138C6.03242 1.04111 6.00799 0.932112 5.95913 0.83439C5.91026 0.732911 5.8257 0.653982 5.70543 0.597604C5.60395 0.548743 5.47992 0.50552 5.33333 0.467935C5.19051 0.43035 5.06648 0.407799 4.96124 0.400282V0H8.28189V0.400282C8.17665 0.40404 8.04698 0.420954 7.89288 0.451022C7.74254 0.48109 7.62979 0.509279 7.55462 0.535588C7.42683 0.580691 7.34038 0.655861 7.29528 0.761099C7.25393 0.866338 7.23326 0.980973 7.23326 1.105V6.87245C7.23326 7.00399 7.25393 7.11487 7.29528 7.20507C7.34038 7.29528 7.42683 7.37421 7.55462 7.44186C7.61851 7.47569 7.73127 7.50951 7.89288 7.54334C8.05826 7.57717 8.18793 7.59596 8.28189 7.59972V8Z" fill="white"/>
<path d="M13.4235 8H9.62368V7.59972C9.73643 7.5922 9.9112 7.57717 10.148 7.55462C10.3885 7.52831 10.5539 7.502 10.6441 7.47569C10.7606 7.4381 10.849 7.37797 10.9091 7.29528C10.973 7.20883 11.0049 7.08104 11.0049 6.91191V2.95419H9.60113V2.48062H9.9112C10.3171 2.48062 10.6798 2.40545 10.9993 2.25511C11.3225 2.10477 11.5537 1.94315 11.6927 1.77026H12.1607C12.1494 2.01456 12.1381 2.30021 12.1268 2.6272C12.1156 2.95419 12.1099 3.24736 12.1099 3.5067V6.84989C12.1099 6.98144 12.1381 7.09984 12.1945 7.20507C12.2546 7.30655 12.3392 7.38172 12.4482 7.43059C12.5459 7.47193 12.7057 7.50951 12.9274 7.54334C13.1492 7.57717 13.3145 7.59596 13.4235 7.59972V8Z" fill="white"/>
</svg>
