<svg width="12" height="14" viewBox="0 0 12 14" fill="none" xmlns="http://www.w3.org/2000/svg">
<path d="M11.3531 3.51719C11.059 2.83888 10.6348 2.22472 10.1047 1.70937C9.5728 1.18937 8.94576 0.776654 8.25781 0.49375C7.54219 0.196875 6.78281 0.046875 6 0.046875C5.21719 0.046875 4.45781 0.196875 3.74219 0.492188C3.05 0.778125 2.42969 1.1875 1.89531 1.70781C1.3655 2.22345 0.941431 2.83753 0.646875 3.51562C0.342187 4.21875 0.1875 4.96562 0.1875 5.73438C0.1875 6.8375 0.451563 7.93594 0.970313 8.99531C1.3875 9.84688 1.97031 10.6766 2.70469 11.4656C3.95938 12.8125 5.275 13.6359 5.64844 13.8562C5.75444 13.9189 5.87533 13.9518 5.99844 13.9516C6.12031 13.9516 6.24062 13.9203 6.34844 13.8562C6.72187 13.6359 8.0375 12.8125 9.29219 11.4656C10.0266 10.6781 10.6094 9.84688 11.0266 8.99531C11.5484 7.9375 11.8125 6.84062 11.8125 5.73594C11.8125 4.96719 11.6578 4.22031 11.3531 3.51719ZM6 12.7531C4.97031 12.0984 1.3125 9.50625 1.3125 5.73594C1.3125 4.51875 1.79844 3.375 2.68125 2.5125C3.56719 1.64844 4.74531 1.17188 6 1.17188C7.25469 1.17188 8.43281 1.64844 9.31875 2.51406C10.2016 3.375 10.6875 4.51875 10.6875 5.73594C10.6875 9.50625 7.02969 12.0984 6 12.7531ZM6 3.10938C4.48125 3.10938 3.25 4.34062 3.25 5.85938C3.25 7.37813 4.48125 8.60938 6 8.60938C7.51875 8.60938 8.75 7.37813 8.75 5.85938C8.75 4.34062 7.51875 3.10938 6 3.10938ZM7.2375 7.09688C7.07519 7.25965 6.8823 7.38873 6.66992 7.47668C6.45754 7.56464 6.22987 7.60973 6 7.60938C5.53281 7.60938 5.09375 7.42656 4.7625 7.09688C4.59972 6.93457 4.47065 6.74167 4.38269 6.5293C4.29474 6.31692 4.24964 6.08924 4.25 5.85938C4.25 5.39219 4.43281 4.95312 4.7625 4.62187C5.09375 4.29062 5.53281 4.10938 6 4.10938C6.46719 4.10938 6.90625 4.29062 7.2375 4.62187C7.56875 4.95312 7.75 5.39219 7.75 5.85938C7.75 6.32656 7.56875 6.76562 7.2375 7.09688Z" fill="white"/>
</svg>
