<svg width="14" height="8" viewBox="0 0 14 8" fill="none" xmlns="http://www.w3.org/2000/svg">
<path d="M0.875 1.125H8.625C8.69375 1.125 8.75 1.06875 8.75 1V0.125C8.75 0.05625 8.69375 0 8.625 0H0.875C0.80625 0 0.75 0.05625 0.75 0.125V1C0.75 1.06875 0.80625 1.125 0.875 1.125ZM0.875 7.75H8.625C8.69375 7.75 8.75 7.69375 8.75 7.625V6.75C8.75 6.68125 8.69375 6.625 8.625 6.625H0.875C0.80625 6.625 0.75 6.68125 0.75 6.75V7.625C0.75 7.69375 0.80625 7.75 0.875 7.75ZM13.125 3.3125H0.875C0.80625 3.3125 0.75 3.36875 0.75 3.4375V4.3125C0.75 4.38125 0.80625 4.4375 0.875 4.4375H13.125C13.1938 4.4375 13.25 4.38125 13.25 4.3125V3.4375C13.25 3.36875 13.1938 3.3125 13.125 3.3125Z" fill="white"/>
</svg>
