<svg width="14" height="12" viewBox="0 0 14 12" fill="none" xmlns="http://www.w3.org/2000/svg">
<path d="M0.875 1.59375H8.625C8.69375 1.59375 8.75 1.5375 8.75 1.46875V0.59375C8.75 0.525 8.69375 0.46875 8.625 0.46875H0.875C0.80625 0.46875 0.75 0.525 0.75 0.59375V1.46875C0.75 1.5375 0.80625 1.59375 0.875 1.59375ZM0.875 8.21875H8.625C8.69375 8.21875 8.75 8.1625 8.75 8.09375V7.21875C8.75 7.15 8.69375 7.09375 8.625 7.09375H0.875C0.80625 7.09375 0.75 7.15 0.75 7.21875V8.09375C0.75 8.1625 0.80625 8.21875 0.875 8.21875ZM13.125 10.4062H0.875C0.80625 10.4062 0.75 10.4625 0.75 10.5312V11.4062C0.75 11.475 0.80625 11.5312 0.875 11.5312H13.125C13.1938 11.5312 13.25 11.475 13.25 11.4062V10.5312C13.25 10.4625 13.1938 10.4062 13.125 10.4062ZM13.125 3.78125H0.875C0.80625 3.78125 0.75 3.8375 0.75 3.90625V4.78125C0.75 4.85 0.80625 4.90625 0.875 4.90625H13.125C13.1938 4.90625 13.25 4.85 13.25 4.78125V3.90625C13.25 3.8375 13.1938 3.78125 13.125 3.78125Z" fill="white"/>
</svg>
