<svg width="16" height="16" viewBox="0 0 16 16" fill="none" xmlns="http://www.w3.org/2000/svg">
<path d="M6.4375 6.9375H6.9375V6.4375V3.3125V2.8125H6.4375H3.3125H2.8125V3.3125V6.4375V6.9375H3.3125H6.4375ZM12.6875 6.9375H13.1875V6.4375V3.3125V2.8125H12.6875H9.5625H9.0625V3.3125V6.4375V6.9375H9.5625H12.6875ZM6.4375 13.1875H6.9375V12.6875V9.5625V9.0625H6.4375H3.3125H2.8125V9.5625V12.6875V13.1875H3.3125H6.4375ZM12.6875 13.1875H13.1875V12.6875V9.5625V9.0625H12.6875H9.5625H9.0625V9.5625V12.6875V13.1875H9.5625H12.6875ZM2.75 2.75H7V7H2.75V2.75ZM9 2.75H13.25V7H9V2.75ZM2.75 9H7V13.25H2.75V9ZM9 9H13.25V13.25H9V9Z" fill="white" stroke="white"/>
</svg>
