<svg width="12" height="12" viewBox="0 0 12 12" fill="none" xmlns="http://www.w3.org/2000/svg">
<path d="M10.3227 2.40829C10.2323 2.40829 10.1423 2.37629 10.0703 2.3103C8.96686 1.30438 7.55098 0.750426 6.0831 0.750426C4.61522 0.750426 3.19934 1.30438 2.09593 2.3108C1.94244 2.45029 1.70546 2.43879 1.56597 2.2863C1.42648 2.13331 1.43748 1.89583 1.59047 1.75634C2.83287 0.623937 4.42824 0.000488281 6.0831 0.000488281C7.73796 0.000488281 9.33333 0.623937 10.5757 1.75634C10.7287 1.89583 10.7397 2.13281 10.6002 2.2863C10.5262 2.36729 10.4247 2.40829 10.3227 2.40829Z" fill="white"/>
<path d="M10.9581 4.85874C10.8376 4.85874 10.7186 4.80074 10.6466 4.69275C9.60569 3.14288 7.89983 2.21746 6.08348 2.21746C4.26714 2.21746 2.56128 3.14288 1.52036 4.69275C1.40487 4.86524 1.17139 4.91123 0.999905 4.79524C0.82792 4.67975 0.781923 4.44677 0.897414 4.27479C2.07782 2.51743 4.01666 1.46802 6.08348 1.46802C8.15031 1.46802 10.0892 2.51743 11.2696 4.27529C11.385 4.44727 11.3395 4.68025 11.1671 4.79574C11.1031 4.83824 11.0306 4.85874 10.9581 4.85874Z" fill="white"/>
<path d="M4.89884 11.9995C4.80235 11.9995 4.70586 11.9625 4.63236 11.8885C4.55037 11.806 2.62903 9.84465 2.62903 7.95631C2.62903 5.99647 4.1784 4.4021 6.08324 4.4021C7.98809 4.4021 9.53746 5.99647 9.53746 7.95631C9.53746 8.16329 9.36947 8.33127 9.16249 8.33127C8.95551 8.33127 8.78752 8.16329 8.78752 7.95631C8.78752 6.40993 7.57462 5.15204 6.08324 5.15204C4.59187 5.15204 3.37897 6.40993 3.37897 7.95631C3.37897 9.53967 5.14732 11.3425 5.16532 11.3605C5.31131 11.5075 5.31031 11.745 5.16282 11.891C5.08983 11.9635 4.99433 11.9995 4.89884 11.9995Z" fill="white"/>
<path d="M7.26788 11.9996C6.36596 11.9996 4.27513 10.2837 4.07265 8.37286C4.00115 7.69742 4.21614 7.00648 4.6471 6.52452C5.02207 6.10555 5.52853 5.87307 6.07298 5.87007H6.08348C6.61444 5.87007 7.1164 6.07855 7.49837 6.45802C7.89733 6.85449 8.11681 7.38694 8.11681 7.9569V8.20138C8.11681 8.80383 8.58578 9.29379 9.16273 9.29379C9.73968 9.29379 10.2091 8.80383 10.2091 8.20138V8.11588C10.2091 5.78108 8.51778 3.83874 6.35846 3.69475C5.23255 3.61826 4.15264 4.00722 3.31921 4.78616C2.45428 5.59509 1.95832 6.751 1.95832 7.9569C1.95832 8.94882 2.2943 9.91524 2.90425 10.6782C3.03323 10.8402 3.00724 11.0756 2.84525 11.2051C2.68376 11.3346 2.44778 11.3081 2.31779 11.1461C1.60235 10.2507 1.20789 9.1178 1.20789 7.9564C1.20789 6.54351 1.79084 5.18813 2.80625 4.23821C3.79267 3.31528 5.07157 2.85632 6.40746 2.94581C8.95924 3.1163 10.9586 5.38711 10.9586 8.11539V8.20088C10.9586 9.21679 10.1526 10.0432 9.16223 10.0432C8.17181 10.0432 7.36638 9.21679 7.36638 8.20088V7.9564C7.36638 7.58743 7.22539 7.24446 6.96941 6.98948C6.72943 6.7505 6.41495 6.61951 6.08348 6.61951C6.08098 6.61951 6.07898 6.61951 6.07648 6.61951C5.65402 6.62151 5.36954 6.84099 5.20556 7.02448C4.91308 7.35095 4.76809 7.82591 4.81759 8.29387C4.98307 9.85274 6.77443 11.2501 7.26738 11.2501C7.47437 11.2501 7.64235 11.4181 7.64235 11.6251C7.64235 11.8321 7.47487 11.9996 7.26788 11.9996Z" fill="white"/>
<path d="M8.6592 11.2658C7.31731 11.2658 5.67896 9.62598 5.67896 7.71164C5.67896 7.50466 5.84694 7.33667 6.05392 7.33667C6.2609 7.33667 6.42889 7.50466 6.42889 7.71164C6.42889 9.19552 7.67628 10.5159 8.6592 10.5159C8.86618 10.5159 9.03417 10.6839 9.03417 10.8909C9.03417 11.0979 8.86618 11.2658 8.6592 11.2658Z" fill="white"/>
</svg>
