<svg xmlns="http://www.w3.org/2000/svg" fill="none" viewBox="0 0 24 24" height="24" width="24">
<rect fill="#7B61E2" rx="6" height="24" width="24"></rect>
<path fill="white" d="M18.5 6.5H5.5C5.22344 6.5 5 6.72344 5 7V17C5 17.2766 5.22344 17.5 5.5 17.5H18.5C18.7766 17.5 19 17.2766 19 17V7C19 6.72344 18.7766 6.5 18.5 6.5ZM17.875 8.23125V16.375H6.125V8.23125L5.69375 7.89531L6.30781 7.10625L6.97656 7.62656H17.025L17.6938 7.10625L18.3078 7.89531L17.875 8.23125ZM17.025 7.625L12 11.5312L6.975 7.625L6.30625 7.10469L5.69219 7.89375L6.12344 8.22969L11.4609 12.3797C11.6144 12.4989 11.8033 12.5637 11.9977 12.5637C12.192 12.5637 12.3809 12.4989 12.5344 12.3797L17.875 8.23125L18.3062 7.89531L17.6922 7.10625L17.025 7.625Z"></path>
</svg>
