<svg width="24" height="24" viewBox="0 0 24 24" fill="none" xmlns="http://www.w3.org/2000/svg">
<rect width="24" height="24" rx="6" fill="#65CD98"/>
<path d="M17.875 16.375H7.125V6.625C7.125 6.55625 7.06875 6.5 7 6.5H6.125C6.05625 6.5 6 6.55625 6 6.625V17.375C6 17.4438 6.05625 17.5 6.125 17.5H17.875C17.9438 17.5 18 17.4438 18 17.375V16.5C18 16.4312 17.9438 16.375 17.875 16.375ZM8.77812 13.9641C8.82656 14.0125 8.90469 14.0125 8.95469 13.9641L11.1156 11.8141L13.1094 13.8203C13.1578 13.8688 13.2375 13.8688 13.2859 13.8203L17.5891 9.51875C17.6375 9.47031 17.6375 9.39062 17.5891 9.34219L16.9703 8.72344C16.9468 8.70017 16.9151 8.68712 16.882 8.68712C16.849 8.68712 16.8172 8.70017 16.7937 8.72344L13.2 12.3156L11.2094 10.3125C11.1859 10.2892 11.1542 10.2762 11.1211 10.2762C11.088 10.2762 11.0563 10.2892 11.0328 10.3125L8.16094 13.1672C8.13767 13.1907 8.12462 13.2224 8.12462 13.2555C8.12462 13.2885 8.13767 13.3203 8.16094 13.3438L8.77812 13.9641Z" fill="white"/>
</svg>
