<svg width="288" height="288" viewBox="0 0 288 288" fill="none" xmlns="http://www.w3.org/2000/svg">
<path d="M259.978 161.096C259.786 160.094 259.584 159.103 259.373 158.124C254.097 133.304 243.469 107.672 224.525 90.1559C216.317 82.5815 206.392 76.7927 195.333 74.7076C181.832 72.1674 167.795 75.6868 155.388 81.6196C142.98 87.5524 131.846 95.7431 120.349 103.266C112.925 108.121 105.074 112.798 96.313 114.21C85.824 115.897 75.0931 112.729 64.512 113.737C47.9232 115.316 33.3043 127.688 27.3254 143.246C21.3465 158.804 23.5123 176.861 31.392 191.549C39.2717 206.237 52.416 217.677 67.2998 225.216C87.8918 235.677 112.228 238.948 134.634 233.28C145.578 230.516 156.142 225.677 167.409 225.476C181.382 225.228 194.481 232.14 208.305 234.052C221.299 235.844 235.158 232.9 245.497 224.836C264.672 209.86 264.131 182.673 259.978 161.096Z" fill="#24BEE1"/>
<path opacity="0.7" d="M259.978 161.096C259.786 160.094 259.584 159.103 259.373 158.124C254.097 133.304 243.469 107.672 224.525 90.1559C216.317 82.5815 206.392 76.7927 195.333 74.7076C181.832 72.1674 167.795 75.6868 155.388 81.6196C142.98 87.5524 131.846 95.7431 120.349 103.266C112.925 108.121 105.074 112.798 96.313 114.21C85.824 115.897 75.0931 112.729 64.512 113.737C47.9232 115.316 33.3043 127.688 27.3254 143.246C21.3465 158.804 23.5123 176.861 31.392 191.549C39.2717 206.237 52.416 217.677 67.2998 225.216C87.8918 235.677 112.228 238.948 134.634 233.28C145.578 230.516 156.142 225.677 167.409 225.476C181.382 225.228 194.481 232.14 208.305 234.052C221.299 235.844 235.158 232.9 245.497 224.836C264.672 209.86 264.131 182.673 259.978 161.096Z" fill="white"/>
<path d="M219.577 100.224C217.705 99.1989 216.853 100.051 216.173 99.1989C215.493 98.3464 218.045 96.1345 212.936 93.9227C212.936 93.9227 212.596 89.1534 205.615 88.9864C198.634 88.8193 200.506 93.7499 198.634 94.9422C196.762 96.1345 196.249 94.2625 194.377 95.4549C192.505 96.6472 193.358 99.0318 191.826 99.3717C190.293 99.7115 188.249 97.8395 186.377 99.0318C184.505 100.224 184.505 101.244 183.652 101.244C182.8 101.244 181.095 100.564 180.075 101.244C179.056 101.923 177.863 102.776 177.863 102.776H220.942C220.942 102.776 221.449 101.215 219.577 100.224Z" fill="white"/>
<path opacity="0.5" d="M219.577 100.224C217.705 99.1989 216.853 100.051 216.173 99.1989C215.493 98.3464 218.045 96.1345 212.936 93.9227C212.936 93.9227 212.596 89.1534 205.615 88.9864C198.634 88.8193 200.506 93.7499 198.634 94.9422C196.762 96.1345 196.249 94.2625 194.377 95.4549C192.505 96.6472 193.358 99.0318 191.826 99.3717C190.293 99.7115 188.249 97.8395 186.377 99.0318C184.505 100.224 184.505 101.244 183.652 101.244C182.8 101.244 181.095 100.564 180.075 101.244C179.056 101.923 177.863 102.776 177.863 102.776H220.942C220.942 102.776 221.449 101.215 219.577 100.224Z" fill="white"/>
<path d="M146.62 213.12C144.742 212.095 143.896 212.947 143.21 212.095C142.525 211.242 145.082 209.031 139.979 206.819C139.979 206.819 139.639 202.049 132.658 201.882C125.677 201.715 127.549 206.646 125.677 207.838C123.805 209.031 123.292 207.159 121.42 208.351C119.548 209.543 120.395 211.928 118.863 212.268C117.33 212.607 115.286 210.735 113.414 211.928C111.542 213.12 111.542 214.14 110.689 214.14C109.837 214.14 108.138 213.46 107.112 214.14C106.087 214.819 104.9 215.672 104.9 215.672H147.979C147.979 215.672 148.492 214.111 146.62 213.12Z" fill="white"/>
<path opacity="0.5" d="M146.62 213.12C144.742 212.095 143.896 212.947 143.21 212.095C142.525 211.242 145.082 209.031 139.979 206.819C139.979 206.819 139.639 202.049 132.658 201.882C125.677 201.715 127.549 206.646 125.677 207.838C123.805 209.031 123.292 207.159 121.42 208.351C119.548 209.543 120.395 211.928 118.863 212.268C117.33 212.607 115.286 210.735 113.414 211.928C111.542 213.12 111.542 214.14 110.689 214.14C109.837 214.14 108.138 213.46 107.112 214.14C106.087 214.819 104.9 215.672 104.9 215.672H147.979C147.979 215.672 148.492 214.111 146.62 213.12Z" fill="white"/>
<path d="M111.813 194.112C108.881 192.516 107.551 193.847 106.485 192.516C105.42 191.186 109.411 187.718 101.422 184.257C101.422 184.257 100.892 176.797 89.9655 176.532C79.0387 176.267 81.9763 183.992 79.0215 185.858C76.0666 187.724 75.2947 184.792 72.3629 186.653C69.4311 188.513 70.7616 192.251 68.3655 192.781C65.9693 193.311 62.7725 190.385 59.8407 192.251C56.9088 194.118 56.9088 195.707 55.5783 195.707C54.2477 195.707 51.5808 194.642 49.9853 195.707C48.3898 196.773 46.5293 198.104 46.5293 198.104H113.921C113.921 198.104 114.739 195.73 111.813 194.112Z" fill="white"/>
<path opacity="0.5" d="M111.813 194.112C108.881 192.516 107.551 193.847 106.485 192.516C105.42 191.186 109.411 187.718 101.422 184.257C101.422 184.257 100.892 176.797 89.9655 176.532C79.0387 176.267 81.9763 183.992 79.0215 185.858C76.0666 187.724 75.2947 184.792 72.3629 186.653C69.4311 188.513 70.7616 192.251 68.3655 192.781C65.9693 193.311 62.7725 190.385 59.8407 192.251C56.9088 194.118 56.9088 195.707 55.5783 195.707C54.2477 195.707 51.5808 194.642 49.9853 195.707C48.3898 196.773 46.5293 198.104 46.5293 198.104H113.921C113.921 198.104 114.739 195.73 111.813 194.112Z" fill="white"/>
<path d="M142.571 41.2242C122.462 41.2242 106.11 55.8949 105.54 74.1829L89.6938 82.8632L81.3648 74.949L69.3379 93.2082L60.9629 92.8511L65.2599 109.515L65.6343 95.8002L71.5613 96.9119L81.3533 86.6072L91.3469 94.5215L107.008 84.7295C111.524 98.8069 125.723 109.094 142.559 109.094C163.024 109.094 179.619 93.8994 179.619 75.1563C179.619 56.4133 163.036 41.2242 142.571 41.2242Z" fill="#263238"/>
<path fill-rule="evenodd" clip-rule="evenodd" d="M105.258 74.0092C105.927 55.621 122.391 40.9362 142.571 40.9362C163.171 40.9362 179.908 56.231 179.908 75.1563C179.908 94.0818 163.16 109.382 142.56 109.382C125.749 109.382 111.529 99.1942 106.85 85.1687L91.5005 94.7657C91.3972 94.8302 91.2645 94.8229 91.169 94.7473L81.3817 86.9964L71.771 97.1103C71.7037 97.1811 71.6051 97.2129 71.5091 97.1949L65.9138 96.1455L65.5486 109.523C65.5447 109.666 65.4357 109.785 65.2931 109.801C65.1504 109.817 65.0177 109.726 64.9819 109.587L60.6849 92.923C60.6621 92.8347 60.6825 92.7408 60.7399 92.6699C60.7973 92.599 60.8849 92.5594 60.9761 92.5633L69.1881 92.9135L81.1252 74.7906C81.1721 74.7194 81.2482 74.6726 81.3329 74.6629C81.4176 74.6531 81.5023 74.6815 81.5641 74.7402L89.7407 82.5097L105.258 74.0092ZM142.571 41.5122C122.596 41.5122 106.393 56.081 105.828 74.1919C105.825 74.2938 105.768 74.3865 105.679 74.4355L89.833 83.1158C89.7232 83.176 89.5871 83.1583 89.4963 83.072L81.4169 75.3949L69.5793 93.3666C69.5237 93.4512 69.4277 93.5002 69.3266 93.4959L61.3397 93.1554L65.0287 107.461L65.3473 95.7923C65.3496 95.7081 65.3887 95.629 65.4543 95.5761C65.5199 95.5231 65.6054 95.5016 65.6882 95.5171L71.4613 96.5999L81.1454 86.4088C81.2481 86.3008 81.4162 86.2889 81.533 86.3815L91.3673 94.1696L106.857 84.4853C106.932 84.4382 107.025 84.4285 107.108 84.459C107.192 84.4896 107.256 84.5569 107.283 84.6415C111.758 98.59 125.838 108.806 142.56 108.806C162.891 108.806 179.332 93.717 179.332 75.1563C179.332 56.5957 162.902 41.5122 142.571 41.5122Z" fill="#263238"/>
<path d="M175.398 53.0958H108.548C106.693 53.0958 105.189 54.5993 105.189 56.4539V94.493C105.189 96.3476 106.693 97.851 108.548 97.851H175.398C177.253 97.851 178.756 96.3476 178.756 94.493V56.4539C178.756 54.5993 177.253 53.0958 175.398 53.0958Z" fill="#24BEE1"/>
<path fill-rule="evenodd" clip-rule="evenodd" d="M108.547 53.6718C107.011 53.6718 105.765 54.9174 105.765 56.4539V94.4929C105.765 96.0294 107.011 97.275 108.547 97.275H175.398C176.934 97.275 178.18 96.0294 178.18 94.4929V56.4539C178.18 54.9174 176.934 53.6718 175.398 53.6718H108.547ZM104.613 56.4539C104.613 54.2812 106.375 52.5198 108.547 52.5198H175.398C177.571 52.5198 179.332 54.2812 179.332 56.4539V94.4929C179.332 96.6657 177.571 98.427 175.398 98.427H108.547C106.375 98.427 104.613 96.6657 104.613 94.4929V56.4539Z" fill="#263238"/>
<path d="M144.91 74.3559L178.756 57.2314V56.448C178.756 55.5574 178.402 54.7033 177.773 54.0735C177.143 53.4438 176.289 53.09 175.398 53.09H108.548C107.657 53.09 106.803 53.4438 106.173 54.0735C105.543 54.7033 105.189 55.5574 105.189 56.448V57.3754L138.419 74.4308C139.432 74.9235 140.547 75.1733 141.674 75.1603C142.8 75.1473 143.909 74.8719 144.91 74.3559Z" fill="white"/>
<path fill-rule="evenodd" clip-rule="evenodd" d="M105.766 53.6662C106.503 52.9284 107.504 52.5139 108.547 52.5139H175.398C176.441 52.5139 177.442 52.9284 178.18 53.6662C178.918 54.404 179.332 55.4046 179.332 56.448V57.2314C179.332 57.4486 179.21 57.6473 179.016 57.7453L145.174 74.8679C145.173 74.8683 145.173 74.8686 145.172 74.8689C144.091 75.4253 142.896 75.7222 141.68 75.7362C140.464 75.7503 139.261 75.4807 138.167 74.9488L138.156 74.9432L104.926 57.8878C104.734 57.7892 104.613 57.5914 104.613 57.3754V56.448C104.613 55.4046 105.028 54.404 105.766 53.6662ZM144.91 74.3559L144.65 73.8419L178.18 56.8773V56.448C178.18 55.7102 177.887 55.0025 177.365 54.4808C176.843 53.9591 176.136 53.6659 175.398 53.6659H108.547C107.81 53.6659 107.102 53.9591 106.58 54.4808C106.058 55.0025 105.765 55.7102 105.765 56.448V57.0236L138.676 73.9154C139.608 74.3673 140.631 74.5963 141.667 74.5843C142.704 74.5724 143.724 74.3188 144.646 73.8438L144.91 74.3559Z" fill="#263238"/>
<path d="M177.457 69.7672C181.574 69.0961 184.366 65.2153 183.695 61.0992C183.024 56.983 179.143 54.1902 175.027 54.8613C170.911 55.5324 168.118 59.4132 168.789 63.5294C169.46 67.6456 173.341 70.4383 177.457 69.7672Z" fill="#263238"/>
<path d="M175.789 66.6604C175.596 66.4242 175.499 66.1238 175.518 65.8194V59.0975L174.194 59.9039C174.09 59.9733 173.967 60.0094 173.842 60.0076C173.754 60.0096 173.667 59.9915 173.587 59.9545C173.507 59.9176 173.437 59.8628 173.381 59.7944C173.318 59.7298 173.268 59.6533 173.235 59.5692C173.201 59.4852 173.184 59.3953 173.186 59.3048C173.188 59.1856 173.222 59.0691 173.285 58.9677C173.348 58.8663 173.437 58.7838 173.543 58.7288L175.956 57.3061C176.129 57.1965 176.328 57.1349 176.532 57.1276C176.658 57.124 176.782 57.1486 176.897 57.1994C177.011 57.2503 177.113 57.3261 177.195 57.4213C177.376 57.6585 177.466 57.9528 177.448 58.2508V65.8655C177.462 66.157 177.366 66.4432 177.177 66.6661C177.091 66.7634 176.984 66.8406 176.865 66.8923C176.745 66.9441 176.616 66.9691 176.486 66.9656C176.354 66.9722 176.223 66.948 176.102 66.8951C175.981 66.8421 175.874 66.7617 175.789 66.6604Z" fill="#24BEE1"/>
<path d="M105.695 162.294C105.695 162.294 128.447 196.566 133.919 197.142C139.391 197.718 156.671 179.862 156.671 179.862L151.775 178.71L135.469 189.734C135.469 189.734 121.535 172.627 109.29 159.552L105.695 162.294Z" fill="white"/>
<path fill-rule="evenodd" clip-rule="evenodd" d="M108.94 159.094C109.175 158.915 109.508 158.942 109.71 159.158C115.842 165.706 122.394 173.26 127.41 179.174C129.919 182.131 132.045 184.68 133.544 186.49C134.293 187.394 134.886 188.114 135.291 188.608C135.402 188.744 135.499 188.862 135.582 188.963L151.452 178.233C151.586 178.142 151.75 178.112 151.907 178.149L156.803 179.301C157.005 179.349 157.165 179.501 157.224 179.7C157.282 179.898 157.229 180.113 157.085 180.262L156.671 179.862C157.085 180.262 157.085 180.262 157.085 180.262L157.072 180.276L157.034 180.315C157.001 180.349 156.952 180.399 156.887 180.465C156.758 180.597 156.569 180.789 156.327 181.033C155.842 181.522 155.143 182.22 154.288 183.055C152.578 184.724 150.239 186.946 147.727 189.151C145.218 191.353 142.523 193.55 140.102 195.164C138.892 195.97 137.737 196.641 136.697 197.093C135.673 197.538 134.693 197.802 133.859 197.715C133.393 197.666 132.898 197.448 132.402 197.148C131.897 196.843 131.345 196.423 130.758 195.914C129.584 194.898 128.227 193.49 126.768 191.835C123.849 188.522 120.481 184.168 117.291 179.844C114.1 175.517 111.082 171.209 108.861 167.984C107.751 166.372 106.839 165.029 106.206 164.09C105.889 163.62 105.641 163.251 105.473 162.999C105.389 162.873 105.324 162.777 105.281 162.711L105.215 162.613C105.215 162.612 105.215 162.612 105.695 162.294L105.215 162.613C105.048 162.36 105.104 162.02 105.346 161.836L108.94 159.094ZM106.474 162.424C106.64 162.671 106.871 163.016 107.161 163.445C107.793 164.382 108.702 165.722 109.81 167.331C112.026 170.55 115.037 174.847 118.219 179.16C121.401 183.475 124.747 187.798 127.633 191.073C129.077 192.712 130.395 194.076 131.512 195.044C132.071 195.528 132.569 195.903 132.998 196.163C133.437 196.428 133.761 196.546 133.979 196.569C134.513 196.625 135.27 196.457 136.238 196.036C137.191 195.622 138.283 194.992 139.463 194.205C141.821 192.633 144.472 190.474 146.967 188.285C149.459 186.098 151.782 183.891 153.483 182.231C154.333 181.401 155.028 180.707 155.509 180.222C155.52 180.211 155.532 180.199 155.543 180.188L151.889 179.328L135.791 190.212C135.544 190.379 135.21 190.329 135.022 190.098L135.468 189.734C135.022 190.098 135.022 190.098 135.022 190.098L134.863 189.904C134.758 189.775 134.603 189.586 134.401 189.339C133.996 188.846 133.405 188.128 132.656 187.224C131.16 185.418 129.037 182.873 126.532 179.919C121.617 174.125 115.235 166.764 109.224 160.326L106.474 162.424Z" fill="#263238"/>
<path d="M109.744 152.064C109.744 152.064 114.306 152.26 114.11 154.247C113.914 156.234 114.11 161.591 112.918 162.587C111.725 163.584 109.94 163.976 109.542 162.011C109.145 160.047 109.744 152.064 109.744 152.064Z" fill="white"/>
<path fill-rule="evenodd" clip-rule="evenodd" d="M109.771 151.489L109.746 152.064L109.171 152.021C109.195 151.711 109.46 151.475 109.771 151.489ZM110.279 152.685C110.266 152.878 110.25 153.112 110.233 153.379C110.183 154.156 110.121 155.211 110.071 156.327C110.022 157.444 109.984 158.616 109.984 159.629C109.984 160.659 110.022 161.471 110.109 161.897C110.191 162.305 110.332 162.527 110.463 162.648C110.588 162.764 110.748 162.827 110.954 162.834C111.402 162.85 112.012 162.596 112.55 162.146C112.605 162.1 112.688 161.996 112.779 161.791C112.867 161.591 112.948 161.332 113.02 161.016C113.162 160.385 113.253 159.594 113.315 158.747C113.376 157.904 113.407 157.027 113.435 156.228L113.436 156.195C113.463 155.419 113.488 154.703 113.539 154.191C113.561 153.96 113.467 153.752 113.168 153.53C112.855 153.296 112.386 153.109 111.854 152.967C111.332 152.828 110.798 152.745 110.389 152.698C110.351 152.693 110.315 152.689 110.279 152.685ZM113.856 152.606C114.358 152.979 114.76 153.54 114.685 154.304C114.638 154.778 114.614 155.463 114.586 156.269C114.559 157.064 114.527 157.962 114.464 158.831C114.401 159.696 114.305 160.555 114.143 161.27C114.062 161.629 113.961 161.966 113.832 162.258C113.704 162.545 113.533 162.826 113.289 163.029C112.635 163.576 111.756 164.015 110.913 163.985C110.475 163.97 110.039 163.825 109.68 163.493C109.327 163.166 109.096 162.701 108.98 162.126C108.867 161.57 108.832 160.647 108.832 159.628C108.832 158.592 108.87 157.4 108.921 156.275C108.971 155.15 109.033 154.087 109.084 153.305C109.109 152.914 109.131 152.594 109.146 152.37C109.154 152.259 109.16 152.172 109.165 152.112L109.171 152.021C109.171 152.021 109.171 152.021 109.746 152.064C109.771 151.489 109.77 151.489 109.771 151.489L109.772 151.489L109.776 151.489L109.788 151.489C109.798 151.49 109.812 151.491 109.83 151.492C109.866 151.494 109.919 151.497 109.984 151.502C110.115 151.512 110.301 151.528 110.522 151.553C110.963 151.605 111.556 151.695 112.151 151.854C112.735 152.009 113.369 152.243 113.856 152.606Z" fill="#263238"/>
<path d="M108.553 161.412C108.553 161.412 108.351 167.368 107.977 167.962C107.602 168.555 104.797 170.744 103.011 170.346C101.226 169.949 101.819 168.163 101.819 167.172V151.488H108.57L108.553 161.412Z" fill="#263238"/>
<path fill-rule="evenodd" clip-rule="evenodd" d="M101.532 151.488C101.532 151.329 101.661 151.2 101.82 151.2H108.571C108.647 151.2 108.721 151.23 108.775 151.284C108.829 151.339 108.859 151.412 108.859 151.488L108.841 161.413L108.841 161.422L108.553 161.412C108.841 161.422 108.841 161.422 108.841 161.422L108.839 161.49C108.837 161.534 108.835 161.598 108.832 161.68C108.826 161.845 108.816 162.08 108.804 162.365C108.779 162.934 108.742 163.698 108.693 164.482C108.645 165.266 108.584 166.071 108.512 166.72C108.476 167.044 108.436 167.333 108.393 167.563C108.371 167.678 108.348 167.782 108.322 167.87C108.298 167.953 108.267 168.043 108.221 168.115C108.1 168.306 107.822 168.58 107.478 168.863C107.123 169.154 106.669 169.48 106.17 169.774C105.672 170.067 105.121 170.333 104.573 170.5C104.028 170.666 103.463 170.742 102.95 170.627C102.453 170.517 102.094 170.302 101.85 170.004C101.609 169.71 101.502 169.36 101.461 169.016C101.419 168.675 101.44 168.321 101.468 168.005C101.476 167.918 101.484 167.836 101.492 167.757C101.513 167.535 101.532 167.342 101.532 167.172V151.488ZM108.266 161.407L108.282 151.776H102.108V167.172C102.108 167.373 102.085 167.607 102.063 167.837C102.056 167.911 102.048 167.984 102.042 168.056C102.015 168.366 101.999 168.669 102.033 168.947C102.066 169.224 102.146 169.457 102.296 169.639C102.443 169.819 102.679 169.977 103.075 170.065C103.454 170.149 103.91 170.1 104.405 169.949C104.897 169.799 105.405 169.556 105.878 169.277C106.35 168.999 106.779 168.691 107.112 168.418C107.454 168.136 107.667 167.913 107.734 167.808C107.733 167.809 107.737 167.803 107.744 167.784C107.751 167.767 107.76 167.742 107.769 167.71C107.788 167.646 107.807 167.561 107.827 167.457C107.866 167.247 107.904 166.974 107.939 166.656C108.01 166.021 108.07 165.227 108.118 164.447C108.167 163.667 108.204 162.906 108.228 162.34C108.241 162.057 108.25 161.822 108.256 161.659C108.259 161.577 108.262 161.513 108.263 161.469L108.266 161.407Z" fill="#263238"/>
<path d="M99.2223 163.584C99.2223 163.584 97.8342 166.164 99.0207 168.152C100.207 170.139 103.588 170.139 104.982 169.142C106.376 168.146 105.374 166.763 104.187 166.366C103.001 165.969 101.405 164.972 101.405 163.786C101.405 162.599 99.8156 162.801 99.2223 163.584Z" fill="white"/>
<path fill-rule="evenodd" clip-rule="evenodd" d="M101.522 162.706C101.829 162.969 101.981 163.351 101.981 163.786C101.981 164.117 102.214 164.515 102.716 164.926C103.199 165.321 103.83 165.639 104.37 165.82C105.082 166.058 105.778 166.599 106.081 167.301C106.238 167.665 106.293 168.084 106.164 168.511C106.036 168.936 105.743 169.306 105.317 169.611C104.471 170.216 103.123 170.472 101.863 170.339C100.596 170.204 99.2474 169.655 98.5259 168.447C97.8237 167.271 97.9012 165.955 98.1141 164.998C98.2222 164.512 98.37 164.095 98.4906 163.8C98.5511 163.652 98.6053 163.533 98.6452 163.45C98.6652 163.408 98.6817 163.375 98.6936 163.352C98.6995 163.34 98.7044 163.331 98.708 163.324L98.7124 163.316L98.7139 163.313L98.7144 163.312L98.7146 163.311C98.7147 163.311 98.7148 163.311 99.2221 163.584L98.7148 163.311C98.7289 163.285 98.745 163.26 98.7629 163.236C99.1774 162.689 99.8994 162.37 100.536 162.37C100.864 162.37 101.23 162.455 101.522 162.706ZM99.7083 163.898C99.7017 163.912 99.6936 163.928 99.6843 163.947C99.6529 164.013 99.608 164.111 99.5569 164.236C99.4543 164.487 99.3292 164.84 99.2386 165.248C99.054 166.078 99.0308 167.045 99.515 167.856C99.9801 168.635 100.915 169.08 101.984 169.193C103.06 169.307 104.099 169.066 104.647 168.674C104.918 168.48 105.023 168.305 105.062 168.177C105.099 168.052 105.091 167.914 105.024 167.758C104.878 167.421 104.479 167.071 104.004 166.912C103.358 166.696 102.597 166.317 101.987 165.818C101.394 165.334 100.829 164.641 100.829 163.786C100.829 163.629 100.783 163.59 100.773 163.581L100.773 163.581C100.748 163.56 100.68 163.522 100.536 163.522C100.244 163.522 99.8955 163.679 99.7083 163.898ZM99.7298 163.856C99.7299 163.856 99.7299 163.856 99.7298 163.856L99.7298 163.856Z" fill="#263238"/>
<path d="M98.1445 159.817C98.1445 161.177 98.3749 163.458 99.4463 164.425C100.656 165.491 106.22 165.577 108.662 163.947C111.105 162.317 109.48 159.512 107.631 159.691C106.099 159.84 104.457 159.466 102.902 159.27C102.027 159.161 98.9394 158.475 98.3346 159.115C98.1972 159.315 98.1378 159.559 98.1676 159.8L98.1445 159.817Z" fill="white"/>
<path fill-rule="evenodd" clip-rule="evenodd" d="M102.334 158.597C102.609 158.644 102.826 158.68 102.974 158.699L102.974 158.699C103.364 158.748 103.758 158.808 104.145 158.867L104.168 158.87C104.566 158.931 104.957 158.99 105.347 159.038C106.127 159.136 106.871 159.186 107.575 159.117L107.576 159.117C108.811 158.998 109.891 159.864 110.295 160.938C110.503 161.491 110.546 162.125 110.338 162.751C110.13 163.379 109.683 163.958 108.982 164.426C107.625 165.332 105.49 165.723 103.607 165.773C102.652 165.798 101.726 165.737 100.95 165.596C100.205 165.461 99.4937 165.235 99.0654 164.858L99.06 164.853L99.06 164.853C98.3882 164.246 98.0301 163.287 97.8312 162.393C97.6277 161.478 97.5684 160.524 97.5684 159.817C97.5684 159.772 97.5737 159.728 97.5839 159.684C97.5826 159.366 97.6779 159.054 97.8593 158.789C97.8764 158.764 97.8953 158.741 97.916 158.719C98.0894 158.535 98.3123 158.437 98.5064 158.381C98.7062 158.322 98.9262 158.292 99.1447 158.279C99.5817 158.252 100.09 158.285 100.58 158.339C101.074 158.393 101.573 158.471 101.998 158.541C102.118 158.561 102.23 158.58 102.334 158.597ZM98.7727 159.506C98.7415 159.576 98.7296 159.653 98.7391 159.73C98.7487 159.808 98.7421 159.885 98.7212 159.958C98.7288 160.592 98.7888 161.393 98.9557 162.143C99.1395 162.969 99.4312 163.634 99.8293 163.995C100.007 164.15 100.445 164.334 101.156 164.463C101.839 164.587 102.684 164.645 103.577 164.621C105.388 164.573 107.257 164.192 108.342 163.468C108.862 163.121 109.128 162.739 109.245 162.388C109.362 162.035 109.341 161.673 109.217 161.343C108.957 160.652 108.3 160.205 107.687 160.264C106.858 160.345 106.016 160.283 105.204 160.182C104.797 160.131 104.391 160.069 103.995 160.009L103.979 160.006C103.586 159.947 103.205 159.889 102.83 159.842L102.902 159.27L102.831 159.842C102.657 159.82 102.402 159.777 102.115 159.729C102.017 159.712 101.914 159.695 101.81 159.678C101.391 159.609 100.916 159.535 100.454 159.484C99.9869 159.433 99.555 159.408 99.2156 159.429C99.046 159.439 98.9187 159.46 98.8305 159.486C98.8053 159.493 98.7864 159.5 98.7727 159.506Z" fill="#263238"/>
<path d="M97.4583 154.898C97.2682 156.269 97.1818 158.584 98.305 159.586C99.578 160.738 106.173 161.061 109.289 159.54C112.406 158.02 110.925 155.099 108.713 155.197C106.876 155.272 104.981 154.811 103.172 154.541C102.153 154.391 98.5642 153.556 97.7751 154.172C97.5894 154.353 97.4802 154.598 97.4698 154.857L97.4583 154.898Z" fill="white"/>
<path fill-rule="evenodd" clip-rule="evenodd" d="M102.499 153.838C102.822 153.897 103.08 153.945 103.256 153.971L103.257 153.971L103.257 153.971C103.741 154.043 104.218 154.126 104.689 154.208C106.055 154.445 107.378 154.675 108.689 154.622C110.052 154.562 111.221 155.431 111.553 156.605C111.722 157.201 111.669 157.861 111.331 158.482C110.995 159.097 110.4 159.639 109.542 160.058C107.862 160.878 105.325 161.177 103.097 161.142C101.972 161.124 100.895 161.021 100.007 160.844C99.564 160.756 99.1576 160.647 98.8115 160.517C98.4741 160.39 98.1558 160.228 97.9197 160.015C97.197 159.369 96.9161 158.361 96.8164 157.442C96.7143 156.502 96.7891 155.529 96.8876 154.819C96.8903 154.799 96.8941 154.779 96.8988 154.76C96.9318 154.381 97.0995 154.026 97.3728 153.76C97.3879 153.745 97.4038 153.731 97.4204 153.718C97.6193 153.563 97.8608 153.484 98.0764 153.44C98.2999 153.395 98.5479 153.376 98.8003 153.373C99.3051 153.366 99.8918 153.422 100.464 153.498C101.039 153.575 101.619 153.676 102.113 153.767C102.25 153.792 102.379 153.815 102.499 153.838ZM98.147 154.617C98.0851 154.691 98.0491 154.783 98.0452 154.88C98.0434 154.926 98.0361 154.972 98.0235 155.016L98.0232 155.017C97.9346 155.672 97.8754 156.524 97.9617 157.318C98.052 158.15 98.289 158.8 98.6883 159.157L98.6914 159.159L98.6914 159.159C98.7734 159.234 98.9391 159.334 99.2175 159.439C99.4879 159.54 99.83 159.634 100.232 159.714C101.037 159.874 102.043 159.973 103.115 159.99C105.281 160.024 107.601 159.723 109.037 159.023C109.736 158.681 110.125 158.288 110.319 157.931C110.511 157.579 110.533 157.23 110.445 156.919C110.263 156.277 109.587 155.735 108.739 155.773L108.737 155.773C107.291 155.832 105.791 155.571 104.395 155.328C103.947 155.25 103.509 155.174 103.088 155.11C102.889 155.081 102.598 155.027 102.266 154.966C102.15 154.945 102.03 154.922 101.906 154.9C101.416 154.811 100.858 154.713 100.311 154.64C99.7592 154.566 99.2371 154.519 98.8153 154.524C98.6043 154.527 98.4345 154.543 98.3068 154.569C98.2195 154.587 98.1705 154.606 98.147 154.617Z" fill="#263238"/>
<path d="M97.8451 148.113C97.3555 149.409 96.7565 151.65 97.632 152.876C98.6285 154.265 104.982 156.05 108.351 155.255C111.721 154.46 110.938 151.287 108.749 150.889C106.94 150.561 105.195 149.691 103.49 149.029C102.528 148.654 99.239 147.053 98.3059 147.474C98.0912 147.603 97.9329 147.809 97.8624 148.05L97.8451 148.113Z" fill="white"/>
<path fill-rule="evenodd" clip-rule="evenodd" d="M103.698 148.492C103.534 148.428 103.298 148.326 103.003 148.199L103.698 148.492ZM103.003 148.199C102.888 148.149 102.764 148.096 102.632 148.039L103.003 148.199ZM102.632 148.039C102.171 147.842 101.631 147.615 101.088 147.413L102.632 148.039ZM101.088 147.413C100.549 147.212 99.9894 147.029 99.4941 146.923L101.088 147.413ZM99.4941 146.923C99.2465 146.87 98.9998 146.834 98.7705 146.828L99.4941 146.923ZM98.7705 146.828C98.5486 146.823 98.2972 146.846 98.0691 146.948L98.7705 146.828ZM98.5661 147.992C98.495 148.046 98.4424 148.121 98.4162 148.207L98.4007 148.264C98.3959 148.282 98.3902 148.299 98.3838 148.316C98.1478 148.941 97.8926 149.776 97.7986 150.587C97.7022 151.419 97.7894 152.105 98.1002 152.541C98.1651 152.631 98.3062 152.765 98.5554 152.928C98.7978 153.086 99.1117 153.252 99.4871 153.419C100.238 153.752 101.197 154.071 102.238 154.325C104.343 154.838 106.667 155.061 108.219 154.695C108.975 154.516 109.441 154.218 109.711 153.913C109.976 153.612 110.076 153.276 110.059 152.953C110.025 152.288 109.487 151.609 108.646 151.456M98.5661 147.992C98.5731 147.99 98.5817 147.989 98.5922 147.987C98.628 147.982 98.6777 147.979 98.7434 147.98C98.8763 147.983 99.0472 148.006 99.2541 148.05C99.6681 148.138 100.166 148.299 100.686 148.493C101.202 148.685 101.723 148.903 102.178 149.098C102.297 149.149 102.413 149.199 102.524 149.247C102.829 149.378 103.096 149.493 103.281 149.565L103.281 149.566C103.681 149.721 104.093 149.893 104.515 150.069C105.821 150.613 107.224 151.198 108.646 151.456M98.0691 146.948C98.0481 146.958 98.0276 146.969 98.0079 146.98L98.0691 146.948ZM98.0079 146.98C97.6698 147.185 97.4206 147.508 97.3095 147.888L98.0079 146.98ZM97.3095 147.888L97.3065 147.898L97.3095 147.888ZM97.3065 147.898L97.2964 147.935L97.3065 147.898ZM97.2964 147.935C97.0451 148.605 96.7619 149.526 96.6543 150.454C96.5477 151.373 96.5987 152.42 97.163 153.211L97.163 153.211L97.1639 153.212C97.3482 153.469 97.6236 153.695 97.9252 153.892C98.2342 154.094 98.6065 154.288 99.0194 154.472C99.8458 154.839 100.873 155.178 101.965 155.444C104.129 155.972 106.666 156.245 108.483 155.816C109.412 155.597 110.111 155.2 110.575 154.674C111.042 154.144 111.241 153.513 111.21 152.894C111.147 151.674 110.199 150.567 108.852 150.322L108.852 150.322C107.564 150.089 106.328 149.574 105.052 149.043C104.607 148.857 104.157 148.67 103.699 148.492" fill="#263238"/>
<path d="M150.664 247.657L168.808 179.828H174.948L155.687 248.216" fill="#263238"/>
<path fill-rule="evenodd" clip-rule="evenodd" d="M168.531 179.753C168.565 179.627 168.679 179.54 168.809 179.54H174.949C175.039 179.54 175.124 179.582 175.179 179.654C175.233 179.726 175.251 179.819 175.226 179.906L155.965 248.294C155.922 248.447 155.763 248.536 155.61 248.493C155.457 248.45 155.367 248.291 155.411 248.138L174.569 180.116H169.03L150.943 247.732C150.902 247.885 150.744 247.977 150.591 247.936C150.437 247.894 150.346 247.737 150.387 247.583L168.531 179.753Z" fill="#263238"/>
<path d="M162.68 241.172L180.254 179.551L174.949 179.828L155.688 248.216" fill="white"/>
<path fill-rule="evenodd" clip-rule="evenodd" d="M180.704 179.192C180.82 179.338 180.859 179.53 180.808 179.709L163.234 241.33C163.147 241.636 162.828 241.813 162.522 241.726C162.216 241.638 162.039 241.32 162.126 241.014L179.479 180.168L175.391 180.381L156.242 248.372C156.156 248.679 155.838 248.857 155.531 248.771C155.225 248.684 155.047 248.366 155.133 248.06L174.395 179.672C174.461 179.434 174.672 179.265 174.919 179.252L180.224 178.976C180.41 178.966 180.589 179.047 180.704 179.192Z" fill="#263238"/>
<path fill-rule="evenodd" clip-rule="evenodd" d="M161.962 243.699C162.268 243.787 162.446 244.105 162.358 244.411L161.546 247.257C161.459 247.563 161.14 247.74 160.834 247.652C160.528 247.565 160.351 247.246 160.438 246.941L161.25 244.095C161.338 243.789 161.657 243.612 161.962 243.699Z" fill="#263238"/>
<path d="M138.527 195.76C138.527 195.76 140.515 198.738 142.899 199.135C145.284 199.532 170.495 179.678 170.495 179.678L160.168 180.864L138.527 195.76Z" fill="white"/>
<path fill-rule="evenodd" clip-rule="evenodd" d="M170.852 180.13L170.495 179.678C170.852 180.13 170.852 180.13 170.852 180.13L170.567 180.354C170.382 180.499 170.109 180.713 169.762 180.984C169.067 181.527 168.072 182.301 166.871 183.23C164.468 185.086 161.24 187.558 157.935 190.017C154.633 192.476 151.248 194.927 148.537 196.741C147.183 197.647 145.987 198.401 145.047 198.918C144.579 199.175 144.161 199.382 143.812 199.518C143.638 199.587 143.469 199.642 143.312 199.677C143.163 199.709 142.983 199.733 142.804 199.703C141.429 199.474 140.229 198.522 139.412 197.706C138.994 197.288 138.656 196.885 138.422 196.586C138.304 196.437 138.212 196.312 138.149 196.224C138.118 196.18 138.093 196.145 138.076 196.121L138.056 196.092L138.051 196.083L138.049 196.081L138.049 196.08C138.048 196.08 138.048 196.079 138.527 195.76L138.048 196.079C137.873 195.817 137.941 195.464 138.201 195.285L159.841 180.39C159.919 180.336 160.008 180.303 160.102 180.292L170.429 179.105C170.685 179.076 170.93 179.22 171.028 179.458C171.126 179.696 171.054 179.971 170.852 180.13ZM139.344 195.896C139.557 196.166 139.858 196.523 140.226 196.891C140.996 197.66 141.977 198.393 142.981 198.565C142.988 198.564 143.014 198.563 143.064 198.552C143.143 198.534 143.251 198.501 143.392 198.446C143.674 198.335 144.043 198.155 144.492 197.908C145.388 197.415 146.552 196.683 147.897 195.784C150.583 193.986 153.949 191.549 157.247 189.093C160.544 186.639 163.767 184.172 166.166 182.318C167.092 181.603 167.894 180.979 168.531 180.483L160.376 181.42L139.344 195.896Z" fill="#263238"/>
<path d="M122.521 163.918C122.521 163.918 127.268 124.56 137.878 110.88C149.473 95.904 172.772 108.092 168.025 132.094C164.385 150.526 153.787 183.456 153.787 183.456L122.521 163.918Z" fill="#24BEE1"/>
<path fill-rule="evenodd" clip-rule="evenodd" d="M158.774 107.359C152.326 103.329 143.936 103.996 138.333 111.233C135.739 114.578 133.477 119.532 131.547 125.127C129.62 130.711 128.037 136.89 126.784 142.652C125.53 148.413 124.607 153.748 123.998 157.644C123.693 159.592 123.467 161.179 123.317 162.278C123.242 162.828 123.186 163.256 123.149 163.546C123.145 163.574 123.142 163.6 123.139 163.625L153.464 182.575C153.529 182.369 153.608 182.12 153.7 181.831C153.997 180.896 154.425 179.538 154.949 177.852C155.999 174.479 157.437 169.789 158.988 164.525C162.093 153.989 165.646 141.17 167.46 131.983C169.793 120.187 165.228 111.393 158.774 107.359ZM153.787 183.456L154.335 183.633C154.28 183.802 154.151 183.936 153.984 183.997C153.818 184.058 153.632 184.039 153.481 183.945L122.216 164.407C122.027 164.288 121.923 164.071 121.949 163.849L122.521 163.918C121.949 163.849 121.949 163.849 121.95 163.849L121.953 163.82L121.964 163.734C121.973 163.658 121.987 163.546 122.006 163.4C122.043 163.107 122.1 162.676 122.175 162.123C122.326 161.016 122.554 159.422 122.86 157.466C123.472 153.555 124.398 148.196 125.658 142.407C126.917 136.62 128.511 130.394 130.458 124.751C132.401 119.119 134.712 114.023 137.422 110.527C143.414 102.789 152.471 102.062 159.385 106.382C166.292 110.699 171.004 120 168.59 132.206C166.765 141.45 163.198 154.313 160.093 164.85C158.54 170.122 157.101 174.817 156.049 178.194C155.524 179.883 155.095 181.242 154.798 182.179C154.65 182.648 154.534 183.011 154.455 183.257C154.416 183.38 154.386 183.474 154.366 183.537L154.335 183.631L154.335 183.633C154.335 183.633 154.335 183.633 153.787 183.456Z" fill="#263238"/>
<path d="M156.579 105.858L218.603 125.442C220.633 126.072 222.49 127.165 224.028 128.633C227.94 132.4 233.774 140.504 228.873 152.456C224.904 161.859 219.541 170.611 212.964 178.416L153.791 183.456L165.795 137.117C165.795 137.117 171.371 116.744 156.579 105.858Z" fill="white"/>
<path d="M185.661 160.376C170.743 167.369 162.765 166.136 158.796 164.12L153.791 183.457L212.969 178.434C219.546 170.629 224.91 161.877 228.878 152.474C229.523 150.916 230.013 149.3 230.341 147.647C215.959 144.26 204.554 151.523 185.661 160.376Z" fill="#24BEE1"/>
<path opacity="0.5" d="M185.661 160.376C170.743 167.369 162.765 166.136 158.796 164.12L153.791 183.457L212.969 178.434C219.546 170.629 224.91 161.877 228.878 152.474C229.523 150.916 230.013 149.3 230.341 147.647C215.959 144.26 204.554 151.523 185.661 160.376Z" fill="white"/>
<path fill-rule="evenodd" clip-rule="evenodd" d="M156.065 105.597C156.193 105.345 156.483 105.223 156.752 105.308L218.773 124.891C218.774 124.892 218.774 124.892 218.775 124.892C220.889 125.549 222.824 126.687 224.426 128.216L224.428 128.218C226.425 130.141 228.928 133.185 230.301 137.292C231.68 141.414 231.909 146.57 229.405 152.674L229.403 152.68C225.412 162.137 220.018 170.938 213.404 178.787C213.305 178.904 213.164 178.977 213.012 178.99L153.84 184.03C153.654 184.046 153.471 183.971 153.351 183.828C153.23 183.685 153.186 183.493 153.233 183.312L165.239 136.965L165.24 136.963L165.242 136.954L165.253 136.913C165.262 136.877 165.276 136.822 165.294 136.748C165.33 136.602 165.382 136.383 165.442 136.1C165.563 135.533 165.721 134.709 165.864 133.684C166.152 131.632 166.383 128.787 166.159 125.61C165.711 119.253 163.448 111.629 156.237 106.321C156.01 106.154 155.938 105.848 156.065 105.597ZM166.35 137.268L154.552 182.813L212.676 177.863C219.145 170.149 224.425 161.511 228.341 152.235C230.738 146.388 230.5 141.517 229.209 137.658C227.913 133.783 225.543 130.892 223.629 129.048C222.156 127.642 220.377 126.596 218.431 125.992L218.429 125.991L159.209 107.292C164.988 112.694 166.896 119.69 167.308 125.529C167.539 128.806 167.301 131.735 167.005 133.844C166.857 134.899 166.695 135.751 166.569 136.341C166.506 136.636 166.452 136.866 166.413 137.023C166.394 137.101 166.378 137.162 166.368 137.203C166.362 137.224 166.358 137.24 166.355 137.251L166.352 137.261L166.352 137.264L166.351 137.267L166.35 137.268Z" fill="#263238"/>
<path d="M191.438 111.698L181.727 142.007C180.074 142.278 178.461 143.643 177.661 145.653C176.555 148.429 177.413 151.384 179.579 152.248C181.744 153.112 184.4 151.557 185.506 148.792C186.416 146.488 185.995 144.104 184.607 142.842L191.438 119.503L200.966 122.751L203.569 116.041L191.438 111.698Z" fill="#263238"/>
<path fill-rule="evenodd" clip-rule="evenodd" d="M191.312 111.44C191.382 111.405 191.463 111.4 191.536 111.427L203.667 115.77C203.74 115.796 203.8 115.851 203.832 115.921C203.864 115.992 203.867 116.073 203.838 116.145L201.235 122.856C201.179 122.999 201.02 123.074 200.873 123.024L191.631 119.872L184.934 142.755C186.326 144.144 186.687 146.587 185.774 148.898L185.774 148.899C184.635 151.746 181.844 153.462 179.473 152.516C177.101 151.57 176.255 148.405 177.394 145.547C178.197 143.531 179.799 142.109 181.506 141.755L191.165 111.61C191.189 111.536 191.242 111.474 191.312 111.44ZM191.623 112.069L182.002 142.095C181.969 142.198 181.881 142.274 181.775 142.291C180.24 142.542 178.7 143.824 177.929 145.76L177.661 145.653L177.929 145.76C176.856 148.454 177.726 151.199 179.686 151.981C181.646 152.763 184.165 151.369 185.239 148.686C186.118 146.461 185.69 144.215 184.414 143.055C184.333 142.981 184.301 142.867 184.332 142.761L191.163 119.422C191.185 119.346 191.237 119.283 191.307 119.247C191.376 119.211 191.458 119.205 191.532 119.23L200.798 122.39L203.194 116.212L191.623 112.069Z" fill="#263238"/>
<path d="M132.094 138.551C132.094 138.551 136.425 143.32 136.644 145.699C136.863 148.078 132.964 154.339 132.964 154.339C132.964 154.339 140.976 159.322 148.556 155.854C156.136 152.387 159.817 137.664 159.817 137.664C159.817 137.664 150.722 141.996 147.254 141.996C143.787 141.996 132.094 138.551 132.094 138.551Z" fill="#263238"/>
<path fill-rule="evenodd" clip-rule="evenodd" d="M160.097 137.734L159.818 137.664L159.694 137.404C159.794 137.356 159.914 137.37 160 137.441C160.086 137.512 160.124 137.626 160.097 137.734ZM132.964 154.339C132.812 154.584 132.812 154.584 132.813 154.584L132.814 154.585L132.82 154.588L132.838 154.6C132.855 154.61 132.879 154.624 132.91 154.642C132.973 154.679 133.065 154.732 133.184 154.798C133.423 154.931 133.77 155.114 134.211 155.324C135.092 155.742 136.347 156.263 137.842 156.675C140.828 157.497 144.802 157.888 148.677 156.116C150.631 155.222 152.317 153.611 153.744 151.723C155.172 149.832 156.353 147.646 157.292 145.578C158.231 143.508 158.932 141.549 159.398 140.107C159.631 139.386 159.805 138.794 159.922 138.382C159.98 138.175 160.024 138.014 160.053 137.904C160.067 137.849 160.078 137.807 160.086 137.778L160.094 137.745L160.096 137.737L160.097 137.734C160.097 137.734 160.097 137.734 159.818 137.664C159.694 137.404 159.694 137.404 159.694 137.404L159.668 137.416L159.592 137.452C159.525 137.484 159.426 137.53 159.299 137.589C159.044 137.707 158.677 137.875 158.225 138.078C157.32 138.483 156.079 139.023 154.73 139.562C153.38 140.102 151.926 140.64 150.597 141.043C149.26 141.448 148.076 141.707 147.255 141.707C146.42 141.707 145.065 141.498 143.481 141.175C141.904 140.854 140.122 140.424 138.446 139.994C136.77 139.564 135.203 139.134 134.054 138.812C133.479 138.651 133.01 138.516 132.684 138.422C132.521 138.375 132.394 138.338 132.307 138.313L132.209 138.285L132.177 138.275C132.176 138.275 132.176 138.275 132.095 138.551L132.177 138.275C132.053 138.238 131.919 138.289 131.851 138.398C131.782 138.507 131.795 138.649 131.881 138.745L131.884 138.748L131.893 138.758L131.929 138.797C131.96 138.832 132.006 138.884 132.065 138.951C132.183 139.085 132.352 139.279 132.555 139.519C132.962 140.001 133.506 140.666 134.057 141.405C134.608 142.145 135.162 142.953 135.59 143.719C136.023 144.494 136.309 145.194 136.358 145.726C136.407 146.252 136.225 147.036 135.892 147.954C135.562 148.86 135.101 149.854 134.63 150.781C134.159 151.706 133.682 152.558 133.321 153.179C133.141 153.49 132.99 153.742 132.885 153.917C132.832 154.004 132.791 154.072 132.763 154.118L132.731 154.17L132.723 154.183L132.72 154.187L132.964 154.339ZM132.954 139.099C132.967 139.115 132.981 139.131 132.995 139.147C133.407 139.635 133.959 140.31 134.519 141.061C135.078 141.811 135.648 142.641 136.093 143.438C136.534 144.227 136.871 145.015 136.932 145.673C136.993 146.336 136.769 147.226 136.433 148.151C136.093 149.088 135.62 150.105 135.143 151.042C134.667 151.979 134.183 152.841 133.819 153.468C133.637 153.782 133.485 154.037 133.378 154.214C133.373 154.223 133.368 154.231 133.363 154.239C133.394 154.256 133.427 154.275 133.463 154.295C133.692 154.421 134.029 154.6 134.458 154.803C135.316 155.211 136.539 155.719 137.994 156.119C140.909 156.922 144.732 157.287 148.437 155.592C150.272 154.753 151.889 153.223 153.284 151.375C154.678 149.53 155.839 147.385 156.767 145.34C157.696 143.295 158.389 141.357 158.85 139.93C159.08 139.217 159.253 138.631 159.367 138.225C159.371 138.212 159.375 138.199 159.378 138.187C159.137 138.298 158.826 138.44 158.46 138.604C157.551 139.011 156.302 139.554 154.944 140.097C153.586 140.64 152.116 141.185 150.764 141.594C149.421 142.001 148.167 142.283 147.255 142.283C146.356 142.283 144.949 142.062 143.366 141.739C141.775 141.415 139.983 140.983 138.303 140.552C136.622 140.121 135.05 139.69 133.898 139.366C133.539 139.266 133.222 139.176 132.954 139.099ZM132.72 154.187L132.964 154.339L132.813 154.584C132.748 154.544 132.701 154.479 132.684 154.404C132.667 154.33 132.68 154.252 132.72 154.187Z" fill="#263238"/>
<path d="M148.556 155.877C150.647 154.921 152.438 153.107 153.941 150.987C153.834 150.529 153.595 150.113 153.255 149.79C152.914 149.466 152.486 149.25 152.023 149.167C147.473 148.297 142.709 153.279 142.709 153.279C142.282 154.506 142.023 155.785 141.938 157.081C144.208 157.22 146.479 156.807 148.556 155.877Z" fill="#24BEE1"/>
<path fill-rule="evenodd" clip-rule="evenodd" d="M152.077 148.883C152.594 148.977 153.072 149.219 153.454 149.581C153.835 149.943 154.103 150.409 154.223 150.921C154.241 151.001 154.225 151.086 154.177 151.153C152.66 153.293 150.833 155.153 148.676 156.139L148.674 156.14C146.555 157.089 144.238 157.51 141.921 157.368C141.844 157.364 141.773 157.329 141.722 157.271C141.672 157.214 141.646 157.138 141.651 157.062C141.738 155.74 142.003 154.436 142.438 153.185C142.452 153.146 142.474 153.11 142.502 153.08L142.71 153.279C142.502 153.08 142.502 153.08 142.502 153.08L142.503 153.079L142.506 153.076L142.518 153.064C142.527 153.054 142.542 153.039 142.56 153.021C142.598 152.983 142.653 152.929 142.724 152.86C142.866 152.722 143.073 152.528 143.336 152.298C143.861 151.838 144.61 151.233 145.505 150.655C147.28 149.508 149.689 148.428 152.077 148.883ZM142.961 153.434C142.587 154.526 142.348 155.659 142.248 156.808C144.374 156.893 146.493 156.485 148.438 155.615C150.428 154.704 152.157 152.981 153.629 150.93C153.523 150.576 153.326 150.254 153.057 149.999C152.757 149.714 152.38 149.523 151.973 149.45L151.97 149.45C149.808 149.036 147.56 150.013 145.817 151.139C144.952 151.698 144.226 152.284 143.715 152.731C143.461 152.954 143.26 153.142 143.124 153.274C143.056 153.34 143.004 153.391 142.969 153.426C142.967 153.429 142.964 153.432 142.961 153.434Z" fill="#263238"/>
<path d="M142.271 151.984C139.83 151.889 137.445 151.231 135.301 150.06C134.247 152.283 132.957 154.362 132.957 154.362C132.957 154.362 140.969 159.345 148.549 155.877C150.595 154.831 152.346 153.288 153.641 151.39C151.867 151.586 146.084 152.162 142.271 151.984Z" fill="white"/>
<path fill-rule="evenodd" clip-rule="evenodd" d="M135.213 149.786C135.289 149.761 135.371 149.769 135.44 149.807C137.545 150.957 139.887 151.603 142.283 151.696L142.285 151.696C146.073 151.873 151.834 151.3 153.611 151.104C153.722 151.092 153.831 151.146 153.889 151.242C153.947 151.338 153.943 151.46 153.88 151.553C152.557 153.49 150.77 155.065 148.681 156.134C148.678 156.136 148.674 156.137 148.67 156.139C144.795 157.912 140.821 157.52 137.835 156.698C136.34 156.286 135.086 155.765 134.205 155.347C133.764 155.138 133.416 154.954 133.178 154.822C133.058 154.756 132.966 154.703 132.904 154.666C132.872 154.647 132.848 154.633 132.832 154.623L132.813 154.611L132.808 154.608L132.807 154.607C132.806 154.607 132.806 154.607 132.958 154.362L132.806 154.607C132.671 154.523 132.629 154.346 132.713 154.211C132.713 154.211 132.713 154.211 132.713 154.211L132.717 154.205L132.727 154.188C132.737 154.172 132.751 154.149 132.77 154.119C132.807 154.058 132.861 153.969 132.929 153.855C133.065 153.627 133.259 153.299 133.485 152.902C133.937 152.108 134.519 151.039 135.042 149.936C135.076 149.865 135.138 149.81 135.213 149.786ZM133.356 154.262C133.387 154.279 133.42 154.298 133.457 154.318C133.686 154.445 134.023 154.623 134.452 154.827C135.31 155.234 136.532 155.742 137.988 156.142C140.902 156.944 144.721 157.31 148.425 155.618C150.236 154.69 151.811 153.365 153.033 151.745C150.77 151.979 145.718 152.433 142.26 152.271C139.876 152.179 137.544 151.558 135.432 150.455C134.936 151.478 134.404 152.451 133.985 153.187C133.757 153.588 133.561 153.919 133.423 154.151C133.399 154.191 133.377 154.228 133.356 154.262Z" fill="#263238"/>
<path d="M147.254 142.019C143.798 142.019 132.094 138.563 132.094 138.563C133.511 140.135 134.776 141.838 135.872 143.649C138.752 144.801 143.815 146.58 147.905 146.58C151.423 146.548 154.861 145.524 157.824 143.626C158.611 141.681 159.276 139.69 159.817 137.664C159.817 137.664 150.722 142.019 147.254 142.019Z" fill="white"/>
<path fill-rule="evenodd" clip-rule="evenodd" d="M159.693 137.404C159.795 137.356 159.915 137.371 160.001 137.442C160.088 137.514 160.125 137.63 160.096 137.738C159.552 139.776 158.883 141.778 158.092 143.734C158.069 143.789 158.03 143.836 157.98 143.868C154.972 145.795 151.481 146.835 147.909 146.868L147.906 146.868C143.755 146.868 138.646 145.068 135.766 143.916C135.708 143.893 135.659 143.851 135.627 143.798C134.54 142.003 133.286 140.314 131.881 138.755C131.794 138.66 131.782 138.518 131.851 138.409C131.92 138.3 132.053 138.25 132.176 138.286L132.095 138.563C132.176 138.286 132.176 138.286 132.176 138.286L132.21 138.296L132.308 138.325C132.394 138.35 132.521 138.387 132.684 138.434C133.011 138.529 133.481 138.664 134.055 138.825C135.205 139.149 136.774 139.58 138.451 140.012C140.127 140.443 141.909 140.874 143.486 141.196C145.07 141.521 146.423 141.731 147.255 141.731C148.076 141.731 149.26 141.47 150.597 141.063C151.926 140.658 153.379 140.117 154.729 139.574C156.078 139.032 157.32 138.489 158.224 138.082C158.676 137.878 159.044 137.709 159.298 137.59C159.426 137.531 159.524 137.484 159.591 137.453L159.668 137.416L159.693 137.404C159.693 137.404 159.693 137.404 159.818 137.664L159.693 137.404ZM159.375 138.189C159.135 138.301 158.825 138.443 158.46 138.607C157.551 139.016 156.302 139.562 154.944 140.108C153.586 140.654 152.116 141.202 150.765 141.614C149.421 142.023 148.168 142.307 147.255 142.307C146.358 142.307 144.953 142.085 143.37 141.761C141.781 141.435 139.988 141.002 138.307 140.569C136.625 140.137 135.052 139.704 133.899 139.38C133.543 139.279 133.226 139.189 132.959 139.113C134.107 140.463 135.147 141.902 136.069 143.417C138.963 144.569 143.918 146.292 147.905 146.292C151.338 146.26 154.693 145.269 157.592 143.432C158.282 141.718 158.877 139.968 159.375 138.189Z" fill="#263238"/>
<path d="M146.391 132.054C146.391 132.054 147.692 127.509 151.373 127.072C155.054 126.634 156.137 129.237 156.137 129.237C156.137 129.237 149.184 129.237 146.391 132.054Z" fill="#263238"/>
<path fill-rule="evenodd" clip-rule="evenodd" d="M156.73 136.288C156.784 136.138 156.949 136.061 157.099 136.115L162.513 138.067C162.663 138.121 162.74 138.286 162.686 138.436C162.632 138.585 162.467 138.663 162.318 138.609L156.903 136.656C156.754 136.602 156.676 136.437 156.73 136.288Z" fill="#263238"/>
<path d="M140.307 127.699C140.036 129.225 139.34 130.383 138.746 130.28C138.153 130.176 137.905 128.851 138.17 127.319C138.435 125.787 139.144 124.629 139.731 124.733C140.319 124.836 140.584 126.144 140.307 127.699Z" fill="#263238"/>
<path d="M147.255 126.64C147.255 126.64 147.042 124.042 152.669 124.042C158.297 124.042 159.385 123.391 157.22 120.586C155.054 117.781 145.959 119.278 147.255 126.64Z" fill="#263238"/>
<path d="M145.088 118.846C145.088 118.846 144.656 115.16 141.194 115.16C137.733 115.16 135.774 119.278 135.561 117.976C135.348 116.675 136.644 112.13 141.407 111.698C146.171 111.266 145.088 118.846 145.088 118.846Z" fill="#263238"/>
<path fill-rule="evenodd" clip-rule="evenodd" d="M169.421 115.572C169.569 115.513 169.737 115.585 169.795 115.733C170.735 118.092 171.305 120.582 171.485 123.115C171.834 127.105 171.208 132.79 170.085 139.052C168.96 145.322 167.331 152.194 165.659 158.569C163.988 164.944 162.273 170.825 160.976 175.112C160.328 177.255 159.784 179.001 159.402 180.21C159.211 180.815 159.061 181.286 158.958 181.605C158.907 181.765 158.867 181.887 158.84 181.969L158.8 182.093C158.8 182.094 158.8 182.094 158.526 182.005C158.252 181.915 158.252 181.915 158.253 181.915L158.293 181.792C158.319 181.71 158.358 181.588 158.41 181.429C158.512 181.11 158.662 180.64 158.853 180.037C159.234 178.829 159.777 177.086 160.425 174.945C161.72 170.663 163.433 164.789 165.102 158.423C166.771 152.056 168.397 145.199 169.518 138.95C170.641 132.694 171.253 127.072 170.911 123.163L170.911 123.158C170.735 120.683 170.178 118.251 169.26 115.946C169.201 115.798 169.273 115.631 169.421 115.572ZM158.526 182.005L158.253 181.915C158.203 182.066 158.286 182.229 158.437 182.278C158.588 182.328 158.751 182.245 158.8 182.093L158.526 182.005Z" fill="#263238"/>
<path fill-rule="evenodd" clip-rule="evenodd" d="M163.823 109.384C163.889 109.239 164.06 109.175 164.205 109.242C165.5 109.834 166.631 110.733 167.499 111.862C167.595 111.988 167.572 112.169 167.446 112.266C167.32 112.363 167.139 112.34 167.042 112.213C166.231 111.159 165.175 110.319 163.965 109.765C163.821 109.699 163.757 109.528 163.823 109.384Z" fill="#263238"/>
<path fill-rule="evenodd" clip-rule="evenodd" d="M213.175 174.173C213.308 174.261 213.344 174.44 213.256 174.573C212.57 175.604 211.994 176.468 211.589 177.074C211.387 177.378 211.227 177.616 211.118 177.779L210.951 178.029L210.712 177.869L210.473 177.709L210.64 177.459C210.749 177.296 210.908 177.058 211.11 176.755C211.515 176.148 212.091 175.285 212.776 174.254C212.864 174.121 213.043 174.085 213.175 174.173ZM210.552 178.109C210.419 178.02 210.384 177.841 210.473 177.709L210.712 177.869L210.951 178.029C210.863 178.161 210.684 178.197 210.552 178.109Z" fill="#263238"/>
<path fill-rule="evenodd" clip-rule="evenodd" d="M214.999 124.972C215.078 124.833 215.253 124.784 215.392 124.863L215.25 125.113C215.392 124.863 215.392 124.863 215.392 124.863L215.394 124.864L215.4 124.868L215.424 124.881C215.445 124.893 215.475 124.911 215.514 124.934C215.593 124.981 215.708 125.05 215.854 125.14C216.147 125.321 216.565 125.589 217.071 125.938C218.083 126.635 219.446 127.656 220.854 128.951C223.661 131.535 226.682 135.245 227.388 139.687C228.538 146.914 226.438 151.346 224.568 155.295C224.162 156.152 223.767 156.986 223.418 157.82L223.418 157.822C222.253 160.564 218.336 166.804 215.203 171.61C215.116 171.743 214.938 171.781 214.805 171.694C214.671 171.607 214.634 171.429 214.721 171.295C217.865 166.471 221.747 160.282 222.887 157.597M214.999 124.972C214.921 125.11 214.97 125.286 215.108 125.364L214.999 124.972Z" fill="#263238"/>
<path d="M133.494 158.78C133.494 158.78 136.628 161.908 143.666 161.124C143.666 161.124 136.628 164.252 133.494 158.78Z" fill="#263238"/>
<path d="M70.2363 156.252C70.2363 156.252 88.5704 146.639 122.036 152.531C123.575 152.801 125.158 152.45 126.438 151.555C127.719 150.66 128.592 149.294 128.867 147.756L129.351 145.055C129.584 143.758 129.376 142.421 128.761 141.257C128.147 140.092 127.16 139.166 125.959 138.627C117.071 134.635 96.3925 123.564 85.5234 103.047L70.2363 156.252Z" fill="#24BEE1"/>
<path fill-rule="evenodd" clip-rule="evenodd" d="M85.4656 102.474C85.6992 102.45 85.9242 102.57 86.0342 102.777C96.8106 123.12 117.34 134.124 126.196 138.101C127.515 138.693 128.598 139.709 129.273 140.988C129.947 142.266 130.175 143.733 129.92 145.156C129.92 145.156 129.92 145.156 129.92 145.156L129.436 147.858C129.134 149.545 128.175 151.045 126.77 152.027C125.365 153.009 123.627 153.395 121.938 153.099L121.938 153.098C105.277 150.165 92.3977 151.093 83.696 152.748C79.3445 153.575 76.0363 154.584 73.8213 155.384C72.7138 155.784 71.8795 156.131 71.3248 156.377C71.0475 156.5 70.84 156.598 70.7032 156.664C70.6348 156.697 70.5841 156.722 70.5511 156.739C70.5346 156.747 70.5226 156.754 70.515 156.757L70.507 156.762L70.5056 156.762C70.5055 156.762 70.5054 156.762 70.5053 156.762C70.3012 156.869 70.0529 156.844 69.8742 156.699C69.6955 156.553 69.6209 156.315 69.6845 156.093L84.9716 102.888C85.0364 102.662 85.2319 102.498 85.4656 102.474ZM71.1395 155.201C71.7026 154.958 72.4675 154.648 73.4302 154.3C75.6986 153.482 79.0656 152.456 83.4808 151.616C92.3124 149.937 105.333 149.005 122.137 151.964C123.526 152.207 124.954 151.891 126.11 151.083C127.265 150.275 128.054 149.042 128.302 147.655L128.302 147.655L128.786 144.953L128.786 144.953C128.996 143.783 128.809 142.577 128.254 141.526C127.699 140.474 126.809 139.639 125.724 139.152L125.96 138.627L125.724 139.152C116.985 135.227 96.8127 124.455 85.6908 104.556L71.1395 155.201Z" fill="#263238"/>
<path fill-rule="evenodd" clip-rule="evenodd" d="M87.0987 113.876C87.0987 113.877 87.0987 113.876 87.0987 113.876L87.0996 113.878L87.1038 113.884L87.1219 113.912C87.1383 113.938 87.1633 113.976 87.1968 114.026C87.2639 114.127 87.3651 114.277 87.4996 114.471C87.7687 114.858 88.171 115.419 88.7007 116.109C89.7604 117.49 91.3281 119.385 93.3559 121.439C97.4165 125.55 103.296 130.266 110.611 132.77C110.912 132.873 111.073 133.201 110.97 133.502C110.867 133.803 110.539 133.963 110.238 133.86C102.693 131.278 96.6664 126.43 92.5363 122.248C90.4688 120.155 88.8699 118.222 87.7868 116.81C87.2452 116.105 86.8321 115.529 86.5536 115.128C86.4144 114.928 86.3087 114.771 86.2374 114.664C86.2018 114.61 86.1747 114.569 86.1563 114.541L86.1353 114.508L86.1296 114.499L86.1275 114.496C86.1274 114.496 86.1273 114.496 86.613 114.186L86.1275 114.496C85.9566 114.228 86.0351 113.871 86.3034 113.7C86.5716 113.529 86.9277 113.608 87.0987 113.876Z" fill="white"/>
<path d="M125.959 138.626C120.759 136.274 115.767 133.488 111.035 130.297C112.596 135.286 113.045 142.825 106.588 150.768C111.769 151.033 116.929 151.622 122.036 152.531C123.575 152.801 125.158 152.45 126.438 151.555C127.719 150.66 128.592 149.294 128.868 147.756L129.351 145.054C129.584 143.758 129.376 142.421 128.762 141.256C128.147 140.092 127.16 139.166 125.959 138.626Z" fill="#263238"/>
<path fill-rule="evenodd" clip-rule="evenodd" d="M110.863 130.066C110.962 129.993 111.095 129.99 111.197 130.059C115.915 133.24 120.893 136.018 126.078 138.364C127.338 138.93 128.372 139.901 129.017 141.122C129.662 142.344 129.88 143.746 129.636 145.105C129.636 145.105 129.636 145.105 129.636 145.105L129.152 147.807C128.863 149.42 127.947 150.852 126.604 151.791C125.261 152.73 123.601 153.098 121.987 152.815L121.987 152.815C116.891 151.908 111.743 151.32 106.574 151.056C106.466 151.051 106.37 150.985 106.326 150.886C106.282 150.786 106.297 150.671 106.365 150.587C112.749 142.734 112.299 135.3 110.761 130.383C110.724 130.267 110.765 130.14 110.863 130.066ZM125.96 138.626L125.841 138.889C120.868 136.639 116.084 133.994 111.536 130.978C112.894 135.929 113.017 143.034 107.163 150.511C112.168 150.789 117.152 151.369 122.087 152.247C123.551 152.504 125.056 152.17 126.274 151.319C127.492 150.467 128.323 149.168 128.585 147.705L128.585 147.705L129.069 145.004L129.069 145.004C129.29 143.771 129.092 142.499 128.508 141.391C127.923 140.283 126.985 139.402 125.842 138.889L125.96 138.626Z" fill="#263238"/>
<path d="M84.9245 131.885C90.145 115.186 89.1589 100.017 82.7221 98.0045C76.2852 95.9923 66.8351 107.899 61.6146 124.598C56.3941 141.297 57.3802 156.466 63.8171 158.478C70.2539 160.491 79.7041 148.584 84.9245 131.885Z" fill="#263238"/>
<path fill-rule="evenodd" clip-rule="evenodd" d="M60.2838 154.562C61.1795 156.485 62.3971 157.733 63.9025 158.204C65.4078 158.674 67.1197 158.342 68.9507 157.272C70.7819 156.202 72.7039 154.409 74.6009 152.02C78.3934 147.241 82.0467 140.124 84.6491 131.799C87.2516 123.474 88.3026 115.543 87.9069 109.456C87.709 106.411 87.1501 103.843 86.2543 101.921C85.3587 99.9983 84.141 98.75 82.6356 98.2794C81.1303 97.8088 79.4184 98.1413 77.5874 99.2111C75.7562 100.281 73.8342 102.073 71.9373 104.463C68.1447 109.242 64.4914 116.359 61.889 124.684C59.2865 133.009 58.2355 140.94 58.6312 147.027C58.8292 150.072 59.3881 152.64 60.2838 154.562ZM58.0564 147.065C57.655 140.89 58.7212 132.887 61.3392 124.512C63.9573 116.137 67.6393 108.952 71.4861 104.105C73.4089 101.683 75.3826 99.8323 77.2968 98.7138C79.2112 97.5953 81.0944 97.1941 82.8075 97.7296C84.5206 98.2652 85.84 99.6675 86.7764 101.677C87.7128 103.687 88.2811 106.332 88.4817 109.418C88.8831 115.593 87.8169 123.596 85.1989 131.971C82.5809 140.346 78.8988 147.531 75.052 152.378C73.1292 154.8 71.1556 156.651 69.2413 157.769C67.3269 158.888 65.4437 159.289 63.7306 158.753C62.0176 158.218 60.6981 156.815 59.7617 154.806C58.8253 152.796 58.2571 150.151 58.0564 147.065Z" fill="#263238"/>
<path d="M82.3236 131.075C87.0202 116.051 86.4536 102.505 81.0582 100.818C75.6627 99.1316 67.4816 109.943 62.7851 124.967C58.0885 139.99 58.6551 153.536 64.0505 155.223C69.446 156.909 77.6271 146.098 82.3236 131.075Z" fill="white"/>
<path fill-rule="evenodd" clip-rule="evenodd" d="M61.1808 151.784C61.9015 153.484 62.8988 154.561 64.136 154.948C65.3731 155.335 66.8064 155.017 68.367 154.03C69.9263 153.044 71.5772 151.411 73.219 149.241C76.501 144.904 79.7072 138.477 82.0482 130.989C84.3893 123.5 85.4144 116.391 85.1871 110.957C85.0734 108.239 84.6469 105.956 83.9269 104.257C83.2062 102.557 82.2089 101.48 80.9717 101.093C79.7345 100.706 78.3012 101.024 76.7407 102.011C75.1814 102.997 73.5305 104.63 71.8887 106.8C68.6067 111.137 65.4005 117.564 63.0594 125.052C60.7184 132.541 59.6933 139.65 59.9206 145.084C60.0343 147.802 60.4607 150.085 61.1808 151.784ZM59.3451 145.108C59.1143 139.592 60.1542 132.415 62.5097 124.881C64.8652 117.346 68.0978 110.855 71.4294 106.452C73.0944 104.252 74.7939 102.56 76.4328 101.524C78.0704 100.488 79.6831 100.087 81.1436 100.543C82.6041 101 83.7009 102.248 84.4572 104.032C85.2141 105.818 85.6473 108.176 85.7626 110.933C85.9933 116.449 84.9535 123.626 82.598 131.16C80.2425 138.695 77.0099 145.186 73.6783 149.589C72.0133 151.789 70.3138 153.481 68.6749 154.517C67.0372 155.553 65.4246 155.954 63.9641 155.498C62.5036 155.041 61.4067 153.793 60.6505 152.009C59.8936 150.223 59.4604 147.865 59.3451 145.108Z" fill="#263238"/>
<path d="M84.4923 122.475L79.1355 122.193L75.1035 135.914L79.3602 138.984C80.4867 136.407 81.4712 133.771 82.3093 131.087C83.2011 128.26 83.93 125.385 84.4923 122.475Z" fill="#263238"/>
<path fill-rule="evenodd" clip-rule="evenodd" d="M78.8601 122.112C78.8977 121.984 79.0183 121.899 79.1516 121.906L84.5084 122.188L84.4932 122.475L84.776 122.53C84.2116 125.451 83.48 128.336 82.5849 131.173C81.7438 133.867 80.7556 136.513 79.6249 139.099C79.5901 139.179 79.521 139.238 79.437 139.261C79.353 139.284 79.2632 139.268 79.1926 139.217L74.936 136.147C74.8369 136.076 74.7937 135.949 74.8281 135.832L78.8601 122.112ZM84.147 122.746L79.3486 122.493L75.4382 135.799L79.2394 138.541C80.3026 136.078 81.2358 133.561 82.0353 131.001L82.0355 131C82.8908 128.289 83.5957 125.534 84.147 122.746Z" fill="#263238"/>
<path d="M79.4409 129.727C78.335 133.517 76.4054 136.288 75.1267 135.913C73.848 135.539 73.7155 132.169 74.8214 128.379C75.9273 124.589 77.8627 121.819 79.1356 122.193C80.4086 122.567 80.5468 125.943 79.4409 129.727Z" fill="white"/>
<path fill-rule="evenodd" clip-rule="evenodd" d="M77.153 123.889C76.394 124.977 75.6454 126.587 75.0988 128.46C74.5521 130.333 74.3153 132.091 74.3684 133.415C74.3951 134.079 74.494 134.617 74.6514 135.002C74.8103 135.39 75.0083 135.578 75.2085 135.637C75.4085 135.695 75.6766 135.644 76.0197 135.402C76.36 135.162 76.7332 134.762 77.1132 134.217C77.8714 133.129 78.6187 131.52 79.1653 129.646L79.1654 129.646C79.712 127.776 79.9474 126.018 79.8935 124.693C79.8665 124.029 79.7674 123.49 79.6101 123.105C79.4513 122.715 79.2538 122.528 79.0553 122.469C78.8571 122.411 78.5901 122.462 78.2469 122.704C77.9068 122.944 77.5333 123.344 77.153 123.889ZM77.915 122.233C78.3272 121.942 78.7795 121.788 79.2178 121.917C79.6558 122.045 79.9529 122.42 80.1434 122.887C80.3355 123.358 80.4406 123.97 80.469 124.669C80.526 126.072 80.2776 127.894 79.7182 129.808C79.159 131.724 78.3885 133.395 77.5857 134.546C77.1853 135.121 76.7672 135.58 76.3515 135.873C75.9386 136.164 75.486 136.318 75.0466 136.19C74.6075 136.061 74.3094 135.687 74.1183 135.22C73.9259 134.75 73.821 134.138 73.7929 133.439C73.7366 132.037 73.9866 130.215 74.5458 128.298C75.1051 126.382 75.8771 124.711 76.6806 123.56C77.0814 122.985 77.4996 122.526 77.915 122.233Z" fill="#263238"/>
<path d="M140.716 198.34C137.738 196.952 113.316 153.47 111.916 151.108C110.516 148.746 110.925 145.348 112.313 142.174C113.702 139.001 113.702 133.039 112.889 131.847C112.077 130.654 109.646 129.439 109.646 129.439C109.646 129.439 110.113 128.863 111.104 127.682C112.094 126.501 114.479 127.285 114.479 127.285C116.265 125.891 117.86 128.16 117.86 128.16C119.847 126.968 120.832 129.266 120.832 129.266C121.53 129.305 122.209 129.502 122.82 129.842C124.473 130.913 124.208 135.602 124.208 135.602C124.208 135.602 125.993 136 126.391 137.192C126.836 139.109 126.698 141.115 125.993 142.952C125.198 144.939 120.233 150.895 120.233 150.895L144.852 193.185" fill="white"/>
<path fill-rule="evenodd" clip-rule="evenodd" d="M115.737 127.409C115.481 127.398 115.179 127.469 114.833 127.739C114.682 127.857 114.482 127.892 114.3 127.832C114.3 127.832 114.3 127.832 114.3 127.832L114.299 127.832L114.479 127.285L114.125 126.831C114.206 126.767 114.289 126.709 114.371 126.656C114.841 126.357 115.321 126.239 115.785 126.258C116.317 126.28 116.781 126.482 117.147 126.713C117.513 126.944 117.806 127.222 118.005 127.435C118.006 127.437 118.008 127.439 118.009 127.44C118.438 127.263 118.849 127.209 119.236 127.259C119.749 127.325 120.16 127.565 120.467 127.829C120.772 128.092 120.993 128.393 121.135 128.62C121.157 128.655 121.178 128.688 121.196 128.72C121.864 128.801 122.511 129.011 123.1 129.339C123.111 129.345 123.122 129.352 123.133 129.359C123.705 129.73 124.054 130.368 124.277 131.003C124.505 131.652 124.634 132.387 124.706 133.062C124.779 133.741 124.798 134.382 124.799 134.852C124.799 134.972 124.799 135.081 124.797 135.177C124.972 135.239 125.185 135.323 125.408 135.435C125.944 135.703 126.664 136.191 126.937 137.01C126.943 137.027 126.948 137.044 126.952 137.062C127.423 139.09 127.276 141.213 126.531 143.158L126.528 143.166C126.302 143.73 125.808 144.523 125.232 145.358C124.647 146.208 123.944 147.148 123.271 148.021C122.597 148.894 121.949 149.704 121.469 150.296C121.251 150.564 121.068 150.788 120.933 150.952L145.349 192.895C145.509 193.17 145.416 193.523 145.141 193.683C144.866 193.843 144.514 193.75 144.354 193.475L119.735 151.185C119.614 150.975 119.636 150.712 119.791 150.526L119.805 150.51L119.846 150.46C119.882 150.416 119.935 150.352 120.003 150.269C120.14 150.103 120.336 149.864 120.574 149.571C121.05 148.983 121.692 148.181 122.359 147.317C123.026 146.452 123.715 145.53 124.284 144.705C124.861 143.867 125.284 143.172 125.457 142.742C126.115 141.022 126.247 139.146 125.836 137.351C125.704 136.988 125.339 136.689 124.892 136.465C124.677 136.357 124.47 136.281 124.316 136.231C124.24 136.207 124.178 136.189 124.137 136.178C124.116 136.173 124.101 136.169 124.092 136.167L124.082 136.164C123.807 136.103 123.617 135.851 123.633 135.57C123.633 135.57 123.633 135.57 123.633 135.57L123.633 135.568L123.633 135.56L123.635 135.524C123.636 135.492 123.638 135.443 123.64 135.381C123.644 135.256 123.648 135.075 123.647 134.854C123.646 134.411 123.628 133.812 123.561 133.185C123.493 132.554 123.377 131.917 123.19 131.385C123.002 130.85 122.77 130.504 122.521 130.335C121.991 130.044 121.404 129.875 120.8 129.841C120.582 129.829 120.389 129.694 120.303 129.493L120.832 129.266C120.303 129.493 120.303 129.493 120.303 129.493L120.303 129.494L120.298 129.484C120.293 129.473 120.285 129.455 120.273 129.431C120.248 129.383 120.211 129.313 120.159 129.232C120.055 129.065 119.905 128.866 119.716 128.703C119.528 128.541 119.32 128.431 119.089 128.401C118.866 128.373 118.561 128.412 118.156 128.654C117.898 128.809 117.564 128.739 117.39 128.493C117.389 128.492 117.389 128.492 117.389 128.492L117.86 128.16C117.389 128.492 117.389 128.491 117.389 128.492L117.38 128.479C117.371 128.467 117.357 128.448 117.337 128.424C117.298 128.374 117.238 128.303 117.161 128.22C117.004 128.051 116.787 127.848 116.531 127.687C116.275 127.525 116.006 127.42 115.737 127.409ZM120.304 129.495C120.304 129.495 120.303 129.494 120.303 129.494L120.303 129.495L120.304 129.495ZM109.646 129.439L109.199 129.076C109.089 129.212 109.046 129.39 109.083 129.561C109.12 129.731 109.233 129.876 109.389 129.954L109.389 129.954L109.394 129.957L109.412 129.966C109.428 129.974 109.453 129.987 109.486 130.004C109.55 130.038 109.645 130.088 109.761 130.152C109.994 130.28 110.312 130.463 110.653 130.681C111.362 131.133 112.08 131.682 112.413 132.171C112.461 132.241 112.529 132.391 112.598 132.65C112.664 132.9 112.721 133.215 112.765 133.585C112.853 134.326 112.886 135.251 112.851 136.247C112.78 138.252 112.437 140.453 111.785 141.943C110.372 145.175 109.877 148.799 111.42 151.402C111.615 151.73 112.237 152.823 113.176 154.471C115.666 158.843 120.381 167.12 125.227 175.381C128.554 181.052 131.934 186.698 134.67 191.015C136.037 193.172 137.248 195.005 138.213 196.346C138.695 197.015 139.123 197.57 139.482 197.984C139.661 198.191 139.83 198.37 139.985 198.513C140.132 198.649 140.298 198.781 140.472 198.862C140.761 198.997 141.103 198.872 141.238 198.583C141.372 198.295 141.247 197.952 140.959 197.818C140.96 197.818 140.955 197.816 140.944 197.81C140.934 197.803 140.92 197.794 140.903 197.781C140.867 197.755 140.821 197.717 140.765 197.665C140.653 197.562 140.516 197.418 140.352 197.229C140.026 196.853 139.621 196.329 139.148 195.672C138.202 194.36 137.006 192.549 135.643 190.398C132.918 186.098 129.546 180.466 126.221 174.798C121.39 166.563 116.635 158.217 114.143 153.841C113.213 152.21 112.599 151.13 112.411 150.814C111.155 148.694 111.478 145.521 112.841 142.405C113.577 140.722 113.929 138.355 114.002 136.288C114.039 135.247 114.006 134.261 113.909 133.449C113.861 133.043 113.795 132.672 113.711 132.355C113.63 132.048 113.521 131.751 113.365 131.522C112.886 130.819 111.983 130.164 111.273 129.71C111.004 129.538 110.749 129.387 110.534 129.265C110.772 128.978 111.107 128.574 111.545 128.052C111.85 127.688 112.437 127.569 113.124 127.615C113.445 127.637 113.743 127.692 113.962 127.742C114.07 127.767 114.158 127.791 114.217 127.807C114.246 127.816 114.268 127.822 114.283 127.827L114.297 127.831L114.299 127.832M114.371 126.656C114.325 126.644 114.275 126.632 114.22 126.619C113.961 126.56 113.6 126.493 113.201 126.466C112.449 126.415 111.347 126.495 110.662 127.312C110.166 127.904 109.801 128.344 109.559 128.637C109.438 128.783 109.348 128.893 109.289 128.966L109.222 129.048L109.199 129.076L109.646 129.439" fill="#263238"/>
<path fill-rule="evenodd" clip-rule="evenodd" d="M114.267 127.14C114.353 127.006 114.531 126.968 114.665 127.054L114.509 127.296C114.665 127.054 114.665 127.054 114.665 127.054L114.666 127.054L114.668 127.056L114.674 127.06L114.7 127.077C114.722 127.092 114.754 127.113 114.794 127.14C114.874 127.196 114.989 127.276 115.125 127.377C115.398 127.579 115.764 127.866 116.13 128.206C116.496 128.545 116.869 128.944 117.154 129.369C117.435 129.79 117.647 130.264 117.648 130.748C117.678 131.985 117.783 133.219 117.962 134.443C117.985 134.6 117.876 134.746 117.718 134.769C117.561 134.792 117.415 134.683 117.392 134.526C117.21 133.278 117.103 132.02 117.072 130.759L117.072 130.752C117.072 130.429 116.928 130.067 116.675 129.689C116.425 129.315 116.086 128.951 115.738 128.628C115.392 128.307 115.045 128.033 114.783 127.84C114.652 127.743 114.544 127.667 114.468 127.616C114.431 127.59 114.401 127.57 114.381 127.557L114.359 127.542L114.354 127.539L114.353 127.538C114.353 127.538 114.353 127.538 114.353 127.538C114.219 127.452 114.18 127.274 114.267 127.14Z" fill="#263238"/>
<path fill-rule="evenodd" clip-rule="evenodd" d="M117.691 127.935C117.806 127.825 117.988 127.829 118.098 127.945L117.889 128.143C118.098 127.945 118.098 127.945 118.098 127.945L118.1 127.946L118.104 127.951L118.119 127.967C118.133 127.981 118.152 128.002 118.176 128.029C118.225 128.082 118.294 128.158 118.378 128.254C118.544 128.444 118.767 128.71 118.994 129.01C119.22 129.31 119.453 129.649 119.637 129.986C119.817 130.317 119.964 130.673 119.991 131C120.034 131.534 120.115 132.628 120.185 133.588C120.22 134.068 120.252 134.514 120.275 134.841L120.314 135.374L120.026 135.395L120.314 135.375C120.325 135.533 120.206 135.671 120.047 135.682C119.888 135.694 119.751 135.574 119.739 135.416L119.701 134.882C119.677 134.556 119.645 134.109 119.61 133.63C119.54 132.67 119.46 131.578 119.417 131.047C119.4 130.841 119.299 130.57 119.131 130.261C118.966 129.958 118.751 129.644 118.534 129.357C118.318 129.071 118.104 128.816 117.944 128.633C117.864 128.542 117.798 128.468 117.752 128.418C117.729 128.393 117.711 128.374 117.699 128.361L117.685 128.346L117.682 128.343L117.681 128.342C117.571 128.227 117.576 128.044 117.691 127.935Z" fill="#263238"/>
<path fill-rule="evenodd" clip-rule="evenodd" d="M120.7 129.011C120.832 128.922 121.011 128.956 121.1 129.087C121.724 130.005 122.078 131.078 122.123 132.186L122.124 132.195C122.135 133.29 122.206 134.383 122.335 135.471C122.354 135.629 122.241 135.772 122.083 135.791C121.925 135.809 121.782 135.696 121.763 135.538C121.632 134.432 121.56 133.32 121.548 132.206C121.506 131.206 121.186 130.238 120.624 129.411C120.535 129.279 120.569 129.1 120.7 129.011Z" fill="#263238"/>
<path fill-rule="evenodd" clip-rule="evenodd" d="M124.193 135.317C124.35 135.293 124.497 135.4 124.522 135.557L124.237 135.602L123.953 135.646C123.928 135.489 124.036 135.342 124.193 135.317ZM124.237 135.602L123.953 135.646L123.955 135.661L123.961 135.703C123.967 135.741 123.976 135.796 123.986 135.867C124.007 136.008 124.037 136.212 124.072 136.46C124.142 136.955 124.232 137.627 124.311 138.331C124.391 139.036 124.46 139.771 124.489 140.393C124.504 140.704 124.508 140.983 124.5 141.215C124.491 141.452 124.469 141.619 124.44 141.717C124.394 141.869 124.48 142.03 124.632 142.075C124.785 142.121 124.945 142.035 124.991 141.883C125.042 141.712 125.066 141.485 125.075 141.236C125.085 140.983 125.079 140.686 125.064 140.366C125.034 139.725 124.964 138.977 124.883 138.267C124.803 137.555 124.713 136.878 124.643 136.379C124.607 136.13 124.577 135.925 124.556 135.782C124.545 135.71 124.537 135.654 124.531 135.616L124.524 135.573L124.522 135.557C124.522 135.557 124.522 135.557 124.237 135.602Z" fill="#263238"/>
</svg>
