<svg width="24" height="24" viewBox="0 0 24 24" fill="none" xmlns="http://www.w3.org/2000/svg">
<rect width="24" height="24" rx="6" fill="#FAAD14"/>
<path d="M17.75 6.875H15.125V5.875C15.125 5.80625 15.0688 5.75 15 5.75H14.125C14.0562 5.75 14 5.80625 14 5.875V6.875H10V5.875C10 5.80625 9.94375 5.75 9.875 5.75H9C8.93125 5.75 8.875 5.80625 8.875 5.875V6.875H6.25C5.97344 6.875 5.75 7.09844 5.75 7.375V17.75C5.75 18.0266 5.97344 18.25 6.25 18.25H17.75C18.0266 18.25 18.25 18.0266 18.25 17.75V7.375C18.25 7.09844 18.0266 6.875 17.75 6.875ZM17.125 17.125H6.875V11.1875H17.125V17.125ZM6.875 10.125V8H8.875V8.75C8.875 8.81875 8.93125 8.875 9 8.875H9.875C9.94375 8.875 10 8.81875 10 8.75V8H14V8.75C14 8.81875 14.0562 8.875 14.125 8.875H15C15.0688 8.875 15.125 8.81875 15.125 8.75V8H17.125V10.125H6.875Z" fill="white"/>
</svg>
