<svg width="24" height="24" viewBox="0 0 24 24" fill="none" xmlns="http://www.w3.org/2000/svg">
<rect width="24" height="24" rx="6" fill="#4DC6FA"/>
<path d="M18.3285 7.29873L15.216 7.67373C15.1129 7.68623 15.0691 7.81279 15.1426 7.88623L16.0691 8.81279L12.5379 12.344L10.9473 10.755C10.8488 10.6565 10.691 10.6581 10.5941 10.755L5.56756 15.7831C5.5443 15.8066 5.53125 15.8383 5.53125 15.8714C5.53125 15.9044 5.5443 15.9362 5.56756 15.9597L6.27069 16.6659C6.31913 16.7144 6.39881 16.7144 6.44725 16.6659L10.7707 12.344L12.3597 13.9331C12.4582 14.03 12.616 14.03 12.7129 13.9331L16.9535 9.6956L17.8801 10.6222C17.8967 10.6387 17.9176 10.6502 17.9404 10.6554C17.9632 10.6607 17.9871 10.6594 18.0092 10.6517C18.0314 10.6441 18.0509 10.6304 18.0656 10.6122C18.0804 10.594 18.0897 10.572 18.0926 10.5487L18.4676 7.43623C18.4785 7.35654 18.4097 7.28779 18.3285 7.29873Z" fill="white"/>
</svg>
