<svg xmlns="http://www.w3.org/2000/svg" fill="none" viewBox="0 0 24 24" height="24" width="24">
<rect fill="#5595F7" rx="6" height="24" width="24"></rect>
<path fill="white" d="M17.5 15.5C17.5 13.7563 16.4781 12.25 15 11.5484V8.95781C15 8.72187 14.9172 8.49375 14.7641 8.31406L12.3828 5.49063C12.2828 5.37188 12.1406 5.3125 12 5.3125C11.8594 5.3125 11.7172 5.37188 11.6172 5.49063L9.23594 8.31406C9.08385 8.49412 9.00029 8.72212 9 8.95781V11.5484C7.52188 12.25 6.5 13.7563 6.5 15.5H8.94531C8.90937 15.6125 8.89062 15.7344 8.89062 15.8719C8.89062 16.2172 9.00937 16.5547 9.225 16.8219C9.401 17.0404 9.6341 17.2059 9.89844 17.3C10.2594 18.1438 11.0797 18.6875 12 18.6875C12.4547 18.6875 12.8953 18.5531 13.2719 18.3C13.6406 18.0531 13.9266 17.7078 14.1 17.3C14.3642 17.2065 14.5973 17.0415 14.7734 16.8234C14.9894 16.5538 15.1073 16.2189 15.1078 15.8734C15.1078 15.7422 15.0906 15.6172 15.0594 15.5016H17.5V15.5ZM15.9109 13.7094C16.0578 13.9375 16.1766 14.1828 16.2625 14.4375H14.9375V12.7297C15.3273 12.9841 15.659 13.3179 15.9109 13.7094ZM10.0625 11.5484V8.98125L12 6.68438L13.9375 8.98125V14.4375H10.0625V11.5484ZM7.7375 14.4375C7.82344 14.1828 7.94219 13.9375 8.08906 13.7094C8.34375 13.3156 8.675 12.9828 9.0625 12.7297V14.4375H7.7375ZM13.8141 16.2531C13.7328 16.3 13.6391 16.3187 13.5469 16.3062L13.2422 16.2688L13.1984 16.5719C13.1141 17.1641 12.5984 17.6109 12 17.6109C11.4016 17.6109 10.8859 17.1641 10.8016 16.5719L10.7578 16.2672L10.4531 16.3062C10.3605 16.3173 10.2668 16.2981 10.1859 16.2516C10.05 16.1734 9.96562 16.0281 9.96562 15.8703C9.96562 15.7047 10.0578 15.5672 10.1937 15.4984H13.8078C13.9453 15.5688 14.0359 15.7063 14.0359 15.8703C14.0344 16.0297 13.95 16.1766 13.8141 16.2531ZM11.25 10.25C11.25 10.4489 11.329 10.6397 11.4697 10.7803C11.6103 10.921 11.8011 11 12 11C12.1989 11 12.3897 10.921 12.5303 10.7803C12.671 10.6397 12.75 10.4489 12.75 10.25C12.75 10.0511 12.671 9.86032 12.5303 9.71967C12.3897 9.57902 12.1989 9.5 12 9.5C11.8011 9.5 11.6103 9.57902 11.4697 9.71967C11.329 9.86032 11.25 10.0511 11.25 10.25Z"></path>
</svg>
