<svg xmlns="http://www.w3.org/2000/svg" fill="none" viewBox="0 0 24 24" height="24" width="24">
<rect fill="#B3D47D" rx="6" height="24" width="24"></rect>
<g clip-path="url(#clip0)">
<path fill="white" d="M19.5167 6.76913V5.82625H15.29L13.9687 9.10608H10.2898L9.73691 7.62486L14.1061 5.99408L8.6426 4.6929L8.38397 4L7.50061 4.3297L7.75924 5.02262L4.48438 9.58538L8.85359 7.95459L9.28339 9.10611H8.13218L7.99314 9.2504C6.84788 10.4387 6.21715 12.0023 6.21715 13.6534C6.21715 17.1529 9.06423 20 12.5638 20C16.0634 20 18.9104 17.153 18.9104 13.6534C18.9104 12.0023 18.2797 10.4386 17.1345 9.25037L16.9954 9.10611H14.9852L15.9267 6.76916H19.5167V6.76913ZM8.48737 5.62519L10.8748 6.19375L7.05635 7.61899L8.48737 5.62519ZM12.5638 19.0571C9.58414 19.0571 7.16 16.633 7.16 13.6533C7.16 13.1892 7.21868 12.7331 7.33221 12.294H17.7953C17.9088 12.7331 17.9675 13.1892 17.9675 13.6533C17.9675 16.633 15.5434 19.0571 12.5638 19.0571ZM17.4544 11.3511H7.67312C7.89439 10.8818 8.18426 10.4432 8.53784 10.049H16.5897C16.9433 10.4432 17.2331 10.8818 17.4544 11.3511Z"></path>
</g>
<defs>
<clipPath id="clip0">
<rect transform="translate(4 4)" fill="white" height="16" width="16"></rect>
</clipPath>
</defs>
</svg>
