<svg xmlns="http://www.w3.org/2000/svg" fill="none" viewBox="0 0 24 24" height="24" width="24">
<rect fill="url(#paint0_linear)" rx="6" height="24" width="24"></rect>
<path fill="white" d="M18.1887 9.51708L14.2215 8.94052L12.4481 5.3452C12.3997 5.24677 12.32 5.16708 12.2215 5.11864C11.9747 4.99677 11.6747 5.09833 11.5512 5.3452L9.77779 8.94052L5.8106 9.51708C5.70123 9.5327 5.60123 9.58427 5.52466 9.66239C5.4321 9.75753 5.3811 9.88552 5.38286 10.0182C5.38461 10.151 5.43899 10.2776 5.53404 10.3702L8.40435 13.1686L7.72623 17.1202C7.71032 17.2121 7.7205 17.3067 7.75559 17.3931C7.79068 17.4795 7.84929 17.5544 7.92477 17.6092C8.00025 17.664 8.08958 17.6966 8.18263 17.7033C8.27568 17.7099 8.36873 17.6903 8.45123 17.6468L11.9997 15.7811L15.5481 17.6468C15.645 17.6983 15.7575 17.7155 15.8653 17.6968C16.1372 17.6499 16.32 17.3921 16.2731 17.1202L15.595 13.1686L18.4653 10.3702C18.5434 10.2936 18.595 10.1936 18.6106 10.0843C18.6528 9.81083 18.4622 9.5577 18.1887 9.51708Z"></path>
<defs>
<linearGradient gradientUnits="userSpaceOnUse" y2="12.9266" x2="26.7572" y1="24" x1="-3.15905e-07" id="paint0_linear">
<stop stop-color="#00A36E"></stop>
<stop stop-color="#00A69B" offset="1"></stop>
</linearGradient>
</defs>
</svg>
