<svg width="12" height="14" viewBox="0 0 12 14" fill="none" xmlns="http://www.w3.org/2000/svg">
<path d="M9.75 9.375C9.30469 9.375 8.89375 9.53125 8.57187 9.79219L5.33437 7.45C5.38859 7.15245 5.38859 6.84755 5.33437 6.55L8.57187 4.20781C8.89375 4.46875 9.30469 4.625 9.75 4.625C10.7844 4.625 11.625 3.78437 11.625 2.75C11.625 1.71563 10.7844 0.875 9.75 0.875C8.71563 0.875 7.875 1.71563 7.875 2.75C7.875 2.93125 7.9 3.10469 7.94844 3.27031L4.87344 5.49687C4.41719 4.89219 3.69219 4.5 2.875 4.5C1.49375 4.5 0.375 5.61875 0.375 7C0.375 8.38125 1.49375 9.5 2.875 9.5C3.69219 9.5 4.41719 9.10781 4.87344 8.50313L7.94844 10.7297C7.9 10.8953 7.875 11.0703 7.875 11.25C7.875 12.2844 8.71563 13.125 9.75 13.125C10.7844 13.125 11.625 12.2844 11.625 11.25C11.625 10.2156 10.7844 9.375 9.75 9.375ZM9.75 1.9375C10.1984 1.9375 10.5625 2.30156 10.5625 2.75C10.5625 3.19844 10.1984 3.5625 9.75 3.5625C9.30156 3.5625 8.9375 3.19844 8.9375 2.75C8.9375 2.30156 9.30156 1.9375 9.75 1.9375ZM2.875 8.375C2.11719 8.375 1.5 7.75781 1.5 7C1.5 6.24219 2.11719 5.625 2.875 5.625C3.63281 5.625 4.25 6.24219 4.25 7C4.25 7.75781 3.63281 8.375 2.875 8.375ZM9.75 12.0625C9.30156 12.0625 8.9375 11.6984 8.9375 11.25C8.9375 10.8016 9.30156 10.4375 9.75 10.4375C10.1984 10.4375 10.5625 10.8016 10.5625 11.25C10.5625 11.6984 10.1984 12.0625 9.75 12.0625Z" fill="#9292A3"/>
</svg>
