<svg width="12" height="14" viewBox="0 0 12 14" fill="none" xmlns="http://www.w3.org/2000/svg">
<path d="M11 0H1C0.723437 0 0.5 0.223437 0.5 0.5V13.5C0.5 13.7766 0.723437 14 1 14H11C11.2766 14 11.5 13.7766 11.5 13.5V0.5C11.5 0.223437 11.2766 0 11 0ZM10.375 12.875H1.625V9.73438H3.15469C3.33594 10.2469 3.65469 10.7078 4.07812 11.0578C4.61719 11.5031 5.3 11.75 6 11.75C6.7 11.75 7.38281 11.5047 7.92188 11.0578C8.34531 10.7078 8.66406 10.2469 8.84531 9.73438H10.375V8.75H8.05625L7.975 9.13594C7.7875 10.0703 6.95625 10.75 6 10.75C5.04375 10.75 4.2125 10.0703 4.02344 9.13594L3.94219 8.75H1.625V1.125H10.375V12.875ZM3 4.32812H9C9.06875 4.32812 9.125 4.27187 9.125 4.20312V3.45312C9.125 3.38438 9.06875 3.32812 9 3.32812H3C2.93125 3.32812 2.875 3.38438 2.875 3.45312V4.20312C2.875 4.27187 2.93125 4.32812 3 4.32812ZM3 6.82812H9C9.06875 6.82812 9.125 6.77187 9.125 6.70312V5.95312C9.125 5.88438 9.06875 5.82812 9 5.82812H3C2.93125 5.82812 2.875 5.88438 2.875 5.95312V6.70312C2.875 6.77187 2.93125 6.82812 3 6.82812Z" fill="#9292A3"/>
</svg>
