<svg width="26" height="24" viewBox="0 0 26 24" fill="none" xmlns="http://www.w3.org/2000/svg">
<path fill-rule="evenodd" clip-rule="evenodd" d="M3.66655 12.3463C3.6733 11.6046 3.1459 10.9207 2.46043 10.6689C2.07162 10.5221 1.64835 10.5348 1.25281 10.645C0.877483 10.8098 0.506656 11.0398 0.296146 11.4016C0.0481783 11.8271 -0.0889154 12.3493 0.0646596 12.8317C0.190516 13.4153 0.634011 13.891 1.18463 14.103C1.88658 14.3959 2.74136 14.1472 3.22905 13.5794C3.51822 13.2408 3.69352 12.795 3.66655 12.3463Z" fill="#54B2D3"/>
<path fill-rule="evenodd" clip-rule="evenodd" d="M25.5532 11.9698C25.3367 10.972 24.1785 10.3015 23.2084 10.6491C22.4877 10.8723 21.9154 11.5788 21.9521 12.3481C21.8787 13.2344 22.5881 14.0547 23.4489 14.1993C24.2152 14.3364 25.0565 13.9303 25.3974 13.2239C25.6101 12.8441 25.6199 12.3901 25.5532 11.9698ZM7.15523 14.5458C6.95296 14.0341 6.45178 13.7412 6.16486 13.2872C5.73485 12.6287 5.70414 11.7529 5.98956 11.033C6.24877 10.3812 6.95147 10.0389 7.1882 9.37739C7.3193 8.99907 7.37998 8.5818 7.26611 8.19075C7.12602 7.50603 6.53719 6.9554 5.85996 6.81831C5.51685 6.78235 5.15726 6.77111 4.83363 6.91045C4.08298 7.15617 3.59304 7.9675 3.66196 8.74511C3.64249 9.39912 4.08074 9.93326 4.52198 10.3648C4.79018 10.6105 4.9445 10.9416 5.09958 11.2637C5.18048 11.8129 5.21719 12.3867 5.02241 12.9179C4.74373 13.5988 4.02755 13.9682 3.76984 14.6581C3.63649 14.9788 3.65148 15.3361 3.6747 15.6755C3.76984 16.3385 4.27626 16.9056 4.9018 17.1266C5.21944 17.215 5.5573 17.2472 5.88318 17.1775C6.56491 17.0344 7.15074 16.4651 7.27659 15.7736C7.38222 15.3653 7.30806 14.9323 7.15523 14.5458Z" fill="#54B2D3"/>
<path fill-rule="evenodd" clip-rule="evenodd" d="M20.4576 12.417C20.4508 11.948 20.3939 11.4506 20.6119 11.0161C20.8921 10.3643 21.5918 10.0085 21.8323 9.33349C22.0847 8.63304 21.9319 7.77527 21.3581 7.27559C20.9206 6.83284 20.2463 6.71598 19.6537 6.83884C19.1518 6.97068 18.7061 7.31454 18.4716 7.78201C18.2521 8.18505 18.2506 8.66525 18.3203 9.10875C18.4364 9.69083 18.9031 10.0916 19.2814 10.5119C19.85 11.1419 19.9077 12.0933 19.6567 12.8717C19.4298 13.5444 18.7338 13.8905 18.4521 14.5281C18.2686 14.8817 18.2603 15.2922 18.2993 15.6795C18.4132 16.3515 18.9203 16.9546 19.5818 17.1411C20.0957 17.2879 20.6786 17.2153 21.1251 16.9156C21.5229 16.6452 21.8255 16.2219 21.9079 15.7439C22.0495 15.1176 21.8398 14.4344 21.388 13.9804C20.9648 13.5452 20.5003 13.0567 20.4576 12.417Z" fill="#54B2D3"/>
<path fill-rule="evenodd" clip-rule="evenodd" d="M10.5968 17.5633C10.2642 17.17 9.83116 16.8396 9.63862 16.3437C9.40189 15.7324 9.40189 15.0244 9.64687 14.4161C9.81842 13.9846 10.1892 13.6894 10.4837 13.3486C10.7421 13.0512 10.9369 12.6803 10.9526 12.2803C10.9706 11.8863 10.9766 11.4712 10.7908 11.1116C10.5391 10.5535 9.95626 10.2426 9.69706 9.68901C9.41763 9.11216 9.3989 8.4252 9.57944 7.81539C9.71279 7.36815 10.0379 7.0183 10.3645 6.69991C10.7444 6.32834 10.9961 5.81142 10.9601 5.27204C11.0036 4.65474 10.6897 4.03295 10.1623 3.70632C9.76448 3.40741 9.24382 3.34823 8.76512 3.43064C8.26993 3.54376 7.80771 3.85166 7.55825 4.30115C7.28031 4.75288 7.28406 5.31774 7.38444 5.82191C7.56873 6.56656 8.33661 6.93215 8.63477 7.61387C8.9127 8.27012 8.90371 9.04774 8.59132 9.6905C8.30664 10.2666 7.69609 10.6067 7.45337 11.2098C7.29979 11.5454 7.32451 11.9237 7.33425 12.2833C7.34699 12.6317 7.49981 12.9613 7.71332 13.2325C8.01822 13.6078 8.41227 13.9187 8.62128 14.3652C8.92094 15.0117 8.90221 15.7908 8.6063 16.4351C8.30664 17.0958 7.5515 17.4539 7.3822 18.1873C7.2878 18.6765 7.28106 19.2219 7.54027 19.6654C7.86465 20.2242 8.48494 20.622 9.14119 20.6071C9.98248 20.6303 10.7788 19.9785 10.9346 19.1537C11.0073 18.6083 10.9564 18.006 10.5968 17.5633ZM16.8814 16.1806C16.7241 15.6097 16.7249 14.9775 16.9474 14.4223C17.1953 13.8238 17.8051 13.4859 18.0868 12.9098C18.355 12.3667 18.364 11.7022 18.116 11.1508C17.8426 10.5238 17.1691 10.1754 16.9294 9.52891C16.7219 8.96181 16.7174 8.31604 16.9099 7.74295C17.0912 7.19907 17.5879 6.8657 17.9115 6.41546C18.2966 5.8948 18.406 5.17937 18.1655 4.57331C17.8696 3.73651 16.9099 3.22859 16.0484 3.43761C15.3944 3.58519 14.8325 4.11708 14.6782 4.77258C14.5771 5.15615 14.6018 5.56967 14.7344 5.942C15.0086 6.69639 15.8371 7.08819 16.0476 7.87779C16.1855 8.43591 16.1862 9.05395 15.9607 9.59034C15.6873 10.2001 15.055 10.5545 14.7771 11.1606C14.5801 11.6415 14.5651 12.1974 14.7232 12.6918C14.9779 13.4365 15.7847 13.8178 16.0214 14.5729C16.1862 15.1063 16.1832 15.7019 16.0124 16.2338C15.7802 16.941 15.0341 17.3006 14.7636 17.9853C14.5441 18.5322 14.5636 19.1839 14.8647 19.6971C15.0962 20.0716 15.4528 20.3751 15.8731 20.5151C16.4057 20.6942 17.0245 20.617 17.4853 20.2882C17.937 19.9907 18.2172 19.4761 18.2853 18.9464C18.3363 18.3883 18.1527 17.8092 17.7677 17.3987C17.4298 17.0279 17.0268 16.681 16.8814 16.1806Z" fill="#54B2D3"/>
<mask id="mask0" mask-type="alpha" maskUnits="userSpaceOnUse" x="10" y="0" width="5" height="24">
<path d="M10.9612 0H14.6328V24H10.9612V0Z" fill="white"/>
</mask>
<g mask="url(#mask0)">
<path fill-rule="evenodd" clip-rule="evenodd" d="M13.4991 20.1034C13.2219 19.7356 13.126 19.2637 13.1193 18.8119C13.1125 18.2898 13.2354 17.7406 13.5882 17.3398C13.9636 16.8934 14.4737 16.4971 14.5854 15.8895C14.6588 15.419 14.6633 14.9059 14.4333 14.4744C14.1583 13.8893 13.5208 13.5694 13.2886 12.9573C13.0661 12.3678 13.0593 11.6935 13.2691 11.1002C13.5216 10.393 14.2894 10.0342 14.5277 9.31874C14.6678 8.86026 14.6678 8.35084 14.5254 7.89311C14.2864 7.17768 13.5058 6.82633 13.2654 6.11089C13.0429 5.45988 13.0361 4.66504 13.4766 4.10018C13.6931 3.81701 13.9733 3.58927 14.1853 3.30234C14.6138 2.77419 14.6985 2.04078 14.5809 1.38977C14.3681 0.463828 13.3575 -0.176692 12.4286 0.0435565C11.8989 0.144691 11.4397 0.511773 11.1782 0.977742C10.8037 1.68194 10.9205 2.62961 11.4876 3.20046C11.797 3.52559 12.1214 3.85371 12.3117 4.26574C12.5207 4.70699 12.4563 5.20967 12.448 5.68238C12.3851 6.35586 11.8637 6.83007 11.4397 7.30203C10.925 7.84891 10.8494 8.69395 11.0981 9.37942C11.3505 10.0094 11.9918 10.366 12.2772 10.9766C12.5095 11.3954 12.4593 11.8876 12.4548 12.3468C12.4495 12.7543 12.2525 13.1319 12.0038 13.4443C11.7229 13.8166 11.3236 14.1013 11.1318 14.538C10.8973 15.0827 10.9078 15.7239 11.143 16.2663C11.415 16.8267 11.9866 17.166 12.2653 17.7227C12.523 18.2021 12.466 18.767 12.4413 19.2906C12.3589 19.9521 11.836 20.4128 11.4187 20.8826C10.7819 21.586 10.8112 22.8004 11.5071 23.4559C11.8802 23.8349 12.4241 24.041 12.9552 23.9938C13.4871 23.9481 13.98 23.6484 14.2984 23.2266C14.6648 22.7142 14.7127 22.0258 14.5194 21.4392C14.3321 20.8915 13.8242 20.5597 13.4991 20.1034Z" fill="#54B2D3"/>
</g>
</svg>
