<svg width="16" height="16" viewBox="0 0 16 16" fill="none" xmlns="http://www.w3.org/2000/svg">
<g clip-path="url(#clip0)">
<path d="M11.7177 11.8712C10.9187 10.895 10.4786 9.66141 10.4786 8.39769C10.4786 7.92654 10.5383 7.45894 10.6561 7.00779C10.981 5.76272 10.7197 4.45938 9.93913 3.432C9.16372 2.41144 7.98769 1.81432 6.71253 1.79391C6.67644 1.79332 6.64028 1.79229 6.60466 1.79307C2.96678 1.79304 0.00369096 4.753 3.45921e-06 8.39088C-0.00177779 10.1564 0.68441 11.8166 1.9321 13.0655C3.17982 14.3145 4.83922 15.0023 6.60466 15.0023C8.59313 15.0023 10.4568 14.1188 11.7178 12.5783L12.0071 12.2248L11.7177 11.8712ZM6.60466 13.8861C5.1376 13.8861 3.75866 13.3145 2.72185 12.2766C1.685 11.2388 1.11485 9.85919 1.11632 8.39207C1.11935 5.36882 3.58141 2.90929 6.60469 2.90932C6.63475 2.90932 6.66472 2.90957 6.69463 2.91007C7.62491 2.92497 8.48353 3.36138 9.05031 4.10735C9.62225 4.86013 9.81385 5.81454 9.57597 6.72588C9.43419 7.26904 9.36232 7.83147 9.36232 8.39769C9.36232 9.75851 9.78644 11.0904 10.5648 12.1975C9.53154 13.2756 8.11113 13.8861 6.60466 13.8861Z" fill="#54B2D3"/>
<path d="M6.51132 4.02594C5.58804 4.02594 4.83691 4.7771 4.83691 5.70035C4.83691 6.6236 5.58807 7.37475 6.51132 7.37475C7.43461 7.37475 8.18574 6.6236 8.18574 5.70035C8.18574 4.7771 7.43461 4.02594 6.51132 4.02594ZM6.51132 6.2585C6.20357 6.2585 5.9532 6.00813 5.9532 5.70038C5.9532 5.39263 6.20357 5.14225 6.51132 5.14225C6.81908 5.14225 7.06945 5.39263 7.06945 5.70038C7.06945 6.00813 6.81908 6.2585 6.51132 6.2585Z" fill="#54B2D3"/>
<path d="M3.53476 7.00293C2.61148 7.00293 1.86035 7.75409 1.86035 8.67734C1.86035 9.60062 2.61151 10.3518 3.53476 10.3518C4.458 10.3518 5.20916 9.60059 5.20916 8.67734C5.20919 7.75409 4.45804 7.00293 3.53476 7.00293ZM3.53476 9.2355C3.22701 9.2355 2.97663 8.98512 2.97663 8.67737C2.97663 8.36962 3.22701 8.11925 3.53476 8.11925C3.8425 8.11925 4.09288 8.36962 4.09288 8.67737C4.09288 8.98512 3.84254 9.2355 3.53476 9.2355Z" fill="#54B2D3"/>
<path d="M6.51132 9.60773C5.58804 9.60773 4.83691 10.3589 4.83691 11.2821C4.83691 12.2054 5.58807 12.9565 6.51132 12.9565C7.43461 12.9565 8.18574 12.2054 8.18574 11.2821C8.18577 10.3589 7.43461 9.60773 6.51132 9.60773ZM6.51132 11.8403C6.20357 11.8403 5.9532 11.5899 5.9532 11.2822C5.9532 10.9744 6.20357 10.724 6.51132 10.724C6.81908 10.724 7.06945 10.9744 7.06945 11.2822C7.06948 11.5899 6.81908 11.8403 6.51132 11.8403Z" fill="#54B2D3"/>
<path d="M14.1398 0.305115C13.1139 0.305115 12.2793 1.13971 12.2793 2.16558V11.0958H16.0002V2.16555C16.0002 1.13971 15.1656 0.305115 14.1398 0.305115ZM14.884 9.97952H13.3956V8.49115H14.884V9.97952ZM14.884 7.37486H13.3956V2.16555C13.3956 1.75521 13.7294 1.42136 14.1398 1.42136C14.5501 1.42136 14.884 1.75521 14.884 2.16555V7.37486Z" fill="#54B2D3"/>
<path d="M14.1398 11.4673C13.1139 11.4673 12.2793 12.3019 12.2793 13.3278C12.2793 13.7848 12.5452 14.2753 13.092 14.8275C13.4446 15.1833 13.7949 15.4414 13.8097 15.4523L14.1398 15.6943L14.4699 15.4523C14.4846 15.4414 14.835 15.1833 15.1875 14.8275C15.7344 14.2753 16.0002 13.7848 16.0002 13.3278C16.0002 12.3019 15.1656 11.4673 14.1398 11.4673ZM14.1393 14.2848C13.7261 13.9194 13.3956 13.5063 13.3956 13.3278C13.3956 12.9174 13.7294 12.5836 14.1398 12.5836C14.5501 12.5836 14.884 12.9174 14.884 13.3278C14.884 13.5051 14.5529 13.9185 14.1393 14.2848Z" fill="#54B2D3"/>
</g>
<defs>
<clipPath id="clip0">
<rect width="16" height="16" fill="white"/>
</clipPath>
</defs>
</svg>
