<svg width="16" height="16" viewBox="0 0 16 16" fill="none" xmlns="http://www.w3.org/2000/svg">
<path d="M8 7.53125C8.77541 7.53125 9.40625 6.90041 9.40625 6.125C9.40625 5.34959 8.77541 4.71875 8 4.71875C7.22459 4.71875 6.59375 5.34959 6.59375 6.125C6.59375 6.90041 7.22459 7.53125 8 7.53125ZM8 5.65625C8.25847 5.65625 8.46875 5.86653 8.46875 6.125C8.46875 6.38347 8.25847 6.59375 8 6.59375C7.74153 6.59375 7.53125 6.38347 7.53125 6.125C7.53125 5.86653 7.74153 5.65625 8 5.65625Z" fill="#54B2D3"/>
<path d="M10.3438 9.875C10.3438 10.6504 10.9746 11.2812 11.75 11.2812C12.5254 11.2812 13.1562 10.6504 13.1562 9.875C13.1562 9.09959 12.5254 8.46875 11.75 8.46875C10.9746 8.46875 10.3438 9.09959 10.3438 9.875ZM12.2188 9.875C12.2188 10.1335 12.0085 10.3438 11.75 10.3438C11.4915 10.3438 11.2812 10.1335 11.2812 9.875C11.2812 9.61653 11.4915 9.40625 11.75 9.40625C12.0085 9.40625 12.2188 9.61653 12.2188 9.875Z" fill="#54B2D3"/>
<path d="M7.33594 9.875L11.7482 5.46276L12.411 6.12558L7.99875 10.5378L7.33594 9.875Z" fill="#54B2D3"/>
<path d="M15.5312 7.53125H16V2.84375C15.4068 2.84375 0.520219 2.84375 0 2.84375V7.53125H0.46875C0.727219 7.53125 0.9375 7.74153 0.9375 8C0.9375 8.25847 0.727219 8.46875 0.46875 8.46875H0V13.1562H16V8.46875H15.5312C15.2728 8.46875 15.0625 8.25847 15.0625 8C15.0625 7.74153 15.2728 7.53125 15.5312 7.53125ZM15.0625 6.67406C14.5168 6.86753 14.125 7.38884 14.125 8C14.125 8.61116 14.5168 9.13247 15.0625 9.32594V12.2188H4.71875V11.2812H3.78125V12.2188H0.9375V9.32594C1.48316 9.13247 1.875 8.61116 1.875 8C1.875 7.38884 1.48316 6.86753 0.9375 6.67406V3.78125H3.78125V4.71875H4.71875V3.78125H15.0625V6.67406Z" fill="#54B2D3"/>
<path d="M3.78125 8.46875H4.71875V10.3438H3.78125V8.46875Z" fill="#54B2D3"/>
<path d="M3.78125 5.65625H4.71875V7.53125H3.78125V5.65625Z" fill="#54B2D3"/>
</svg>
