<svg width="24" height="24" viewBox="0 0 24 24" fill="none" xmlns="http://www.w3.org/2000/svg">
<path d="M23.8515 5.10553L22.8571 4.11122L21.6271 5.34122C20.8211 4.87814 19.7723 4.99013 19.0844 5.67816L18.6692 6.09328V0H3.85607L0.147461 3.70861V24H18.6692V12.4937L22.2846 8.87836C22.9726 8.19033 23.0847 7.14155 22.6215 6.33553L23.8515 5.10553ZM9.96149 17.0028L10.9599 18.0012L9.22954 18.7332L9.96149 17.0028ZM12.0608 17.1134L10.8494 15.9019L18.5871 8.16408L19.7986 9.37556L12.0608 17.1134ZM4.23918 1.60561V4.09172H1.75307L4.23918 1.60561ZM17.263 22.5938H1.55371V5.49797H5.64543V1.40625H17.263V7.49953L15.0458 9.71672H3.74352V11.123H13.6395L12.2333 12.5292H3.74352V13.9355H10.827L8.9294 15.8331L7.70619 18.7249L6.72341 17.7422L5.1531 19.3125H2.95996V20.7188H5.73557L6.72341 19.7309L7.84049 20.8476L12.1296 19.0333L17.263 13.8999V22.5938ZM21.2902 7.884L20.793 8.3812L19.5816 7.16967L20.0788 6.67247C20.353 6.39834 20.7989 6.3983 21.0732 6.67247L21.2903 6.88959C21.5644 7.16377 21.5644 7.60983 21.2902 7.884Z" fill="#54B2D3"/>
<path d="M5.72363 6.9043H13.093V8.31055H5.72363V6.9043Z" fill="#54B2D3"/>
</svg>
