<svg width="24" height="24" viewBox="0 0 24 24" fill="none" xmlns="http://www.w3.org/2000/svg">
<g clip-path="url(#clip0)">
<path d="M8.15334 0V8.19601H7.51794V9.65379H8.15334V16.1413L5.40663 20.2178V9.65379H6.06346V8.19601H0.0703125V9.65379H0.727142V21.6603C0.727142 22.8822 1.66877 23.8877 2.8644 23.9907L2.85813 24H23.9355V0L8.15334 0ZM3.94885 9.65379V13.1849H2.18493V9.65379H3.94885ZM2.18493 21.6603V14.6426H3.94885V21.6603C3.94885 22.1466 3.55316 22.5422 3.06689 22.5422C2.58062 22.5422 2.18493 22.1466 2.18493 21.6603ZM11.1263 9.65379V16.5866L12.5147 18.6472H8.22268L9.61113 16.5866V9.65379H11.1263ZM5.59818 22.5422L7.24043 20.1049H13.497L15.1392 22.5422H5.59818ZM22.4776 22.5422H16.897L12.584 16.1413V9.65379H13.2194V8.19601H9.61113V1.45779H22.4776V22.5422Z" fill="#9292A3"/>
<path d="M15.041 2.92822H11.0684V6.90083H15.041V2.92822ZM13.5832 5.44305H12.5262V4.38601H13.5832V5.44305Z" fill="#9292A3"/>
<path d="M15.375 9.65479H20.3962V11.1126H15.375V9.65479Z" fill="#9292A3"/>
<path d="M15.375 12.728H20.3962V14.1857H15.375V12.728Z" fill="#9292A3"/>
<path d="M15.375 15.8042H20.3962V17.2619H15.375V15.8042Z" fill="#9292A3"/>
</g>
<defs>
<clipPath id="clip0">
<rect width="24" height="24" fill="white"/>
</clipPath>
</defs>
</svg>
