<svg width="24" height="24" viewBox="0 0 24 24" fill="none" xmlns="http://www.w3.org/2000/svg">
<path d="M15.8281 1.41211V0H8.17186V1.41211H4.23633V24H19.7637V1.41211H15.8281ZM9.57811 1.40625H14.4218V2.82422H9.57811V1.40625ZM18.3574 22.5938H5.64258V2.81836H8.17186V4.23047H15.8281V2.81836H18.3574V22.5938H18.3574Z" fill="#54B2D3"/>
<path d="M11.2969 9.82031H12.7031V8.54297H13.9805V7.13672H12.7031V5.85938H11.2969V7.13672H10.0195V8.54297H11.2969V9.82031Z" fill="#54B2D3"/>
<path d="M7.76367 11.2969H9.17578V12.7031H7.76367V11.2969Z" fill="#54B2D3"/>
<path d="M10.5879 11.2969H16.2363V12.7031H10.5879V11.2969Z" fill="#54B2D3"/>
<path d="M7.76367 14.1211H9.17578V15.5273H7.76367V14.1211Z" fill="#54B2D3"/>
<path d="M10.5879 14.1211H16.2363V15.5273H10.5879V14.1211Z" fill="#54B2D3"/>
<path d="M7.76367 16.9453H16.2363V18.3516H7.76367V16.9453Z" fill="#54B2D3"/>
<path d="M7.76367 19.7695H16.2363V21.1758H7.76367V19.7695Z" fill="#54B2D3"/>
</svg>
