<svg width="24" height="24" viewBox="0 0 24 24" fill="none" xmlns="http://www.w3.org/2000/svg">
<g clip-path="url(#clip0)">
<path d="M3.5293 8.47046H14.8234V9.88223H3.5293V8.47046Z" fill="#54B2D3"/>
<path d="M3.5293 11.2939H6.35283V12.7057H3.5293V11.2939Z" fill="#54B2D3"/>
<path d="M7.76465 11.2939H14.8235V12.7057H7.76465V11.2939Z" fill="#54B2D3"/>
<path d="M3.5293 14.1174H6.35283V15.5292H3.5293V14.1174Z" fill="#54B2D3"/>
<path d="M3.5293 16.9409H6.35283V18.3527H3.5293V16.9409Z" fill="#54B2D3"/>
<path d="M3.5293 19.7644H6.35283V21.1762H3.5293V19.7644Z" fill="#54B2D3"/>
<path d="M22.3202 5.77962C21.3375 5.14894 20.0249 5.43544 19.3942 6.41807L17.6472 9.14028V4.23529H14.8237V3.91454C14.8237 2.92372 14.0176 2.11765 13.0268 2.11765H12.5089L11.803 0H6.5502L5.84431 2.11765H5.32643C4.33565 2.11765 3.52958 2.92372 3.52958 3.91454V4.23529H0.706055V24H17.6472V16.9819L22.9587 8.7056C23.5893 7.72292 23.3029 6.41035 22.3202 5.77962ZM4.9413 3.91454C4.9413 3.70216 5.11405 3.52941 5.32638 3.52941H6.86182L7.5677 1.41176H10.7854L11.4913 3.52941H13.0268C13.2391 3.52941 13.4118 3.70216 13.4118 3.91454V5.64706H4.94125V3.91454H4.9413ZM16.2354 22.5882H2.11777V5.64706H3.52954V7.05882H14.8237V5.64706H16.2354V11.3401L14.4529 14.1176H7.76483V15.5294H13.5469L12.6409 16.9412H7.76483V18.3529H12.0688L12.4572 21.1481L15.5738 20.2126L16.2355 19.1816V22.5882H16.2354ZM21.7705 7.94311L14.6677 19.0106L13.6289 19.3224L13.4796 18.2481L20.5824 7.18061C20.7926 6.85308 21.2301 6.75755 21.5577 6.96781C21.8853 7.17798 21.9807 7.61553 21.7705 7.94311Z" fill="#54B2D3"/>
</g>
<defs>
<clipPath id="clip0">
<rect width="24" height="24" fill="white"/>
</clipPath>
</defs>
</svg>
