<svg width="24" height="24" viewBox="0 0 24 24" fill="none" xmlns="http://www.w3.org/2000/svg">
<path d="M9.3146 0.199463C7.74054 0.199463 6.45996 1.48009 6.45996 3.05415C6.45996 4.62821 7.74054 5.90884 9.3146 5.90884C10.8887 5.90884 12.1693 4.62821 12.1693 3.05415C12.1693 1.48009 10.8887 0.199463 9.3146 0.199463ZM9.3146 4.50259C8.51595 4.50259 7.86621 3.85281 7.86621 3.05415C7.86621 2.25549 8.51595 1.60571 9.3146 1.60571C10.1133 1.60571 10.763 2.25549 10.763 3.05415C10.763 3.85285 10.1133 4.50259 9.3146 4.50259Z" fill="#9292A3"/>
<path d="M21.1447 15.8137C19.5706 15.8137 18.29 17.0943 18.29 18.6684C18.29 20.2425 19.5706 21.5231 21.1447 21.5231C22.7188 21.5231 23.9994 20.2425 23.9994 18.6684C23.9994 17.0943 22.7188 15.8137 21.1447 15.8137ZM21.1447 20.1168C20.346 20.1168 19.6963 19.4671 19.6963 18.6684C19.6963 17.8698 20.346 17.22 21.1447 17.22C21.9433 17.22 22.5931 17.8698 22.5931 18.6684C22.5931 19.4671 21.9433 20.1168 21.1447 20.1168Z" fill="#9292A3"/>
<path d="M16.4917 16.3845C15.8398 15.8052 14.9693 15.5315 14.1032 15.6341L13.5117 15.704C13.6352 15.3282 13.6319 14.9166 13.4921 14.5364L10.6511 6.80933H6.95438L2.60156 16.9942L2.0663 17.0575C0.888328 17.1968 0 18.1963 0 19.3826C0 20.6735 1.05028 21.7238 2.34127 21.7238H14.462V21.7238C16.1467 21.7238 17.5174 20.3532 17.5174 18.6684C17.5174 17.7963 17.1435 16.9639 16.4917 16.3845ZM7.88259 8.21567H9.66984L12.1723 15.0218C12.2301 15.1791 12.1696 15.3016 12.1284 15.3606C12.0873 15.4197 11.9932 15.5187 11.8255 15.5187C11.6972 15.5187 11.58 15.4536 11.5121 15.3447L8.83584 11.0541L6.82842 16.4944L4.21219 16.8038L7.88259 8.21567ZM10.3147 16.0821L8.39573 16.3091L9.16162 14.2335L10.3147 16.0821ZM14.4619 20.3176H2.34127C1.82569 20.3175 1.40625 19.8981 1.40625 19.3826C1.40625 18.9088 1.761 18.5097 2.23144 18.454L14.2683 17.0307C14.3355 17.0228 14.4023 17.0188 14.4685 17.0188C14.8702 17.0188 15.251 17.1634 15.5574 17.4357C15.9144 17.753 16.1111 18.1908 16.1111 18.6684C16.1111 19.5777 15.3713 20.3176 14.4619 20.3176Z" fill="#9292A3"/>
<path d="M23.1975 22.3943H0.703125V23.8005H23.1975V22.3943Z" fill="#9292A3"/>
</svg>
