<svg width="4" height="14" viewBox="0 0 4 14" fill="none" xmlns="http://www.w3.org/2000/svg">
<path d="M0.90625 1.51172C0.90625 1.8018 1.02148 2.08 1.2266 2.28512C1.43172 2.49023 1.70992 2.60547 2 2.60547C2.29008 2.60547 2.56828 2.49023 2.7734 2.28512C2.97852 2.08 3.09375 1.8018 3.09375 1.51172C3.09375 1.22164 2.97852 0.943439 2.7734 0.738321C2.56828 0.533203 2.29008 0.417969 2 0.417969C1.70992 0.417969 1.43172 0.533203 1.2266 0.738321C1.02148 0.943439 0.90625 1.22164 0.90625 1.51172ZM0.90625 6.98047C0.90625 7.27055 1.02148 7.54875 1.2266 7.75387C1.43172 7.95898 1.70992 8.07422 2 8.07422C2.29008 8.07422 2.56828 7.95898 2.7734 7.75387C2.97852 7.54875 3.09375 7.27055 3.09375 6.98047C3.09375 6.69039 2.97852 6.41219 2.7734 6.20707C2.56828 6.00195 2.29008 5.88672 2 5.88672C1.70992 5.88672 1.43172 6.00195 1.2266 6.20707C1.02148 6.41219 0.90625 6.69039 0.90625 6.98047ZM0.90625 12.4492C0.90625 12.7393 1.02148 13.0175 1.2266 13.2226C1.43172 13.4277 1.70992 13.543 2 13.543C2.29008 13.543 2.56828 13.4277 2.7734 13.2226C2.97852 13.0175 3.09375 12.7393 3.09375 12.4492C3.09375 12.1591 2.97852 11.8809 2.7734 11.6758C2.56828 11.4707 2.29008 11.3555 2 11.3555C1.70992 11.3555 1.43172 11.4707 1.2266 11.6758C1.02148 11.8809 0.90625 12.1591 0.90625 12.4492Z" fill="white"/>
</svg>
